*
G04 Mass Parameters ***
*
G04 Image ***
*
%IND:\STUDY\ORCAD\SEMI 5\UPDATED\GASLEVELSENSUPDATED-1.TOP*%
%ICAS*%
%MOIN*%
%IPPOS*%
%ASAXBY*%
G74*%FSLAN2X34Y34*%
*
G04 Aperture Definitions ***
*
%ADD10C,0.0520*%
%ADD11R,0.0520X0.0520*%
%ADD12C,0.0580*%
%ADD13R,0.0580X0.0580*%
%ADD14C,0.0620*%
%ADD15R,0.0620X0.0620*%
%ADD16C,0.0600*%
%ADD17R,0.0600X0.0600*%
%ADD18C,0.1100*%
%ADD19C,0.0100*%
%ADD20C,0.0200*%
%ADD21C,0.0500*%
*
G04 Plot Data ***
*
G54D19*
G01X-0008387Y0029458D02*
X-0008471Y0029542D01*
X-0008512Y0029625D01*
Y0029792D01*
X-0008471Y0029875D01*
X-0008387Y0029958D01*
X-0008304D01*
X-0008221Y0029875D01*
X-0008179Y0029792D01*
Y0029625D01*
X-0008221Y0029542D01*
X-0008304Y0029458D01*
X-0008387D01*
X-0008962D02*
X-0009046Y0029542D01*
X-0009087Y0029625D01*
Y0029792D01*
X-0009046Y0029875D01*
X-0008962Y0029958D01*
X-0008879D01*
X-0008796Y0029875D01*
X-0008754Y0029792D01*
Y0029625D01*
X-0008796Y0029542D01*
X-0008879Y0029458D01*
X-0008962D01*
X-0009579D02*
X-0009329Y0029958D01*
X-0009662D01*
X-0009904Y0029458D02*
X-0010237D01*
X-0009904Y0029792D01*
Y0029875D01*
X-0009946Y0029958D01*
X-0010196D01*
X-0010237Y0029875D01*
X-0024542Y0014887D02*
X-0024458Y0014971D01*
X-0024375Y0015012D01*
X-0024208D01*
X-0024125Y0014971D01*
X-0024042Y0014887D01*
Y0014804D01*
X-0024125Y0014721D01*
X-0024208Y0014679D01*
X-0024375D01*
X-0024458Y0014721D01*
X-0024542Y0014804D01*
Y0014887D01*
X-0024458Y0015587D02*
X-0024542Y0015546D01*
Y0015296D01*
X-0024458Y0015254D01*
X-0024292D01*
X-0024208Y0015337D01*
Y0015587D01*
X-0024042D01*
Y0015254D01*
X-0024458Y0016162D02*
X-0024542Y0016121D01*
Y0015871D01*
X-0024458Y0015829D01*
X-0024292D01*
X-0024208Y0015912D01*
Y0016162D01*
X-0024042D01*
Y0015829D01*
X-0024542Y0016404D02*
Y0016737D01*
X-0024208Y0016404D01*
X-0024125D01*
X-0024042Y0016446D01*
Y0016696D01*
X-0024125Y0016737D01*
X-0007473Y0025700D02*
X-0007527D01*
X-0010350Y0026400D02*
Y0025100D01*
X-0010080Y0028250D02*
Y0027100D01*
X-0008440Y0025440D02*
X-0009560D01*
X-0022410Y0028250D02*
Y0002750D01*
X-0016200Y0025650D02*
Y0022350D01*
X-0019540Y0025540D02*
Y0024460D01*
X-0018460D02*
X-0019540D01*
X-0018460Y0025540D02*
Y0024460D01*
X-0014560Y0025650D02*
X-0018589D01*
X-0003850Y0022640D02*
X-0004597D01*
X0000990Y0028250D02*
Y0025560D01*
X-0003850Y0022010D02*
X-0004460D01*
X-0020351Y0022370D02*
X-0022500D01*
X-0003850Y0020480D02*
X-0004752D01*
X-0003850Y0021560D02*
X-0004687D01*
X-0003850Y0018500D02*
X-0004796D01*
X-0003850Y0018680D02*
X-0004565D01*
X-0003850Y0014630D02*
X-0004607D01*
X-0003850Y0013640D02*
X-0004597D01*
X-0003850Y0011480D02*
X-0004752D01*
X-0003850Y0012560D02*
X-0004687D01*
X-0003850Y0011570D02*
X-0004673D01*
X-0002160Y0009150D02*
Y0002750D01*
X-0003850Y0010490D02*
X-0004822D01*
X-0003850Y0010580D02*
X-0004660D01*
X-0005411Y0013350D02*
X-0008500D01*
X-0007200Y0013650D02*
Y0013350D01*
X-0003850Y0013820D02*
X-0004491D01*
X-0008820Y0015650D02*
Y0015495D01*
X-0005411Y0015350D02*
X-0007750D01*
X-0008510Y0014561D02*
Y0014350D01*
X-0004950Y0010462D02*
Y0002750D01*
X-0015449Y0016700D02*
X-0022500D01*
X-0005411Y0015650D02*
X-0007629D01*
X-0003850Y0017780D02*
X-0004507D01*
X-0008190Y0017650D02*
Y0016473D01*
X-0003850Y0018590D02*
X-0004648D01*
X-0003850Y0019670D02*
X-0004572D01*
X-0003850Y0020750D02*
X-0004521D01*
X-0005411Y0020350D02*
X-0008393D01*
X-0004590Y0010648D02*
Y0002750D01*
X-0005402Y0022640D02*
X-0022500D01*
X-0007254Y0021920D02*
X-0009496D01*
X-0005540Y0023650D02*
X-0007629D01*
X-0006210D02*
Y0022350D01*
X-0003850Y0022550D02*
X-0004701D01*
X-0011430Y0017650D02*
Y0016510D01*
X-0019016Y0019310D02*
X-0022500D01*
X-0013010Y0020010D02*
Y0018990D01*
X-0011990Y0020010D02*
Y0018990D01*
Y0020010D02*
X-0013010D01*
X-0010145Y0009350D02*
X-0014589D01*
X-0014460Y0011540D02*
Y0011035D01*
X-0010490Y0013510D02*
X-0010995D01*
X-0010490Y0012490D02*
X-0011510D01*
X-0009255Y0012740D02*
X-0009561D01*
X-0008910Y0015650D02*
Y0015474D01*
X-0008371Y0015650D02*
X-0009250D01*
X-0015455Y0015710D02*
X-0022500D01*
X-0010490Y0016510D02*
X-0011510D01*
Y0015490D01*
X-0010490D02*
X-0011510D01*
X-0009990Y0006650D02*
Y0002750D01*
X-0022500Y0028250D02*
Y0002750D01*
X0004250D02*
X-0022500D01*
X0004250Y0028250D02*
Y0002750D01*
Y0028250D02*
X-0022500D01*
X0004230D02*
Y0002750D01*
X0004140Y0028250D02*
Y0002750D01*
X0004050Y0028250D02*
Y0002750D01*
X0003960Y0028250D02*
Y0002750D01*
X-0021505Y0003380D02*
X-0022500D01*
X0002631Y0003290D02*
X-0020631D01*
X0004250D02*
X0003368D01*
X0003780Y0003822D02*
Y0002750D01*
X0003690Y0003595D02*
Y0002750D01*
X0003600Y0003471D02*
Y0002750D01*
X0003510Y0003383D02*
Y0002750D01*
X0003420Y0003319D02*
Y0002750D01*
X0003330Y0003271D02*
Y0002750D01*
X0003240Y0003237D02*
Y0002750D01*
X0003150Y0003214D02*
Y0002750D01*
X0003870Y0028250D02*
Y0002750D01*
X0002970Y0003200D02*
Y0002750D01*
X0002880Y0003209D02*
Y0002750D01*
X0002790Y0003228D02*
Y0002750D01*
X0002700Y0003258D02*
Y0002750D01*
X0002610Y0003301D02*
Y0002750D01*
X0002520Y0003360D02*
Y0002750D01*
X0002250Y0003721D02*
Y0002750D01*
X0002160Y0028250D02*
Y0002750D01*
X0002070Y0028250D02*
Y0002750D01*
X0001980Y0028250D02*
Y0002750D01*
X0001890Y0028250D02*
Y0002750D01*
X0001800Y0028250D02*
Y0002750D01*
X0001710Y0028250D02*
Y0002750D01*
X0000440Y0022550D02*
X-0001701D01*
X0000717Y0016460D02*
X0000460D01*
X0004250Y0011480D02*
X0001350D01*
X0001620Y0028250D02*
Y0002750D01*
X0001530Y0011896D02*
Y0002750D01*
X0001350Y0010500D02*
Y0002750D01*
X0001260Y0010263D02*
Y0002750D01*
X0000720Y0009543D02*
Y0002750D01*
X0000630Y0009423D02*
Y0002750D01*
X0000540Y0009303D02*
Y0002750D01*
X0000450Y0009213D02*
Y0002750D01*
X0000270Y0009150D02*
Y0002750D01*
X0000180Y0009150D02*
Y0002750D01*
X0000090Y0009150D02*
Y0002750D01*
X0000000Y0009150D02*
Y0002750D01*
X-0000090Y0009150D02*
Y0002750D01*
X-0000180Y0009150D02*
Y0002750D01*
X-0000270Y0009150D02*
Y0002750D01*
X-0000360Y0009150D02*
Y0002750D01*
X-0000450Y0009150D02*
Y0002750D01*
X-0000540Y0009150D02*
Y0002750D01*
X-0000630Y0009150D02*
Y0002750D01*
X-0000720Y0009150D02*
Y0002750D01*
X-0000810Y0009150D02*
Y0002750D01*
X-0000900Y0009150D02*
Y0002750D01*
X-0000990Y0009150D02*
Y0002750D01*
X-0001080Y0009150D02*
Y0002750D01*
X-0001170Y0009150D02*
Y0002750D01*
X-0001350Y0009150D02*
Y0002750D01*
X-0001440Y0009150D02*
Y0002750D01*
X-0001530Y0009150D02*
Y0002750D01*
X-0001620Y0009150D02*
Y0002750D01*
X-0001710Y0009150D02*
Y0002750D01*
X-0001800Y0009150D02*
Y0002750D01*
X-0001890Y0009150D02*
Y0002750D01*
X-0001980Y0009150D02*
Y0002750D01*
X-0002070Y0009150D02*
Y0002750D01*
X0001278Y0010287D02*
X0000532Y0009293D01*
X-0002430Y0009150D02*
Y0002750D01*
X-0002520Y0009150D02*
Y0002750D01*
X-0002610Y0009150D02*
Y0002750D01*
X-0002700Y0009150D02*
Y0002750D01*
X-0002790Y0009150D02*
Y0002750D01*
X-0002880Y0009150D02*
Y0002750D01*
X-0003850Y0023193D02*
Y0010250D01*
Y0021470D02*
X-0004734D01*
X-0002970Y0009150D02*
Y0002750D01*
X-0003060Y0009155D02*
Y0002750D01*
X-0003240Y0009245D02*
Y0002750D01*
X-0003330Y0009364D02*
Y0002750D01*
X-0003420Y0009499D02*
Y0002750D01*
X-0003510Y0009634D02*
Y0002750D01*
X-0003780Y0010039D02*
Y0002750D01*
X-0003960Y0023523D02*
Y0002750D01*
X-0004050Y0023650D02*
Y0002750D01*
X-0004140Y0023650D02*
Y0002750D01*
X-0004230Y0023650D02*
Y0002750D01*
X-0005283Y0023460D02*
X-0005540D01*
X0000440Y0021470D02*
X-0001734D01*
X-0005490Y0016773D02*
Y0016350D01*
X-0014310Y0006650D02*
Y0002750D01*
X-0005400Y0010105D02*
Y0002750D01*
X-0005490Y0010015D02*
Y0002750D01*
X-0005580Y0009925D02*
Y0002750D01*
X-0005670Y0009835D02*
Y0002750D01*
X-0005760Y0009745D02*
Y0002750D01*
X-0005850Y0009655D02*
Y0002750D01*
X-0006030Y0009475D02*
Y0002750D01*
X-0006120Y0009385D02*
Y0002750D01*
X-0006210Y0009295D02*
Y0002750D01*
X-0006300Y0009205D02*
Y0002750D01*
X-0006390Y0009115D02*
Y0002750D01*
X-0006480Y0009025D02*
Y0002750D01*
X-0006570Y0008935D02*
Y0002750D01*
X-0006660Y0008845D02*
Y0002750D01*
X-0006840Y0008665D02*
Y0002750D01*
X-0009090Y0019633D02*
Y0018350D01*
X-0006930Y0008575D02*
Y0002750D01*
X-0010747Y0024997D02*
X-0011235Y0024510D01*
X-0008370Y0015649D02*
Y0015325D01*
X-0005040Y0010461D02*
Y0002750D01*
X-0007290Y0008215D02*
Y0002750D01*
X-0007380Y0008125D02*
Y0002750D01*
X-0007470Y0008035D02*
Y0002750D01*
X-0007560Y0007945D02*
Y0002750D01*
X-0007650Y0007855D02*
Y0002750D01*
X-0007740Y0007765D02*
Y0002750D01*
X-0008440Y0025653D02*
Y0025440D01*
X-0007830Y0007675D02*
Y0002750D01*
X-0008190Y0007315D02*
Y0002750D01*
X-0008280Y0007225D02*
Y0002750D01*
X-0008370Y0007135D02*
Y0002750D01*
X-0008460Y0007045D02*
Y0002750D01*
X-0008910Y0028250D02*
Y0027100D01*
X-0009630Y0012649D02*
Y0012365D01*
X-0009360Y0006650D02*
Y0002750D01*
X-0009450Y0006650D02*
Y0002750D01*
X-0009540Y0006650D02*
Y0002750D01*
X-0009810Y0006650D02*
Y0002750D01*
X-0009900Y0006650D02*
Y0002750D01*
X-0010490Y0012858D02*
Y0012490D01*
X-0010170Y0006650D02*
Y0002750D01*
X-0010260Y0006650D02*
Y0002750D01*
X-0010350Y0006650D02*
Y0002750D01*
X-0010440Y0006650D02*
Y0002750D01*
X-0010530Y0006650D02*
Y0002750D01*
X0004250Y0008780D02*
X-0006725D01*
X-0010710Y0006650D02*
Y0002750D01*
X-0010800Y0006650D02*
Y0002750D01*
X-0010890Y0006650D02*
Y0002750D01*
X-0010371Y0021650D02*
X-0011379D01*
X-0011340Y0006650D02*
Y0002750D01*
X-0011430Y0006650D02*
Y0002750D01*
X-0011250Y0006650D02*
Y0002750D01*
X-0012641Y0018990D02*
X-0013010D01*
X0004250Y0005540D02*
X-0014717D01*
X-0011610Y0006650D02*
Y0002750D01*
X-0011700Y0006650D02*
Y0002750D01*
X-0012060Y0006650D02*
Y0002750D01*
X-0012150Y0006650D02*
Y0002750D01*
X-0014760Y0004516D02*
Y0002750D01*
X-0012330Y0006650D02*
Y0002750D01*
X-0012420Y0006650D02*
Y0002750D01*
X-0012870Y0020650D02*
Y0020010D01*
X-0012690Y0006650D02*
Y0002750D01*
X-0012780Y0006650D02*
Y0002750D01*
X-0012870Y0006650D02*
Y0002750D01*
X-0012960Y0006650D02*
Y0002750D01*
X-0013440Y0025653D02*
Y0025440D01*
X-0013140Y0006650D02*
Y0002750D01*
X-0013230Y0006650D02*
Y0002750D01*
X-0013320Y0006650D02*
Y0002750D01*
X-0013410Y0006650D02*
Y0002750D01*
X-0013500Y0006650D02*
Y0002750D01*
X-0013590Y0006650D02*
Y0002750D01*
X-0013680Y0006650D02*
Y0002750D01*
X-0013770Y0006650D02*
Y0002750D01*
X-0013860Y0006650D02*
Y0002750D01*
X-0013950Y0006650D02*
Y0002750D01*
X-0015283Y0019460D02*
X-0015540D01*
X-0014598Y0020540D02*
X-0015540D01*
X-0014400Y0014650D02*
Y0011095D01*
X-0015283Y0010460D02*
X-0015540D01*
X0000450Y0022650D02*
Y0022560D01*
X-0015480Y0004752D02*
Y0002750D01*
X-0015570Y0017650D02*
Y0002750D01*
X-0021600Y0003471D02*
Y0002750D01*
X-0015840Y0017650D02*
Y0002750D01*
X-0015930Y0017650D02*
Y0002750D01*
X-0015371Y0022350D02*
X-0016379D01*
X-0016020Y0017650D02*
Y0002750D01*
X-0016110Y0017650D02*
Y0002750D01*
X-0021690Y0003595D02*
Y0002750D01*
X-0016290Y0017650D02*
Y0002750D01*
X-0016380Y0017650D02*
Y0002750D01*
X-0017045Y0018050D02*
X-0019184D01*
X-0016470Y0017650D02*
Y0002750D01*
X-0016560Y0017655D02*
Y0002750D01*
X-0016740Y0017745D02*
Y0002750D01*
X-0016830Y0017835D02*
Y0002750D01*
X-0016920Y0017925D02*
Y0002750D01*
X-0017100Y0018105D02*
Y0002750D01*
X-0017280Y0018150D02*
Y0002750D01*
X-0017370Y0018150D02*
Y0002750D01*
X-0017460Y0018150D02*
Y0002750D01*
X-0017550Y0018150D02*
Y0002750D01*
X-0017640Y0018150D02*
Y0002750D01*
X-0017730Y0018150D02*
Y0002750D01*
X-0019916Y0018140D02*
X-0022500D01*
X-0017190Y0018150D02*
Y0002750D01*
X-0018000Y0016950D02*
Y0002750D01*
X-0018090Y0016950D02*
Y0002750D01*
X-0018180Y0016950D02*
Y0002750D01*
X-0018270Y0016950D02*
Y0002750D01*
X-0019449Y0025700D02*
X-0022500D01*
X-0018360Y0016950D02*
Y0002750D01*
X-0018450Y0016950D02*
Y0002750D01*
X-0018540Y0016950D02*
Y0002750D01*
X-0018630Y0016950D02*
Y0002750D01*
X-0018720Y0016950D02*
Y0002750D01*
X-0018810Y0016950D02*
Y0002750D01*
X-0018973Y0019220D02*
X-0022500D01*
X-0018990Y0016950D02*
Y0002750D01*
X-0019080Y0018145D02*
Y0002750D01*
X-0019170Y0018060D02*
Y0002750D01*
X-0019260Y0018005D02*
Y0002750D01*
X-0019350Y0017971D02*
Y0002750D01*
X-0019440Y0017953D02*
Y0002750D01*
X-0019620Y0017963D02*
Y0002750D01*
X-0019710Y0017992D02*
Y0002750D01*
X-0019800Y0018039D02*
Y0002750D01*
X-0016830Y0028250D02*
Y0026350D01*
X-0019890Y0018112D02*
Y0002750D01*
X-0020070Y0021495D02*
Y0002750D01*
X0002340Y0003548D02*
Y0002750D01*
X-0015750Y0017650D02*
Y0002750D01*
X0002750Y0026240D02*
X-0005494D01*
X-0020340Y0003548D02*
Y0002750D01*
X-0020430Y0003438D02*
Y0002750D01*
X-0020520Y0003360D02*
Y0002750D01*
X-0020610Y0003301D02*
Y0002750D01*
X-0020700Y0003258D02*
Y0002750D01*
X-0020790Y0003228D02*
Y0002750D01*
X-0020880Y0003209D02*
Y0002750D01*
X-0020970Y0003200D02*
Y0002750D01*
X-0021060Y0003202D02*
Y0002750D01*
X-0021150Y0003214D02*
Y0002750D01*
X-0021240Y0003237D02*
Y0002750D01*
X-0021330Y0003271D02*
Y0002750D01*
X-0021420Y0003319D02*
Y0002750D01*
X-0021510Y0003383D02*
Y0002750D01*
X-0021794Y0004100D02*
X-0022500D01*
X-0021870Y0028250D02*
Y0002750D01*
X-0021960Y0028250D02*
Y0002750D01*
X-0022050Y0028250D02*
Y0002750D01*
X-0022140Y0028250D02*
Y0002750D01*
X-0022230Y0028250D02*
Y0002750D01*
X-0022320Y0028250D02*
Y0002750D01*
X-0010198Y0015530D02*
X-0010490D01*
X-0017190Y0028250D02*
Y0026350D01*
X0004250Y0028220D02*
X-0022500D01*
X0004250Y0028130D02*
X-0022500D01*
X0004250Y0028040D02*
X-0022500D01*
X0004250Y0027950D02*
X-0022500D01*
X-0021437Y0026330D02*
X-0022500D01*
X-0021250Y0026240D02*
X-0022500D01*
X-0021217Y0027770D02*
X-0022500D01*
X-0021421Y0027680D02*
X-0022500D01*
X-0021540Y0027590D02*
X-0022500D01*
X-0020160Y0028250D02*
Y0022484D01*
X-0019530Y0028250D02*
Y0026103D01*
X-0019540Y0025160D02*
X-0022500D01*
X0004250Y0027860D02*
X-0022500D01*
X-0021787Y0027140D02*
X-0022500D01*
X-0021798Y0027050D02*
X-0022500D01*
X-0021799Y0026960D02*
X-0022500D01*
X-0021789Y0026870D02*
X-0022500D01*
X-0021769Y0026780D02*
X-0022500D01*
X-0019283Y0025540D02*
X-0019540D01*
X-0020340Y0026548D02*
Y0022380D01*
Y0028250D02*
Y0027452D01*
X-0021632Y0026510D02*
X-0022500D01*
X-0021551Y0026420D02*
X-0022500D01*
X-0018540Y0028250D02*
Y0026350D01*
X-0020430Y0028250D02*
Y0027561D01*
X-0016200Y0028250D02*
Y0026350D01*
X-0019539Y0025970D02*
X-0022500D01*
X-0019526Y0025880D02*
X-0022500D01*
X-0019497Y0025790D02*
X-0022500D01*
X-0021733Y0027320D02*
X-0022500D01*
X-0017010Y0028250D02*
Y0026350D01*
X-0019540Y0025520D02*
X-0022500D01*
X-0019540Y0025430D02*
X-0022500D01*
X-0019540Y0025340D02*
X-0022500D01*
X-0019540Y0025250D02*
X-0022500D01*
X-0017100Y0028250D02*
Y0026350D01*
X-0019373Y0025610D02*
X-0022500D01*
X-0019540Y0024980D02*
X-0022500D01*
X-0019540Y0024890D02*
X-0022500D01*
X-0019540Y0024800D02*
X-0022500D01*
X-0019540Y0024710D02*
X-0022500D01*
X-0010170Y0024400D02*
Y0022481D01*
X-0011790Y0006650D02*
Y0002750D01*
X-0019540Y0024530D02*
X-0022500D01*
X-0011508Y0024440D02*
X-0022500D01*
X-0011621Y0024350D02*
X-0022500D01*
X-0011689Y0024260D02*
X-0022500D01*
X-0011731Y0024170D02*
X-0022500D01*
X-0011754Y0024080D02*
X-0022500D01*
X-0011760Y0023990D02*
X-0022500D01*
X-0011750Y0023900D02*
X-0022500D01*
X-0008730Y0006775D02*
Y0002750D01*
X-0011470Y0023540D02*
X-0022500D01*
X-0005298Y0023450D02*
X-0022500D01*
X-0005402Y0023360D02*
X-0022500D01*
X-0005467Y0023270D02*
X-0022500D01*
X-0005509Y0023180D02*
X-0022500D01*
X-0005532Y0023090D02*
X-0022500D01*
X-0005540Y0023000D02*
X-0022500D01*
X-0005532Y0022910D02*
X-0022500D01*
X-0005509Y0022820D02*
X-0022500D01*
X-0005467Y0022730D02*
X-0022500D01*
X-0005411Y0021650D02*
X-0006379D01*
X-0014040Y0014650D02*
Y0011455D01*
X-0017008Y0021560D02*
X-0019742D01*
X-0016560Y0028250D02*
Y0026350D01*
X-0020220Y0022460D02*
X-0022500D01*
X-0016650Y0028250D02*
Y0026350D01*
X-0004410Y0023650D02*
Y0002750D01*
X-0012254Y0021920D02*
X-0014496D01*
X-0014560Y0025650D02*
Y0025440D01*
X-0019530Y0021802D02*
Y0019049D01*
X-0019980Y0028250D02*
Y0022509D01*
X-0020258Y0021560D02*
X-0022500D01*
X-0005266Y0021470D02*
X-0022500D01*
X-0014130Y0010375D02*
Y0009350D01*
X-0005383Y0021380D02*
X-0022500D01*
X-0013946Y0021290D02*
X-0022500D01*
X-0014045Y0021200D02*
X-0022500D01*
X-0014135Y0021110D02*
X-0022500D01*
X-0014225Y0021020D02*
X-0022500D01*
X-0014315Y0020930D02*
X-0022500D01*
X-0014220Y0010285D02*
Y0009350D01*
X-0014593Y0020570D02*
X-0022500D01*
X-0015540Y0020480D02*
X-0022500D01*
X-0015540Y0020390D02*
X-0022500D01*
X-0015540Y0020300D02*
X-0022500D01*
X-0012510Y0006650D02*
Y0002750D01*
X-0018990Y0018150D02*
Y0018050D01*
X-0019916Y0018860D02*
X-0022500D01*
X-0018647Y0020030D02*
X-0022500D01*
X-0018830Y0019940D02*
X-0022500D01*
X-0018924Y0019850D02*
X-0022500D01*
X-0018984Y0019760D02*
X-0022500D01*
X-0019044Y0019580D02*
X-0022500D01*
X-0019050Y0019490D02*
X-0022500D01*
X-0019041Y0019400D02*
X-0022500D01*
X-0012600Y0006650D02*
Y0002750D01*
X-0017000Y0018850D02*
X-0019076D01*
X-0019604Y0017960D02*
X-0022500D01*
X-0019604Y0019040D02*
X-0022500D01*
X-0019816Y0018950D02*
X-0022500D01*
X-0019023Y0019670D02*
X-0022500D01*
X-0019050Y0017510D02*
X-0022500D01*
X-0020020Y0018680D02*
X-0022500D01*
X-0018907Y0019130D02*
X-0022500D01*
X-0020050Y0018500D02*
X-0022500D01*
X-0020042Y0018410D02*
X-0022500D01*
X-0011070Y0020650D02*
Y0018350D01*
X-0019979Y0018230D02*
X-0022500D01*
X-0018900Y0016950D02*
Y0002750D01*
X-0018810Y0018150D02*
Y0018050D01*
X-0019979Y0018770D02*
X-0022500D01*
X-0019050Y0017870D02*
X-0022500D01*
X-0004860Y0010478D02*
Y0002750D01*
X-0019050Y0017600D02*
X-0022500D01*
X-0019816Y0018050D02*
X-0022500D01*
X-0019050Y0017420D02*
X-0022500D01*
X-0019050Y0017330D02*
X-0022500D01*
X-0019050Y0017240D02*
X-0022500D01*
X-0019050Y0017150D02*
X-0022500D01*
X-0019050Y0016970D02*
X-0022500D01*
X-0015526Y0016880D02*
X-0022500D01*
X-0015497Y0016790D02*
X-0022500D01*
X-0010490Y0015858D02*
Y0015490D01*
X-0015247Y0016520D02*
X-0022500D01*
X-0015326Y0016430D02*
X-0022500D01*
X-0015419Y0016340D02*
X-0022500D01*
X-0015478Y0016250D02*
X-0022500D01*
X-0015516Y0016160D02*
X-0022500D01*
X-0015535Y0016070D02*
X-0022500D01*
X-0015539Y0015980D02*
X-0022500D01*
X-0015529Y0015890D02*
X-0022500D01*
X-0015501Y0015800D02*
X-0022500D01*
X-0009090Y0006650D02*
Y0002750D01*
X0004250Y0007520D02*
X-0007985D01*
X-0015313Y0015440D02*
X-0022500D01*
X-0015411Y0015350D02*
X-0022500D01*
X-0015473Y0015260D02*
X-0022500D01*
X-0015512Y0015170D02*
X-0022500D01*
X-0015534Y0015080D02*
X-0022500D01*
X-0015540Y0014990D02*
X-0022500D01*
X-0015530Y0014900D02*
X-0022500D01*
X-0015505Y0014810D02*
X-0022500D01*
X-0008010Y0007495D02*
Y0002750D01*
X-0015283Y0014540D02*
X-0022500D01*
X-0015298Y0014450D02*
X-0022500D01*
X-0015402Y0014360D02*
X-0022500D01*
X-0015467Y0014270D02*
X-0022500D01*
X-0015509Y0014180D02*
X-0022500D01*
X-0015532Y0014090D02*
X-0022500D01*
X-0015540Y0014000D02*
X-0022500D01*
X-0015532Y0013910D02*
X-0022500D01*
X-0015509Y0013820D02*
X-0022500D01*
X-0011070Y0006650D02*
Y0002750D01*
X0004250Y0006530D02*
X-0014734D01*
X-0015298Y0013550D02*
X-0022500D01*
X-0015283Y0013460D02*
X-0022500D01*
X-0015393Y0013370D02*
X-0022500D01*
X-0015462Y0013280D02*
X-0022500D01*
X-0015505Y0013190D02*
X-0022500D01*
X-0015530Y0013100D02*
X-0022500D01*
X-0015540Y0013010D02*
X-0022500D01*
X-0015534Y0012920D02*
X-0022500D01*
X-0015512Y0012830D02*
X-0022500D01*
X-0009345Y0012650D02*
X-0009629D01*
X-0015411D02*
X-0022500D01*
X-0015313Y0012560D02*
X-0022500D01*
X-0015266Y0012470D02*
X-0022500D01*
X-0015383Y0012380D02*
X-0022500D01*
X-0015455Y0012290D02*
X-0022500D01*
X-0015501Y0012200D02*
X-0022500D01*
X-0015529Y0012110D02*
X-0022500D01*
X-0015539Y0012020D02*
X-0022500D01*
X-0015535Y0011930D02*
X-0022500D01*
X-0015516Y0011840D02*
X-0022500D01*
X-0015478Y0011750D02*
X-0022500D01*
X-0015419Y0011660D02*
X-0022500D01*
X-0015326Y0011570D02*
X-0022500D01*
X-0015540Y0011480D02*
X-0022500D01*
X-0015540Y0011390D02*
X-0022500D01*
X-0015540Y0011300D02*
X-0022500D01*
X-0015540Y0011210D02*
X-0022500D01*
X-0015540Y0011120D02*
X-0022500D01*
X-0015540Y0011030D02*
X-0022500D01*
X-0015540Y0010940D02*
X-0022500D01*
X-0015540Y0010850D02*
X-0022500D01*
X-0015540Y0010760D02*
X-0022500D01*
X-0014940Y0004463D02*
Y0002750D01*
X-0015540Y0010490D02*
X-0022500D01*
X-0015363Y0010400D02*
X-0022500D01*
X-0015442Y0010310D02*
X-0022500D01*
X-0015493Y0010220D02*
X-0022500D01*
X-0015524Y0010130D02*
X-0022500D01*
X-0015538Y0010040D02*
X-0022500D01*
X-0015538Y0009950D02*
X-0022500D01*
X-0015521Y0009860D02*
X-0022500D01*
X-0015488Y0009770D02*
X-0022500D01*
X-0015435Y0009680D02*
X-0022500D01*
X-0015351Y0009590D02*
X-0022500D01*
X-0015204Y0009500D02*
X-0022500D01*
X-0015351Y0009410D02*
X-0022500D01*
X-0015435Y0009320D02*
X-0022500D01*
X-0019980Y0018231D02*
Y0002750D01*
X-0015538Y0009050D02*
X-0022500D01*
X-0015538Y0008960D02*
X-0022500D01*
X-0015524Y0008870D02*
X-0022500D01*
X-0015493Y0008780D02*
X-0022500D01*
X-0015442Y0008690D02*
X-0022500D01*
X-0015210Y0004502D02*
Y0002750D01*
X-0015227Y0008510D02*
X-0022500D01*
X-0015339Y0008420D02*
X-0022500D01*
X-0015427Y0008330D02*
X-0022500D01*
X-0015484Y0008240D02*
X-0022500D01*
X-0015519Y0008150D02*
X-0022500D01*
X-0015536Y0008060D02*
X-0022500D01*
X-0015539Y0007970D02*
X-0022500D01*
X-0015526Y0007880D02*
X-0022500D01*
X-0015497Y0007790D02*
X-0022500D01*
X-0015449Y0007700D02*
X-0022500D01*
X-0014400Y0006650D02*
Y0002750D01*
X-0015247Y0007520D02*
X-0022500D01*
X-0015326Y0007430D02*
X-0022500D01*
X-0015419Y0007340D02*
X-0022500D01*
X-0015478Y0007250D02*
X-0022500D01*
X-0015516Y0007160D02*
X-0022500D01*
X-0015535Y0007070D02*
X-0022500D01*
X-0015539Y0006980D02*
X-0022500D01*
X-0015529Y0006890D02*
X-0022500D01*
X-0015501Y0006800D02*
X-0022500D01*
X-0015455Y0006710D02*
X-0022500D01*
X-0015390Y0004626D02*
Y0002750D01*
X-0015266Y0006530D02*
X-0022500D01*
X-0015313Y0006440D02*
X-0022500D01*
X-0015411Y0006350D02*
X-0022500D01*
X-0015473Y0006260D02*
X-0022500D01*
X-0015512Y0006170D02*
X-0022500D01*
X-0015534Y0006080D02*
X-0022500D01*
X-0015540Y0005990D02*
X-0022500D01*
X-0015530Y0005900D02*
X-0022500D01*
X-0015505Y0005810D02*
X-0022500D01*
X-0015462Y0005720D02*
X-0022500D01*
X0000460Y0016610D02*
X-0001626D01*
X-0015283Y0005540D02*
X-0022500D01*
X-0015298Y0005450D02*
X-0022500D01*
X-0015402Y0005360D02*
X-0022500D01*
X-0015467Y0005270D02*
X-0022500D01*
X-0015509Y0005180D02*
X-0022500D01*
X-0015532Y0005090D02*
X-0022500D01*
X-0015540Y0005000D02*
X-0022500D01*
X-0015532Y0004910D02*
X-0022500D01*
X-0020160Y0021516D02*
Y0002750D01*
X-0021780Y0003822D02*
Y0002750D01*
X-0021480Y0004640D02*
X-0022500D01*
X-0021581Y0004550D02*
X-0022500D01*
X-0021654Y0004460D02*
X-0022500D01*
X-0021709Y0004370D02*
X-0022500D01*
X-0021749Y0004280D02*
X-0022500D01*
X-0021777Y0004190D02*
X-0022500D01*
X-0015509Y0004820D02*
X-0022500D01*
X-0021800Y0004010D02*
X-0022500D01*
X-0021796Y0003920D02*
X-0022500D01*
X-0021782Y0003830D02*
X-0022500D01*
X-0021756Y0003740D02*
X-0022500D01*
X-0021719Y0003650D02*
X-0022500D01*
X-0021668Y0003560D02*
X-0022500D01*
X-0021599Y0003470D02*
X-0022500D01*
X-0021368Y0003290D02*
X-0022500D01*
X0004250Y0003200D02*
X-0022500D01*
X0004250Y0003110D02*
X-0022500D01*
X0004250Y0003020D02*
X-0022500D01*
X0004250Y0002930D02*
X-0022500D01*
X-0021766Y0027230D02*
X-0022500D01*
X-0012510Y0020650D02*
Y0020010D01*
X-0012600Y0020650D02*
Y0020010D01*
X-0012690Y0020650D02*
Y0020010D01*
X-0012780Y0020650D02*
Y0020010D01*
X-0015540Y0020210D02*
X-0022500D01*
X-0009249Y0020030D02*
X-0013900D01*
X-0009246Y0019940D02*
X-0011990D01*
X-0009227Y0019850D02*
X-0011990D01*
X-0009188Y0019760D02*
X-0011990D01*
X-0009125Y0019670D02*
X-0011990D01*
X-0005227Y0019490D02*
X-0011990D01*
X-0005363Y0019400D02*
X-0011990D01*
X-0005442Y0019310D02*
X-0011990D01*
X-0005493Y0019220D02*
X-0011990D01*
X-0005524Y0019130D02*
X-0011990D01*
X-0011070Y0014650D02*
Y0014343D01*
X-0009540Y0013650D02*
Y0013220D01*
X-0009630Y0013650D02*
Y0013351D01*
X-0009720Y0013650D02*
Y0013426D01*
X-0009810Y0013650D02*
Y0013473D01*
X-0009900Y0013650D02*
Y0013500D01*
X-0009990Y0013650D02*
Y0013510D01*
X-0010080Y0013650D02*
Y0013504D01*
X-0010170Y0013650D02*
Y0013481D01*
X-0010260Y0013650D02*
Y0013439D01*
X-0010350Y0013650D02*
Y0013371D01*
X-0005130Y0010375D02*
Y0002750D01*
X-0005283Y0013460D02*
X-0009780D01*
X-0005393Y0013370D02*
X-0009649D01*
X-0013410Y0011095D02*
Y0009350D01*
X-0008985Y0013010D02*
X-0009490D01*
X-0009075Y0012920D02*
X-0009496D01*
X-0009165Y0012830D02*
X-0009519D01*
X-0010490Y0013510D02*
Y0013141D01*
X-0010440Y0013650D02*
Y0013258D01*
X-0010530Y0013650D02*
Y0013510D01*
X-0011945Y0013550D02*
X-0014701D01*
X-0009450Y0014650D02*
Y0014350D01*
X-0013410Y0014650D02*
Y0012085D01*
X-0010890Y0013615D02*
Y0013510D01*
X-0010980Y0013525D02*
Y0013510D01*
X-0010890Y0014650D02*
Y0014350D01*
X-0010980Y0014650D02*
Y0014350D01*
X-0009900Y0014650D02*
Y0014350D01*
X-0011250Y0014650D02*
Y0014245D01*
X-0010080Y0006650D02*
Y0002750D01*
X-0010220Y0013460D02*
X-0010490D01*
X-0010351Y0013370D02*
X-0010490D01*
X-0010426Y0013280D02*
X-0010490D01*
X-0010473Y0013190D02*
X-0010490D01*
X-0007920Y0007585D02*
Y0002750D01*
X-0008805Y0013190D02*
X-0009527D01*
X-0008895Y0013100D02*
X-0009500D01*
X-0010481Y0012830D02*
X-0010490D01*
X-0010439Y0012740D02*
X-0010490D01*
X-0010371Y0012650D02*
X-0010490D01*
X-0011223Y0014270D02*
X-0014532D01*
X-0009250Y0015650D02*
X-0009629D01*
X-0008274Y0016430D02*
X-0009726D01*
X-0008640Y0017650D02*
Y0016350D01*
X-0012960Y0020650D02*
Y0020010D01*
X-0009540Y0015650D02*
Y0015350D01*
X-0011700Y0017650D02*
Y0015350D01*
X-0009630Y0017650D02*
Y0016351D01*
X-0011160Y0017650D02*
Y0016510D01*
X-0011250Y0017650D02*
Y0016510D01*
X-0009900Y0017650D02*
Y0016500D01*
X-0009990Y0017650D02*
Y0016510D01*
X-0009180Y0019745D02*
Y0018350D01*
X-0010170Y0017650D02*
Y0016481D01*
X-0010490Y0016510D02*
Y0016141D01*
X-0010274Y0016430D02*
X-0010490D01*
X-0010380Y0016340D02*
X-0010490D01*
X-0010444Y0016250D02*
X-0010490D01*
X-0009450Y0025440D02*
Y0025100D01*
X-0009090Y0017650D02*
Y0016350D01*
X-0008910Y0017650D02*
Y0016350D01*
X-0008730Y0017650D02*
Y0016350D01*
X-0010469Y0015800D02*
X-0010490D01*
X-0010419Y0015710D02*
X-0010490D01*
X-0010340Y0015620D02*
X-0010490D01*
X-0009720Y0017650D02*
Y0016426D01*
X-0009810Y0017650D02*
Y0016473D01*
X-0019050Y0017060D02*
X-0022500D01*
X-0012365Y0017870D02*
X-0013900D01*
X-0010620Y0017650D02*
Y0016510D01*
X-0010710Y0017650D02*
Y0016510D01*
X-0010800Y0017650D02*
Y0016510D01*
X-0010890Y0017650D02*
Y0016510D01*
X-0011070Y0017650D02*
Y0016510D01*
X-0009180Y0017650D02*
Y0016350D01*
X-0013396Y0026396D02*
X-0013000Y0026000D01*
X-0012604Y0025604D02*
X-0013000Y0026000D01*
X-0013396Y0025604D02*
X-0013000Y0026000D01*
X-0012604Y0026396D02*
X-0013000Y0026000D01*
X-0020360Y0022360D02*
X-0020000Y0022000D01*
X-0019639Y0021639D02*
X-0020000Y0022000D01*
X-0020360Y0021639D02*
X-0020000Y0022000D01*
X-0019639Y0022360D02*
X-0020000Y0022000D01*
X-0018889Y0019111D02*
X-0018500Y0019500D01*
X-0018111Y0019889D02*
X-0018500Y0019500D01*
X-0018111Y0019111D02*
X-0018500Y0019500D01*
X-0018889Y0019889D02*
X-0018500Y0019500D01*
X0001382Y0016382D02*
X0001000Y0016000D01*
X0000618Y0015618D02*
X0001000Y0016000D01*
X0000618Y0016382D02*
X0001000Y0016000D01*
X0001382Y0015618D02*
X0001000Y0016000D01*
X-0014618Y0005382D02*
X-0015000Y0005000D01*
X-0015382Y0004618D02*
X-0015000Y0005000D01*
X-0015382Y0005382D02*
X-0015000Y0005000D01*
X-0014618Y0004618D02*
X-0015000Y0005000D01*
X-0010440Y0014650D02*
Y0014350D01*
X-0015540Y0011000D02*
X-0015000D01*
X-0019530Y0017951D02*
Y0002750D01*
X-0015120Y0004473D02*
Y0002750D01*
X-0014618Y0012382D02*
X-0015000Y0012000D01*
X-0015382Y0011618D02*
X-0015000Y0012000D01*
X-0015382Y0012382D02*
X-0015000Y0012000D01*
X-0014618Y0011618D02*
X-0015000Y0012000D01*
X-0014618Y0013382D02*
X-0015000Y0013000D01*
X-0015382Y0012618D02*
X-0015000Y0013000D01*
X-0015382Y0013382D02*
X-0015000Y0013000D01*
X-0014618Y0012618D02*
X-0015000Y0013000D01*
X-0014618Y0014382D02*
X-0015000Y0014000D01*
X-0015382Y0013618D02*
X-0015000Y0014000D01*
X-0015382Y0014382D02*
X-0015000Y0014000D01*
X-0014618Y0013618D02*
X-0015000Y0014000D01*
X-0014618Y0016382D02*
X-0015000Y0016000D01*
X-0015382Y0015618D02*
X-0015000Y0016000D01*
X-0015382Y0016382D02*
X-0015000Y0016000D01*
X-0014618Y0015618D02*
X-0015000Y0016000D01*
X-0013010Y0019490D02*
X-0013900D01*
X-0015540Y0020000D02*
X-0015000D01*
Y0020540D02*
Y0020000D01*
X-0015840Y0021650D02*
Y0018350D01*
X0000440Y0022000D02*
X0001000D01*
X0001560D02*
X0001000D01*
Y0021440D02*
Y0022000D01*
X-0005490Y0028250D02*
Y0026231D01*
X-0009000Y0025440D02*
Y0026000D01*
X-0009560D02*
X-0009000D01*
X-0008402Y0025610D02*
X-0008440D01*
X-0019540Y0025000D02*
X-0019000D01*
X-0018460D02*
X-0019000D01*
Y0024460D02*
Y0025000D01*
X-0019530Y0025896D02*
Y0025540D01*
X-0004618Y0017382D02*
X-0005000Y0017000D01*
X-0005382Y0016618D02*
X-0005000Y0017000D01*
X-0005382Y0017382D02*
X-0005000Y0017000D01*
X-0004618Y0016618D02*
X-0005000Y0017000D01*
X-0011990Y0019500D02*
X-0012500D01*
X-0013010D02*
X-0012500D01*
Y0020010D02*
Y0019500D01*
X-0020020Y0018320D02*
X-0022500D01*
X-0013655Y0011840D02*
X-0014484D01*
X-0011000Y0012490D02*
Y0013000D01*
X-0009850Y0011840D02*
X-0012665D01*
X-0010258Y0012560D02*
X-0010490D01*
X-0011000Y0016510D02*
Y0016000D01*
Y0015490D02*
Y0016000D01*
X-0011510D02*
X-0011000D01*
X0003060Y0003202D02*
Y0002750D01*
X-0010080Y0020650D02*
Y0018350D01*
X-0009990Y0020650D02*
Y0018350D01*
X-0009900Y0020650D02*
Y0018350D01*
X-0012485Y0017990D02*
X-0012249Y0017754D01*
X-0011160Y0020650D02*
Y0018350D01*
X-0011250Y0020650D02*
Y0018350D01*
X-0010080Y0017650D02*
Y0016504D01*
X-0005411Y0018350D02*
X-0011855D01*
X-0003850Y0017690D02*
X-0004558D01*
X-0004770Y0010511D02*
Y0002750D01*
X-0011990Y0018485D02*
X-0011855Y0018350D01*
X-0012275Y0017780D02*
X-0013900D01*
X-0009450Y0028250D02*
Y0027100D01*
X-0011430Y0028250D02*
Y0027050D01*
X-0011340Y0026165D02*
Y0024502D01*
X-0011700Y0025527D02*
Y0024240D01*
X-0011497Y0026997D02*
X-0011938Y0026556D01*
X-0010440Y0020650D02*
Y0018350D01*
X-0011430Y0026075D02*
Y0024477D01*
X-0011340Y0028250D02*
Y0027088D01*
X-0007288Y0025520D02*
X-0007711D01*
X-0006750Y0027100D02*
X-0011250D01*
X-0011520Y0028250D02*
Y0026975D01*
X-0014560Y0025610D02*
X-0018626D01*
X-0004140Y0028250D02*
Y0025850D01*
X-0009000Y0028250D02*
Y0027100D01*
X-0004795Y0025700D02*
X-0005527D01*
X-0010260Y0020650D02*
Y0018350D01*
X-0006930Y0028250D02*
Y0027100D01*
X-0010170Y0020650D02*
Y0018350D01*
X0004250Y0023270D02*
X0001490D01*
X0000810Y0028250D02*
Y0025527D01*
X0001350Y0028250D02*
Y0025437D01*
X-0001350Y0028250D02*
Y0025850D01*
X-0001260Y0028250D02*
Y0025850D01*
X-0000900Y0028250D02*
Y0025850D01*
X0004250Y0025610D02*
X-0000115D01*
X-0012420Y0028250D02*
Y0026370D01*
X-0009900Y0028250D02*
Y0027100D01*
X-0009810Y0028250D02*
Y0027100D01*
X-0004975Y0025520D02*
X-0005711D01*
X-0004320Y0028250D02*
Y0025850D01*
X0004250Y0025700D02*
X-0000205D01*
X-0000500Y0025850D02*
X-0004500D01*
X-0005490Y0025769D02*
Y0025100D01*
X-0011723Y0023810D02*
X-0022500D01*
X-0004747Y0025747D02*
X-0005395Y0025100D01*
X0000270Y0028250D02*
Y0025350D01*
X-0004680Y0028250D02*
Y0025800D01*
X0004250Y0025880D02*
X-0005453D01*
X-0003150Y0028250D02*
Y0025850D01*
X-0008504Y0024080D02*
X-0010675D01*
X-0011601Y0023630D02*
X-0022500D01*
X-0008220Y0023540D02*
X-0011030D01*
X-0008351Y0023630D02*
X-0010899D01*
X-0008426Y0023720D02*
X-0010824D01*
X-0010355Y0024400D02*
X-0010740Y0024015D01*
X-0009900Y0026400D02*
Y0025100D01*
X-0009810Y0026400D02*
Y0025100D01*
X-0010350Y0024400D02*
Y0022371D01*
X-0010620Y0026400D02*
Y0025079D01*
X-0010530Y0026400D02*
Y0025099D01*
X-0020430Y0026438D02*
Y0022274D01*
X-0005411Y0016350D02*
X-0007629D01*
X-0005266Y0015530D02*
X-0007802D01*
X-0009450Y0017650D02*
Y0016350D01*
X-0008371D02*
X-0009250D01*
X-0008550Y0017650D02*
Y0016350D01*
X-0009250D02*
X-0009629D01*
X-0011805Y0026690D02*
X-0020262D01*
X0001350Y0011589D02*
Y0010500D01*
X0004250Y0011750D02*
X0001478D01*
X0004250Y0011840D02*
X0001516D01*
X-0002250Y0009150D02*
Y0002750D01*
X0004250Y0010580D02*
X0001350D01*
X0004250Y0010940D02*
X0001350D01*
X0004250Y0011030D02*
X0001350D01*
X0004250Y0010400D02*
X0001335D01*
X-0003660Y0009860D02*
X-0005645D01*
X0000250Y0009150D02*
X-0003000D01*
X-0003850Y0014720D02*
X-0004538D01*
X-0003223Y0009230D02*
X-0006275D01*
X-0003965Y0023540D02*
X-0004460D01*
X-0003850Y0014540D02*
X-0004717D01*
X0004250Y0009770D02*
X0000890D01*
X-0007020Y0028250D02*
Y0027100D01*
X-0005335Y0025160D02*
X-0018460D01*
X-0004002Y0023650D02*
X-0003850Y0023193D01*
X-0009021Y0019580D02*
X-0011990D01*
X-0005339D02*
X-0008479D01*
X-0004680Y0010565D02*
Y0002750D01*
X-0008370Y0020650D02*
Y0020350D01*
X-0005411Y0017650D02*
X-0012000D01*
X-0003850Y0019760D02*
X-0004516D01*
X-0007920Y0020650D02*
Y0020350D01*
X-0015393Y0014630D02*
X-0022500D01*
X-0009810Y0015527D02*
Y0015350D01*
X-0009900Y0015500D02*
Y0015350D01*
X-0005411Y0013650D02*
X-0010855D01*
X-0009000Y0014567D02*
Y0014350D01*
X-0008946Y0014540D02*
X-0014717D01*
X-0013590Y0014650D02*
Y0011905D01*
X-0001710Y0018544D02*
Y0018455D01*
X0004250Y0010490D02*
X0001350D01*
X0000990Y0009903D02*
Y0002750D01*
X-0011676Y0023720D02*
X-0022500D01*
X-0005540Y0023540D02*
X-0007780D01*
X-0005540Y0023630D02*
X-0007649D01*
X-0019440Y0028250D02*
Y0026313D01*
X-0019350Y0028250D02*
Y0026411D01*
X-0019260Y0028250D02*
Y0026473D01*
X-0014560Y0025520D02*
X-0018460D01*
X-0013402Y0025610D02*
X-0013440D01*
X-0014040Y0025440D02*
Y0021205D01*
X-0001170Y0028250D02*
Y0025850D01*
X0004250Y0024170D02*
X0001533D01*
X-0000252Y0025747D02*
X0000145Y0025350D01*
X-0005411Y0022350D02*
X-0006379D01*
X-0007008Y0021560D02*
X-0009742D01*
X-0005326Y0020570D02*
X-0013685D01*
X-0005313Y0021560D02*
X-0006492D01*
X-0020426Y0022280D02*
X-0022500D01*
X-0003850Y0022100D02*
X-0004469D01*
X-0010800Y0013650D02*
Y0013510D01*
X0004250Y0008510D02*
X-0006995D01*
X-0015467Y0013730D02*
X-0022500D01*
X-0003789Y0010053D02*
X-0003293Y0009309D01*
X-0010710Y0013650D02*
Y0013510D01*
X-0015488Y0009230D02*
X-0022500D01*
X-0009850Y0009645D02*
X-0010145Y0009350D01*
X-0015473Y0012740D02*
X-0022500D01*
X-0010855Y0013650D02*
X-0010995Y0013510D01*
X-0011430Y0014650D02*
Y0014065D01*
X-0010350Y0014650D02*
Y0014350D01*
X-0011700Y0012805D02*
Y0009350D01*
X-0017254Y0021920D02*
X-0019496D01*
X-0017189Y0021740D02*
X-0019561D01*
X-0012260Y0022010D02*
X-0014490D01*
X-0015390Y0021650D02*
Y0020540D01*
X-0020500Y0022100D02*
X-0022500D01*
X-0011340Y0017650D02*
Y0016510D01*
X0004250Y0023900D02*
X0001551D01*
X0001440Y0023653D02*
Y0023346D01*
X-0015570Y0025650D02*
Y0022350D01*
X-0010350Y0017650D02*
Y0016371D01*
X-0015411Y0017650D02*
X-0016500D01*
X-0015411Y0018350D02*
X-0016355D01*
X-0018900Y0019122D02*
Y0018850D01*
X-0018810Y0019046D02*
Y0018850D01*
X-0018720Y0018996D02*
Y0018850D01*
X-0017145Y0018150D02*
X-0016749Y0017754D01*
X-0015660Y0021650D02*
Y0018350D01*
X-0015570Y0021650D02*
Y0018350D01*
X-0020439Y0021740D02*
X-0022500D01*
X-0019050Y0017960D02*
X-0019395D01*
X-0011340Y0023498D02*
Y0022350D01*
X-0015351Y0018590D02*
X-0016595D01*
X-0016920Y0021519D02*
Y0018841D01*
X-0001710Y0017544D02*
Y0017455D01*
X0004250Y0014720D02*
X0001462D01*
X0000900Y0009783D02*
Y0002750D01*
X-0013010Y0018500D02*
X-0013900D01*
X-0005247Y0016520D02*
X-0014752D01*
X-0005373Y0016610D02*
X-0014626D01*
X-0005449Y0016700D02*
X-0014551D01*
X-0005497Y0016790D02*
X-0014502D01*
X-0013002Y0018590D02*
X-0013900D01*
X-0015540Y0020120D02*
X-0022500D01*
X-0015373Y0016610D02*
X-0022500D01*
X-0009063Y0020390D02*
X-0013865D01*
X-0010260Y0017650D02*
Y0016439D01*
X-0010350Y0021629D02*
Y0021350D01*
X-0010260Y0021561D02*
Y0021350D01*
X-0013605Y0020650D02*
X-0013900Y0020355D01*
X-0019050Y0017690D02*
X-0022500D01*
X-0010170Y0021519D02*
Y0021350D01*
X-0003850Y0020660D02*
X-0004580D01*
X-0005411Y0019650D02*
X-0008393D01*
X-0004500Y0010796D02*
Y0002750D01*
X-0013900Y0020355D02*
Y0017750D01*
X-0005411Y0021350D02*
X-0013750D01*
X-0011160Y0006650D02*
Y0002750D01*
X-0015540Y0010670D02*
X-0022500D01*
X-0003850D02*
X-0004572D01*
X-0003850Y0013550D02*
X-0004701D01*
X-0015383Y0006620D02*
X-0022500D01*
X0004250D02*
X-0014616D01*
X-0012240Y0006650D02*
Y0002750D01*
X-0009000Y0006650D02*
X-0014589D01*
X-0005310Y0010195D02*
Y0002750D01*
X-0003850Y0010850D02*
X-0004481D01*
X-0003850Y0011750D02*
X-0004521D01*
X-0009180Y0013650D02*
Y0012815D01*
X-0011880Y0006650D02*
Y0002750D01*
X-0015373Y0007610D02*
X-0022500D01*
X-0010371Y0022350D02*
X-0011379D01*
X-0012240Y0020650D02*
Y0020010D01*
X-0011250Y0023490D02*
Y0022350D01*
X-0016740Y0028250D02*
Y0026350D01*
X-0007260Y0022010D02*
X-0009490D01*
X-0005220Y0010285D02*
Y0002750D01*
X-0008820Y0013650D02*
Y0013175D01*
X-0003850Y0012740D02*
X-0004527D01*
X-0009000Y0013650D02*
Y0012995D01*
X-0007380Y0013650D02*
Y0013350D01*
X-0007290Y0013650D02*
Y0013350D01*
X-0008710Y0013280D02*
X-0009574D01*
X-0009905Y0009590D02*
X-0014648D01*
X-0009270Y0013650D02*
Y0012725D01*
X-0009850Y0009680D02*
X-0014565D01*
X-0009630Y0006650D02*
Y0002750D01*
X-0008747Y0013247D02*
X-0009745Y0012249D01*
X-0009540Y0012780D02*
Y0012455D01*
X-0013385Y0012110D02*
X-0014471D01*
X-0013295Y0012200D02*
X-0014498D01*
X-0014580Y0009660D02*
Y0009350D01*
X-0015363Y0008600D02*
X-0022500D01*
X-0010085Y0009410D02*
X-0014648D01*
X-0005383Y0015620D02*
X-0007660D01*
X-0006660Y0017650D02*
Y0016350D01*
X-0008340Y0015620D02*
X-0009660D01*
X-0008198Y0015530D02*
X-0009802D01*
X-0003850Y0015800D02*
X-0004498D01*
X-0015462Y0014720D02*
X-0022500D01*
X-0005490Y0013650D02*
Y0013350D01*
X-0003850Y0012470D02*
X-0004734D01*
X-0003850Y0014810D02*
X-0004494D01*
X-0007560Y0015650D02*
Y0015350D01*
X-0006480Y0015650D02*
Y0015350D01*
X-0006390Y0015650D02*
Y0015350D01*
X0004250Y0012920D02*
X0001534D01*
X0000810Y0009663D02*
Y0002750D01*
X-0011105Y0026400D02*
X-0011443Y0026061D01*
X-0014130Y0006650D02*
Y0002750D01*
X-0007290Y0017650D02*
Y0016350D01*
X-0006480Y0017650D02*
Y0016350D01*
X-0008730Y0015650D02*
Y0015499D01*
X-0006930Y0015650D02*
Y0015350D01*
X-0006750Y0015650D02*
Y0015350D01*
X-0013288Y0025520D02*
X-0013440D01*
X-0009560Y0026400D02*
X-0011105D01*
X-0009560Y0025790D02*
X-0011481D01*
X-0011250Y0026255D02*
Y0024510D01*
X-0013440Y0026560D02*
X-0014560D01*
X-0015660Y0025650D02*
Y0022350D01*
X-0013440Y0025440D02*
X-0014560D01*
X-0016290Y0021650D02*
Y0018350D01*
X-0017910Y0025650D02*
Y0018850D01*
X-0011215Y0024530D02*
X-0018460D01*
X-0015480Y0021650D02*
Y0020540D01*
X-0015390Y0025650D02*
Y0022350D01*
X-0006030Y0025441D02*
Y0025100D01*
X-0007560Y0023650D02*
Y0021350D01*
X-0015435Y0018680D02*
X-0016685D01*
X-0019050Y0018050D02*
Y0016950D01*
X-0017950D02*
X-0019050D01*
X-0017950Y0018050D02*
Y0016950D01*
Y0018050D02*
X-0019050D01*
X-0010080Y0026400D02*
Y0025100D01*
X-0006030Y0023650D02*
Y0022350D01*
X0004250Y0011120D02*
X0001350D01*
X0004250Y0009230D02*
X0000473D01*
X-0001440Y0022650D02*
Y0015350D01*
X-0001350Y0022650D02*
Y0015350D01*
X0001080Y0010023D02*
Y0002750D01*
X0000460Y0016790D02*
X-0001502D01*
X0000460Y0017540D02*
Y0016460D01*
X0000616Y0015620D02*
X-0001616D01*
X0001540Y0017540D02*
Y0016460D01*
Y0017540D02*
X0000460D01*
X0004250Y0004820D02*
X-0014491D01*
X-0014580Y0004660D02*
Y0002750D01*
X-0015393Y0005630D02*
X-0022500D01*
X-0014490Y0004822D02*
Y0002750D01*
X-0010980Y0006650D02*
Y0002750D01*
X-0021327Y0004730D02*
X-0022500D01*
X-0015030Y0004461D02*
Y0002750D01*
X-0009995Y0009500D02*
X-0014796D01*
X-0011510Y0012995D02*
X-0014462Y0010043D01*
X-0014400Y0010105D02*
Y0009350D01*
X-0015540Y0011540D02*
Y0010460D01*
X-0009850Y0009950D02*
X-0014462D01*
X-0013050Y0006650D02*
Y0002750D01*
X-0015283Y0011540D02*
X-0015540D01*
X-0015402Y0013640D02*
X-0022500D01*
X-0009107Y0014650D02*
X-0014589D01*
X-0014002Y0017502D02*
X-0014462Y0017043D01*
X-0015383Y0015620D02*
X-0022500D01*
X-0015480Y0018752D02*
Y0018350D01*
X-0005227Y0017510D02*
X-0013995D01*
X-0013010Y0019400D02*
X-0013900D01*
X-0013997Y0021247D02*
X-0014495Y0020749D01*
X-0015540Y0020540D02*
Y0019460D01*
X-0005411Y0020650D02*
X-0013605D01*
X-0000180Y0028250D02*
Y0025675D01*
X-0016470Y0028250D02*
Y0026350D01*
X0000440Y0021920D02*
X-0001466D01*
X0000440Y0022560D02*
Y0021440D01*
X0001560D02*
X0000440D01*
X0001560Y0022560D02*
Y0021440D01*
X-0006502Y0026997D02*
X-0006061Y0026556D01*
X-0015300Y0019460D02*
Y0019449D01*
X-0015390Y0019460D02*
Y0019373D01*
X-0015480Y0019460D02*
Y0019247D01*
X-0013010Y0019310D02*
X-0013900D01*
X-0013010Y0019220D02*
X-0013900D01*
X-0013010Y0019130D02*
X-0013900D01*
X-0013010Y0019040D02*
X-0013900D01*
X-0012740Y0018950D02*
X-0013900D01*
X-0012861Y0018860D02*
X-0013900D01*
X-0012932Y0018770D02*
X-0013900D01*
X-0012977Y0018680D02*
X-0013900D01*
X-0014040Y0006650D02*
Y0002750D01*
X-0020042Y0018590D02*
X-0022500D01*
X-0014490Y0025440D02*
Y0020755D01*
X-0014670Y0021611D02*
Y0020540D01*
X-0014760Y0021550D02*
Y0020540D01*
X-0014850Y0021512D02*
Y0020540D01*
X-0014940Y0021493D02*
Y0020540D01*
X-0015030Y0021491D02*
Y0020540D01*
X-0015120Y0021504D02*
Y0020540D01*
X-0015210Y0021535D02*
Y0020540D01*
X-0015300Y0021587D02*
Y0020540D01*
X-0015750Y0021650D02*
Y0018350D01*
X-0005363Y0017600D02*
X-0013934D01*
X-0008890Y0020480D02*
X-0013775D01*
X-0014580Y0021711D02*
Y0020616D01*
X-0009150Y0020300D02*
X-0013900D01*
X-0009204Y0020210D02*
X-0013900D01*
X-0009235Y0020120D02*
X-0013900D01*
X-0013010Y0019940D02*
X-0013900D01*
X-0013010Y0019850D02*
X-0013900D01*
X-0013010Y0019760D02*
X-0013900D01*
X-0013010Y0019670D02*
X-0013900D01*
X-0013010Y0019580D02*
X-0013900D01*
X0004250Y0026240D02*
X0003250D01*
X0004250Y0025520D02*
X0001208D01*
X0004250Y0025430D02*
X0001359D01*
X0004250Y0025340D02*
X0001445D01*
X0004250Y0025250D02*
X0001501D01*
X0004250Y0025160D02*
X0001536D01*
X0004250Y0025070D02*
X0001555D01*
X0004250Y0024980D02*
X0001559D01*
X0004250Y0024890D02*
X0001549D01*
X0004250Y0024800D02*
X0001523D01*
X0004250Y0024710D02*
X0001479D01*
X0004250Y0024620D02*
X0001411D01*
X0001530Y0028250D02*
Y0025181D01*
X0001440Y0028250D02*
Y0025346D01*
X0004250Y0022820D02*
X0001530D01*
X-0011970Y0028250D02*
Y0026559D01*
X-0011035Y0024710D02*
X-0018460D01*
X0001530Y0024819D02*
Y0024181D01*
X0001440Y0024653D02*
Y0024346D01*
X0001350Y0024563D02*
Y0024437D01*
X0000900Y0028250D02*
Y0025551D01*
X0004250Y0024530D02*
X0001304D01*
X0004250Y0024440D02*
X0001346D01*
X-0002340Y0028250D02*
Y0025850D01*
X0004250Y0024260D02*
X0001496D01*
X0004250Y0023000D02*
X0001560D01*
X0000540Y0028250D02*
Y0025350D01*
X0004250Y0023810D02*
X0001527D01*
X0004250Y0023720D02*
X0001485D01*
X0000000Y0028250D02*
Y0025495D01*
X0001530Y0023819D02*
Y0023181D01*
X0004250Y0022550D02*
X0001560D01*
X0004250Y0023450D02*
X0001333D01*
X0004250Y0023990D02*
X0001560D01*
X0004250Y0023180D02*
X0001530D01*
X0004250Y0022910D02*
X0001553D01*
X0001560Y0022560D02*
X0001346D01*
X0004250Y0023630D02*
X0001420D01*
X0000450Y0028250D02*
Y0025350D01*
X0004250Y0024080D02*
X0001554D01*
X0004250Y0022460D02*
X0001560D01*
X0004250Y0022370D02*
X0001560D01*
X0004250Y0022280D02*
X0001560D01*
X0004250Y0022190D02*
X0001560D01*
X0004250Y0022100D02*
X0001560D01*
X0004250Y0022010D02*
X0001560D01*
X-0001080Y0028250D02*
Y0025850D01*
X0001530Y0022819D02*
Y0022560D01*
X0001440Y0022653D02*
Y0022560D01*
X0000563Y0022650D02*
X-0001589D01*
X0001350Y0023563D02*
Y0023437D01*
X0001260Y0023504D02*
Y0023496D01*
Y0024504D02*
Y0024496D01*
Y0028250D02*
Y0025496D01*
X0001170Y0028250D02*
Y0025533D01*
X0001080Y0028250D02*
Y0025554D01*
X0000630Y0022579D02*
Y0022560D01*
X0004250Y0022640D02*
X0001429D01*
X0004250Y0017150D02*
X0001540D01*
X0004250Y0021830D02*
X0001560D01*
X0004250Y0021740D02*
X0001560D01*
X0004250Y0021650D02*
X0001560D01*
X0004250Y0019580D02*
X-0001660D01*
X-0005400Y0028250D02*
Y0025100D01*
X-0005580Y0028250D02*
Y0026370D01*
X-0005670Y0028250D02*
Y0026452D01*
X-0005760Y0028250D02*
Y0026506D01*
X-0005850Y0028250D02*
Y0026539D01*
X-0005940Y0028250D02*
Y0026557D01*
X-0011715Y0026780D02*
X-0020231D01*
X-0006030Y0028250D02*
Y0026559D01*
X-0006120Y0028250D02*
Y0026615D01*
X-0006210Y0028250D02*
Y0026705D01*
X-0011625Y0026870D02*
X-0020210D01*
X0002367Y0026510D02*
X-0005769D01*
X0002449Y0026420D02*
X-0005629D01*
X-0005940Y0009565D02*
Y0002750D01*
X0002307Y0026600D02*
X-0006105D01*
X0002201Y0027050D02*
X-0006570D01*
X-0006480Y0028250D02*
Y0026975D01*
X-0006570Y0028250D02*
Y0027050D01*
X-0006660Y0028250D02*
Y0027088D01*
X-0007110Y0028250D02*
Y0027100D01*
X-0007200Y0028250D02*
Y0027100D01*
X-0006300Y0028250D02*
Y0026795D01*
X-0006390Y0028250D02*
Y0026885D01*
X-0010350Y0020650D02*
Y0018350D01*
X-0005220Y0028250D02*
Y0025275D01*
X-0006473Y0025700D02*
X-0006527D01*
X-0006402Y0025610D02*
X-0006598D01*
X-0006750Y0028250D02*
Y0027100D01*
X-0007560Y0028250D02*
Y0027100D01*
X-0007650Y0028250D02*
Y0027100D01*
X-0007740Y0028250D02*
Y0027100D01*
X-0007830Y0028250D02*
Y0027100D01*
X0004250Y0026150D02*
X-0005460D01*
X0004250Y0026060D02*
X-0005443D01*
X-0008100Y0028250D02*
Y0027100D01*
X-0008190Y0028250D02*
Y0027100D01*
X-0007290Y0028250D02*
Y0027100D01*
X-0007470Y0028250D02*
Y0027100D01*
X-0007402Y0025610D02*
X-0007598D01*
X0002210Y0026870D02*
X-0006375D01*
X-0008370Y0028250D02*
Y0027100D01*
X-0008460Y0028250D02*
Y0027100D01*
X-0008550Y0028250D02*
Y0027100D01*
X-0008640Y0028250D02*
Y0027100D01*
X-0004500Y0028250D02*
Y0025850D01*
X-0002430Y0028250D02*
Y0025850D01*
X-0011610Y0028250D02*
Y0026885D01*
X-0011700Y0028250D02*
Y0026795D01*
X-0009090Y0028250D02*
Y0027100D01*
X-0009180Y0028250D02*
Y0027100D01*
X-0009270Y0028250D02*
Y0027100D01*
X-0009360Y0028250D02*
Y0027100D01*
X-0008280Y0028250D02*
Y0027100D01*
X-0006840Y0028250D02*
Y0027100D01*
X-0007380Y0028250D02*
Y0027100D01*
X0002262Y0026690D02*
X-0006195D01*
X0002563Y0026330D02*
X-0005547D01*
X-0007920Y0028250D02*
Y0027100D01*
X-0008010Y0028250D02*
Y0027100D01*
X-0008730Y0028250D02*
Y0027100D01*
X0004250Y0025970D02*
X-0005441D01*
X0002231Y0026780D02*
X-0006285D01*
X-0008288Y0025520D02*
X-0008440D01*
X-0017010Y0025650D02*
Y0022439D01*
X-0016920Y0028250D02*
Y0026350D01*
X-0018460Y0025540D02*
X-0018717D01*
X-0020481Y0021830D02*
X-0022500D01*
X-0014560Y0026350D02*
X-0018589D01*
X-0014560Y0026510D02*
X-0018822D01*
X-0014560Y0026420D02*
X-0018660D01*
X-0018540Y0025650D02*
Y0025540D01*
X-0021687Y0027410D02*
X-0022500D01*
X-0020510Y0022010D02*
X-0022500D01*
X-0019536Y0026060D02*
X-0022500D01*
X-0019540Y0025070D02*
X-0022500D01*
X-0011340Y0020650D02*
Y0018350D01*
X-0018630Y0025607D02*
Y0025540D01*
Y0028250D02*
Y0026393D01*
X-0018720Y0028250D02*
Y0026462D01*
X-0018810Y0028250D02*
Y0026505D01*
X-0018900Y0028250D02*
Y0026530D01*
X-0018990Y0028250D02*
Y0026540D01*
X-0019080Y0028250D02*
Y0026534D01*
X-0019170Y0028250D02*
Y0026512D01*
X-0019350Y0025589D02*
Y0025540D01*
X-0019440Y0025687D02*
Y0025540D01*
X-0019519Y0026150D02*
X-0022500D01*
X-0005395Y0025100D02*
X-0010500D01*
X-0005065Y0025430D02*
X-0018460D01*
X-0005155Y0025340D02*
X-0018460D01*
X-0005245Y0025250D02*
X-0018460D01*
X-0009720Y0026400D02*
Y0025100D01*
X-0009450Y0024400D02*
Y0021350D01*
X-0010765Y0024980D02*
X-0018460D01*
X-0010855Y0024890D02*
X-0018460D01*
X-0010945Y0024800D02*
X-0018460D01*
X-0011125Y0024620D02*
X-0018460D01*
X-0015930Y0028250D02*
Y0026350D01*
X-0004860Y0028250D02*
Y0025635D01*
X0000720Y0028250D02*
Y0025485D01*
X-0000270Y0028250D02*
Y0025764D01*
X-0016380Y0028250D02*
Y0026350D01*
X-0016110Y0028250D02*
Y0026350D01*
X-0021624Y0027500D02*
X-0022500D01*
X0000571Y0022640D02*
X-0001597D01*
X-0004050Y0028250D02*
Y0025850D01*
X-0001530Y0022650D02*
Y0022266D01*
X0000360Y0028250D02*
Y0025350D01*
X-0000360Y0028250D02*
Y0025821D01*
X0004250Y0023090D02*
X0001553D01*
X0000653Y0022560D02*
X0000440D01*
X0000540Y0022650D02*
Y0022560D01*
X-0003995Y0023630D02*
X-0004460D01*
X0004250Y0022730D02*
X0001490D01*
X0000440Y0022460D02*
X-0001717D01*
X0000440Y0022370D02*
X-0001607D01*
X0000440Y0022280D02*
X-0001538D01*
X0000440Y0022190D02*
X-0001494D01*
X0000440Y0022100D02*
X-0001469D01*
X0000440Y0022010D02*
X-0001460D01*
X-0001620Y0022616D02*
Y0022383D01*
X-0006210Y0015650D02*
Y0015350D01*
X0000440Y0021830D02*
X-0001487D01*
X0000440Y0021740D02*
X-0001527D01*
X0000440Y0021650D02*
X-0001589D01*
X-0019540Y0024620D02*
X-0022500D01*
X-0001530Y0021734D02*
Y0021266D01*
X-0001620Y0021616D02*
Y0021383D01*
X0004250Y0021560D02*
X0001560D01*
X0004250Y0021380D02*
X-0001616D01*
X0004250Y0021290D02*
X-0001544D01*
X0004250Y0021200D02*
X-0001498D01*
X0004250Y0021110D02*
X-0001471D01*
X0004250Y0021020D02*
X-0001460D01*
X0004250Y0020930D02*
X-0001464D01*
X0004250Y0020840D02*
X-0001484D01*
X0004250Y0020750D02*
X-0001521D01*
X0004250Y0016700D02*
X0001540D01*
X0000440Y0021560D02*
X-0001687D01*
X-0003850Y0021650D02*
X-0004589D01*
X-0001530Y0020734D02*
Y0020266D01*
X-0001620Y0020616D02*
Y0020383D01*
X0004250Y0020660D02*
X-0001580D01*
X0004250Y0020390D02*
X-0001626D01*
X0004250Y0020300D02*
X-0001551D01*
X0004250Y0020210D02*
X-0001502D01*
X0004250Y0020120D02*
X-0001473D01*
X0004250Y0020030D02*
X-0001461D01*
X0004250Y0019940D02*
X-0001463D01*
X0004250Y0019850D02*
X-0001481D01*
X0004250Y0019760D02*
X-0001516D01*
X0004250Y0020570D02*
X-0001673D01*
X0004250Y0017690D02*
X-0001558D01*
X-0001530Y0019734D02*
Y0019266D01*
X-0001620Y0019616D02*
Y0019383D01*
X-0001710Y0022544D02*
Y0022455D01*
X0004250Y0018500D02*
X-0001796D01*
X0004250Y0019400D02*
X-0001637D01*
X0004250Y0019310D02*
X-0001558D01*
X0004250Y0019220D02*
X-0001507D01*
X0004250Y0019130D02*
X-0001476D01*
X0004250Y0019040D02*
X-0001461D01*
X0004250Y0018950D02*
X-0001462D01*
X0004250Y0018860D02*
X-0001478D01*
X0004250Y0021470D02*
X0001560D01*
X0004250Y0016610D02*
X0001540D01*
X0004250Y0017600D02*
X-0001637D01*
X-0001530Y0018734D02*
Y0018266D01*
X-0001620Y0018616D02*
Y0018383D01*
X-0001710Y0021544D02*
Y0021455D01*
X0004250Y0019670D02*
X-0001572D01*
X0004250Y0017060D02*
X0001540D01*
X0004250Y0018410D02*
X-0001648D01*
X0004250Y0018320D02*
X-0001565D01*
X0004250Y0018230D02*
X-0001511D01*
X0004250Y0018140D02*
X-0001478D01*
X0004250Y0018050D02*
X-0001462D01*
X0004250Y0017960D02*
X-0001461D01*
X0004250Y0017870D02*
X-0001476D01*
X0004250Y0018680D02*
X-0001565D01*
X0004250Y0018590D02*
X-0001648D01*
X-0001530Y0017734D02*
Y0017266D01*
X-0001620Y0017616D02*
Y0017383D01*
X-0001710Y0020544D02*
Y0020455D01*
X0000460Y0016520D02*
X-0001752D01*
X0000460Y0017420D02*
X-0001660D01*
X0000460Y0017330D02*
X-0001572D01*
X0000460Y0017240D02*
X-0001516D01*
X0000460Y0017150D02*
X-0001481D01*
X0000460Y0017060D02*
X-0001463D01*
X0000460Y0016970D02*
X-0001461D01*
X0000460Y0016880D02*
X-0001473D01*
X0000460Y0016700D02*
X-0001551D01*
X0001170Y0010143D02*
Y0002750D01*
X0000734Y0015530D02*
X-0001734D01*
X0000673Y0016430D02*
X-0001673D01*
X0000580Y0016340D02*
X-0001580D01*
X0000521Y0016250D02*
X-0001521D01*
X0000484Y0016160D02*
X-0001484D01*
X0000464Y0016070D02*
X-0001464D01*
X0000460Y0015980D02*
X-0001460D01*
X0000471Y0015890D02*
X-0001471D01*
X0000498Y0015800D02*
X-0001498D01*
X0000544Y0015710D02*
X-0001544D01*
X0000460Y0017510D02*
X-0001773D01*
X-0001530Y0016734D02*
Y0016266D01*
X-0001620Y0016616D02*
Y0016383D01*
X-0001710Y0019544D02*
Y0019455D01*
X-0003850Y0016700D02*
X-0004551D01*
X-0001170Y0022650D02*
Y0015350D01*
X-0001620Y0015616D02*
Y0015383D01*
X0000589Y0015350D02*
X-0001589D01*
X0000687Y0015440D02*
X-0001687D01*
X0000589Y0015350D02*
X-0001589D01*
X-0001530Y0015734D02*
Y0015350D01*
X-0000990Y0022650D02*
Y0015350D01*
X-0000900Y0022650D02*
Y0015350D01*
X0004250Y0014990D02*
X0001540D01*
X-0003850Y0015710D02*
X-0004544D01*
X-0001080Y0022650D02*
Y0015350D01*
X0000540Y0015717D02*
Y0015350D01*
X0004250Y0014000D02*
X0001540D01*
X-0000810Y0022650D02*
Y0015350D01*
X0004250Y0013010D02*
X0001540D01*
X0004250Y0009590D02*
X0000755D01*
X-0001710Y0015544D02*
Y0015455D01*
Y0016544D02*
Y0016455D01*
X0004250Y0009410D02*
X0000620D01*
X0004250Y0009320D02*
X0000552D01*
X0004250Y0012650D02*
X0001411D01*
X-0004500Y0011796D02*
Y0011204D01*
X-0004590Y0011648D02*
Y0011351D01*
X-0004680Y0011565D02*
Y0011435D01*
X-0004770Y0011511D02*
Y0011488D01*
X-0007200Y0008305D02*
Y0002750D01*
X-0003850Y0011390D02*
X-0004626D01*
X-0003850Y0011300D02*
X-0004551D01*
X-0003850Y0011210D02*
X-0004502D01*
X-0003850Y0011120D02*
X-0004473D01*
X-0003850Y0011030D02*
X-0004461D01*
X-0003850Y0010940D02*
X-0004463D01*
X-0004500Y0012796D02*
Y0012204D01*
X-0004590Y0012648D02*
Y0012351D01*
X-0004680Y0012565D02*
Y0012435D01*
X-0004770Y0012511D02*
Y0012488D01*
X-0007470Y0013650D02*
Y0013350D01*
X-0003850Y0010760D02*
X-0004516D01*
X-0003850Y0012380D02*
X-0004616D01*
X-0003850Y0012290D02*
X-0004544D01*
X-0003850Y0012200D02*
X-0004498D01*
X-0003850Y0012110D02*
X-0004471D01*
X-0003850Y0012020D02*
X-0004460D01*
X-0003850Y0011930D02*
X-0004464D01*
X-0003850Y0011840D02*
X-0004484D01*
X-0004500Y0013796D02*
Y0013204D01*
X-0004590Y0013648D02*
Y0013351D01*
X-0004680Y0013565D02*
Y0013435D01*
X-0004770Y0013511D02*
Y0013488D01*
X-0005220Y0013507D02*
Y0013493D01*
X-0005310Y0013558D02*
Y0013442D01*
X-0005400Y0013637D02*
Y0013363D01*
X-0003850Y0011660D02*
X-0004580D01*
X-0003850Y0013460D02*
X-0004717D01*
X-0003850Y0013370D02*
X-0004607D01*
X-0003850Y0013280D02*
X-0004538D01*
X-0003850Y0013190D02*
X-0004494D01*
X-0003850Y0013100D02*
X-0004469D01*
X-0003850Y0013010D02*
X-0004460D01*
X-0003850Y0012920D02*
X-0004466D01*
X-0003850Y0012830D02*
X-0004487D01*
X-0004500Y0014796D02*
Y0014204D01*
X-0004590Y0014648D02*
Y0014351D01*
X-0004680Y0014565D02*
Y0014435D01*
X-0004770Y0014511D02*
Y0014488D01*
X-0006660Y0015650D02*
Y0015350D01*
X-0003850Y0012650D02*
X-0004589D01*
X-0003850Y0014450D02*
X-0004701D01*
X-0003850Y0014360D02*
X-0004597D01*
X-0003850Y0014270D02*
X-0004532D01*
X-0003850Y0014180D02*
X-0004491D01*
X-0003850Y0014090D02*
X-0004467D01*
X-0003850Y0014000D02*
X-0004460D01*
X-0003850Y0013910D02*
X-0004467D01*
X-0004500Y0015796D02*
Y0015204D01*
X-0004590Y0015648D02*
Y0015351D01*
X-0004680Y0015565D02*
Y0015435D01*
X-0004770Y0015511D02*
Y0015488D01*
X-0005220Y0015507D02*
Y0015493D01*
X-0005310Y0015558D02*
Y0015442D01*
X-0005400Y0015637D02*
Y0015363D01*
X-0003850Y0013730D02*
X-0004532D01*
X-0003850Y0015440D02*
X-0004687D01*
X-0003850Y0015350D02*
X-0004589D01*
X-0003850Y0015260D02*
X-0004527D01*
X-0003850Y0015170D02*
X-0004487D01*
X-0003850Y0015080D02*
X-0004466D01*
X-0003850Y0014990D02*
X-0004460D01*
X-0003850Y0014900D02*
X-0004469D01*
X-0003850Y0017420D02*
X-0004660D01*
X-0003850Y0016430D02*
X-0004673D01*
X-0003850Y0016340D02*
X-0004580D01*
X-0003850Y0016250D02*
X-0004521D01*
X-0003850Y0016160D02*
X-0004484D01*
X-0003850Y0016070D02*
X-0004464D01*
X-0003850Y0015980D02*
X-0004460D01*
X-0003850Y0015890D02*
X-0004471D01*
X-0004500Y0016796D02*
Y0016204D01*
X-0004590Y0016648D02*
Y0016351D01*
X-0004680Y0016565D02*
Y0016435D01*
X-0004770Y0016511D02*
Y0016488D01*
X-0005220Y0016507D02*
Y0016493D01*
X-0005310Y0016558D02*
Y0016442D01*
X-0005400Y0016637D02*
Y0016363D01*
X-0004500Y0017796D02*
Y0017204D01*
X-0004590Y0017648D02*
Y0017351D01*
X-0004680Y0017565D02*
Y0017435D01*
X-0004770Y0017511D02*
Y0017488D01*
X-0005220Y0017507D02*
Y0017493D01*
X-0005310Y0017558D02*
Y0017442D01*
X-0005400Y0017637D02*
Y0017363D01*
X-0008010Y0017650D02*
Y0016510D01*
X-0003850Y0019400D02*
X-0004637D01*
X-0003850Y0016520D02*
X-0004752D01*
X-0003850Y0015530D02*
X-0004734D01*
X-0003850Y0017330D02*
X-0004572D01*
X-0003850Y0017240D02*
X-0004516D01*
X-0003850Y0017150D02*
X-0004481D01*
X-0003850Y0017060D02*
X-0004463D01*
X-0003850Y0016970D02*
X-0004461D01*
X-0003850Y0016880D02*
X-0004473D01*
X-0003850Y0016790D02*
X-0004502D01*
X-0003850Y0015620D02*
X-0004616D01*
X-0004500Y0018796D02*
Y0018204D01*
X-0004590Y0018648D02*
Y0018351D01*
X-0004680Y0018565D02*
Y0018435D01*
X-0004770Y0018511D02*
Y0018488D01*
X-0005220Y0018507D02*
Y0018493D01*
X-0005310Y0018558D02*
Y0018442D01*
X-0005400Y0018637D02*
Y0018363D01*
X-0005490Y0017650D02*
Y0017227D01*
X-0003850Y0016610D02*
X-0004626D01*
X-0003850Y0017510D02*
X-0004773D01*
X-0003850Y0018410D02*
X-0004648D01*
X-0003850Y0018320D02*
X-0004565D01*
X-0003850Y0018230D02*
X-0004511D01*
X-0003850Y0018140D02*
X-0004478D01*
X-0003850Y0018050D02*
X-0004462D01*
X-0003850Y0017960D02*
X-0004461D01*
X-0003850Y0017870D02*
X-0004476D01*
X-0004500Y0019796D02*
Y0019204D01*
X-0004590Y0019648D02*
Y0019351D01*
X-0004680Y0019565D02*
Y0019435D01*
X-0004770Y0019511D02*
Y0019488D01*
X-0005220Y0019507D02*
Y0019493D01*
X-0005310Y0019558D02*
Y0019442D01*
X-0005400Y0019637D02*
Y0019363D01*
X-0008100Y0017650D02*
Y0016500D01*
X-0003850Y0020390D02*
X-0004626D01*
X-0003850Y0017600D02*
X-0004637D01*
X-0003850Y0019310D02*
X-0004558D01*
X-0003850Y0019220D02*
X-0004507D01*
X-0003850Y0019130D02*
X-0004476D01*
X-0003850Y0019040D02*
X-0004461D01*
X-0003850Y0018950D02*
X-0004462D01*
X-0003850Y0018860D02*
X-0004478D01*
X-0003850Y0018770D02*
X-0004511D01*
X-0019050Y0017780D02*
X-0022500D01*
X-0004500Y0020796D02*
Y0020204D01*
X-0004590Y0020648D02*
Y0020351D01*
X-0004680Y0020565D02*
Y0020435D01*
X-0004770Y0020511D02*
Y0020488D01*
X-0005220Y0020507D02*
Y0020493D01*
X-0005310Y0020558D02*
Y0020442D01*
X-0005400Y0020637D02*
Y0020363D01*
X-0007920Y0017650D02*
Y0016504D01*
X-0003850Y0021380D02*
X-0004616D01*
X-0003850Y0019490D02*
X-0004773D01*
X-0003850Y0020300D02*
X-0004551D01*
X-0003850Y0020210D02*
X-0004502D01*
X-0003850Y0020120D02*
X-0004473D01*
X-0003850Y0020030D02*
X-0004461D01*
X-0003850Y0019940D02*
X-0004463D01*
X-0003850Y0019850D02*
X-0004481D01*
X-0004500Y0021796D02*
Y0021204D01*
X-0004590Y0021648D02*
Y0021351D01*
X-0004680Y0021565D02*
Y0021435D01*
X-0004770Y0021511D02*
Y0021488D01*
X-0005220Y0021507D02*
Y0021493D01*
X-0005310Y0021558D02*
Y0021442D01*
X-0005400Y0021637D02*
Y0021363D01*
X-0005490Y0018773D02*
Y0018350D01*
X-0003850Y0019580D02*
X-0004660D01*
X-0003850Y0021290D02*
X-0004544D01*
X-0003850Y0021200D02*
X-0004498D01*
X-0003850Y0021110D02*
X-0004471D01*
X-0003850Y0021020D02*
X-0004460D01*
X-0003850Y0020930D02*
X-0004464D01*
X-0003850Y0020840D02*
X-0004484D01*
X-0003850Y0023180D02*
X-0004491D01*
X-0003850Y0022460D02*
X-0004717D01*
X-0003850Y0022370D02*
X-0004607D01*
X-0003850Y0022280D02*
X-0004538D01*
X-0003850Y0022190D02*
X-0004494D01*
X-0004500Y0022796D02*
Y0022204D01*
X-0004590Y0022648D02*
Y0022351D01*
X-0004680Y0022565D02*
Y0022435D01*
X-0004770Y0022511D02*
Y0022488D01*
X-0005220Y0022507D02*
Y0022493D01*
X-0005310Y0022558D02*
Y0022442D01*
X-0005400Y0022637D02*
Y0022363D01*
X-0003850Y0020570D02*
X-0004673D01*
X-0003850Y0021830D02*
X-0004487D01*
X-0003850Y0021740D02*
X-0004527D01*
X-0004500Y0023460D02*
Y0023204D01*
X-0004590Y0023460D02*
Y0023351D01*
X-0004680Y0023460D02*
Y0023435D01*
X-0005310Y0023460D02*
Y0023442D01*
X-0005400Y0023460D02*
Y0023363D01*
X-0005490Y0023460D02*
Y0023227D01*
X-0003935Y0023450D02*
X-0004701D01*
X-0003905Y0023360D02*
X-0004597D01*
X-0003875Y0023270D02*
X-0004532D01*
X-0003850Y0022910D02*
X-0004467D01*
X-0003850Y0022820D02*
X-0004491D01*
X-0003850Y0022730D02*
X-0004532D01*
X-0004460Y0023460D02*
X-0004717D01*
X-0004885Y0025610D02*
X-0005598D01*
X-0003420Y0028250D02*
Y0025850D01*
X-0004950Y0028250D02*
Y0025545D01*
X-0005040Y0028250D02*
Y0025455D01*
X-0005130Y0028250D02*
Y0025365D01*
X-0006288Y0025520D02*
X-0006711D01*
X-0004320Y0023650D02*
Y0002750D01*
X-0012060Y0018990D02*
Y0018758D01*
X-0012150Y0018990D02*
Y0018871D01*
X-0012240Y0018990D02*
Y0018939D01*
X-0012330Y0018990D02*
Y0018981D01*
X-0012690Y0018990D02*
Y0018973D01*
X-0012780Y0018990D02*
Y0018926D01*
X-0012870Y0018990D02*
Y0018851D01*
X-0012960Y0018990D02*
Y0018720D01*
X-0005538Y0019040D02*
X-0011990D01*
X-0005538Y0018950D02*
X-0012260D01*
X-0005521Y0018860D02*
X-0012139D01*
X-0005488Y0018770D02*
X-0012067D01*
X-0005435Y0018680D02*
X-0012023D01*
X-0005351Y0018590D02*
X-0011998D01*
X-0005204Y0018500D02*
X-0011990D01*
X-0005351Y0018410D02*
X-0011915D01*
X-0011990Y0018990D02*
X-0012358D01*
X-0012008Y0021560D02*
X-0014742D01*
X-0014405Y0020840D02*
X-0022500D01*
X-0012060Y0020650D02*
Y0020010D01*
X-0006570Y0015650D02*
Y0015350D01*
X-0012150Y0020650D02*
Y0020010D01*
X-0012420Y0020650D02*
Y0020010D01*
X0002204Y0003920D02*
X-0020204D01*
X0002218Y0003830D02*
X-0020218D01*
X0002243Y0003740D02*
X-0020243D01*
X0002280Y0003650D02*
X-0020280D01*
X0002332Y0003560D02*
X-0020332D01*
X0002401Y0003470D02*
X-0020401D01*
X0002494Y0003380D02*
X-0020494D01*
X-0002250Y0028250D02*
Y0025850D01*
X0003780Y0028250D02*
Y0027178D01*
X0003690Y0028250D02*
Y0027405D01*
X0003600Y0028250D02*
Y0027529D01*
X0003510Y0028250D02*
Y0027616D01*
X0003420Y0028250D02*
Y0027681D01*
X0003330Y0028250D02*
Y0027729D01*
X0003240Y0028250D02*
Y0027763D01*
X0003150Y0028250D02*
Y0027786D01*
X0003060Y0028250D02*
Y0027798D01*
X0002970Y0028250D02*
Y0027799D01*
X0002880Y0028250D02*
Y0027791D01*
X0002790Y0028250D02*
Y0027772D01*
X0002700Y0028250D02*
Y0027741D01*
X0002610Y0028250D02*
Y0027698D01*
X0002520Y0028250D02*
Y0027640D01*
X0002430Y0028250D02*
Y0027561D01*
X0002340Y0028250D02*
Y0027452D01*
X0002250Y0028250D02*
Y0027278D01*
X0004250Y0027770D02*
X0003217D01*
X0004250Y0027680D02*
X0003421D01*
X0004250Y0027590D02*
X0003540D01*
X0004250Y0027500D02*
X0003624D01*
X0004250Y0027410D02*
X0003687D01*
X0004250Y0027320D02*
X0003733D01*
X0004250Y0027230D02*
X0003766D01*
X0004250Y0027140D02*
X0003787D01*
X0004250Y0027050D02*
X0003798D01*
X0004250Y0026960D02*
X0003799D01*
X0004250Y0026870D02*
X0003789D01*
X0004250Y0026780D02*
X0003769D01*
X0004250Y0026690D02*
X0003737D01*
X0004250Y0026600D02*
X0003693D01*
X0004250Y0026510D02*
X0003632D01*
X0004250Y0026420D02*
X0003551D01*
X0004250Y0026330D02*
X0003437D01*
X-0016020Y0028250D02*
Y0026350D01*
X-0020520Y0028250D02*
Y0027640D01*
X-0020610Y0028250D02*
Y0027698D01*
X-0020700Y0028250D02*
Y0027741D01*
X-0020790Y0028250D02*
Y0027772D01*
X-0020880Y0028250D02*
Y0027791D01*
X-0020970Y0028250D02*
Y0027799D01*
X-0021060Y0028250D02*
Y0027798D01*
X-0021150Y0028250D02*
Y0027786D01*
X-0021240Y0028250D02*
Y0027763D01*
X-0021330Y0028250D02*
Y0027729D01*
X-0021420Y0028250D02*
Y0027681D01*
X-0021510Y0028250D02*
Y0027616D01*
X-0021600Y0028250D02*
Y0027529D01*
X-0021690Y0028250D02*
Y0027405D01*
X-0021780Y0028250D02*
Y0027178D01*
X-0020250Y0028250D02*
Y0027278D01*
X-0019177Y0026510D02*
X-0020367D01*
X-0019339Y0026420D02*
X-0020449D01*
X-0019427Y0026330D02*
X-0020563D01*
X-0019484Y0026240D02*
X-0020750D01*
X0002430Y0003438D02*
Y0002750D01*
X0002783Y0027770D02*
X-0020783D01*
X0002578Y0027680D02*
X-0020578D01*
X0002460Y0027590D02*
X-0020460D01*
X0002375Y0027500D02*
X-0020375D01*
X0002313Y0027410D02*
X-0020313D01*
X0002267Y0027320D02*
X-0020267D01*
X0002234Y0027230D02*
X-0020234D01*
X0002212Y0027140D02*
X-0020212D01*
X-0009560Y0026400D02*
Y0025440D01*
X-0011430Y0027050D02*
X-0020201D01*
X-0011535Y0026960D02*
X-0020201D01*
X-0021693Y0026600D02*
X-0022500D01*
X-0005326Y0016430D02*
X-0007726D01*
X-0005490Y0015650D02*
Y0015350D01*
X-0007200Y0017650D02*
Y0016350D01*
X-0007110Y0017650D02*
Y0016350D01*
X-0007020Y0017650D02*
Y0016350D01*
X-0006930Y0017650D02*
Y0016350D01*
X-0006840Y0017650D02*
Y0016350D01*
X-0006570Y0017650D02*
Y0016350D01*
X-0007380Y0017650D02*
Y0016350D01*
X-0007470Y0017650D02*
Y0016350D01*
X-0007560Y0017650D02*
Y0016350D01*
X-0007650Y0017650D02*
Y0016371D01*
X-0007740Y0017650D02*
Y0016439D01*
X-0007830Y0017650D02*
Y0016481D01*
X-0006300Y0021650D02*
Y0021350D01*
X-0005490Y0020650D02*
Y0020350D01*
X-0008460Y0015650D02*
Y0015407D01*
X-0008280Y0020650D02*
Y0020350D01*
X-0006750Y0017650D02*
Y0016350D01*
X-0008987Y0015440D02*
X-0014687D01*
X-0007290Y0015650D02*
Y0015350D01*
X-0007470Y0015650D02*
Y0015350D01*
X-0007650Y0015629D02*
Y0015350D01*
X-0007740Y0015561D02*
Y0015350D01*
X-0008010Y0015490D02*
Y0015260D01*
X-0008100Y0015500D02*
Y0015260D01*
X-0008190Y0015527D02*
Y0015260D01*
X-0008280Y0015574D02*
Y0015260D01*
X-0008820Y0014505D02*
Y0014350D01*
X-0007830Y0015519D02*
Y0015341D01*
X-0007920Y0015496D02*
Y0015306D01*
X-0007200Y0015650D02*
Y0015350D01*
X-0007110Y0015650D02*
Y0015350D01*
X-0007020Y0015650D02*
Y0015350D01*
X-0008910Y0014526D02*
Y0014350D01*
X-0015120Y0028250D02*
Y0026350D01*
X-0012330Y0028250D02*
Y0026452D01*
X-0010260Y0026400D02*
Y0025100D01*
X-0011895Y0026600D02*
X-0020307D01*
X-0011430Y0020650D02*
Y0018350D01*
X-0009560Y0025700D02*
X-0011527D01*
X-0009560Y0025610D02*
X-0011598D01*
X-0009560Y0025520D02*
X-0011711D01*
X-0009560Y0026150D02*
X-0011355D01*
X-0014490Y0028250D02*
Y0026560D01*
X-0011880Y0028250D02*
Y0026615D01*
X-0010890Y0028250D02*
Y0027100D01*
X-0012060Y0028250D02*
Y0026557D01*
X-0012150Y0028250D02*
Y0026539D01*
X-0010800Y0028250D02*
Y0027100D01*
X-0012510Y0028250D02*
Y0026271D01*
X-0012600Y0028250D02*
Y0026392D01*
X-0012690Y0028250D02*
Y0026466D01*
X-0012780Y0028250D02*
Y0026515D01*
X-0012870Y0028250D02*
Y0026545D01*
X-0012960Y0028250D02*
Y0026558D01*
X-0013050Y0028250D02*
Y0026558D01*
X-0013140Y0028250D02*
Y0026542D01*
X-0013230Y0028250D02*
Y0026510D01*
X-0013320Y0028250D02*
Y0026459D01*
X-0012330Y0020650D02*
Y0020010D01*
X-0012231Y0026510D02*
X-0012769D01*
X-0012473Y0025700D02*
X-0012527D01*
X-0012402Y0025610D02*
X-0012598D01*
X-0013440Y0026560D02*
Y0026346D01*
X-0013410Y0028250D02*
Y0026381D01*
X-0013500Y0028250D02*
Y0026560D01*
X-0013590Y0028250D02*
Y0026560D01*
X-0013680Y0028250D02*
Y0026560D01*
X-0013770Y0028250D02*
Y0026560D01*
X-0013860Y0028250D02*
Y0026560D01*
X-0013950Y0028250D02*
Y0026560D01*
X-0014040Y0028250D02*
Y0026560D01*
X-0014130Y0028250D02*
Y0026560D01*
X-0014220Y0028250D02*
Y0026560D01*
X-0014310Y0028250D02*
Y0026560D01*
X-0014400Y0028250D02*
Y0026560D01*
X-0015300Y0004551D02*
Y0002750D01*
X-0013231Y0026510D02*
X-0013440D01*
X-0013370Y0026420D02*
X-0013440D01*
X-0012370D02*
X-0012629D01*
X-0012452Y0026330D02*
X-0012547D01*
X-0009560D02*
X-0011175D01*
X-0009560Y0026240D02*
X-0011265D01*
X-0009560Y0026060D02*
X-0011443D01*
X-0009560Y0025970D02*
X-0011441D01*
X-0009560Y0025880D02*
X-0011453D01*
X-0015220Y0022460D02*
X-0016530D01*
X-0015351Y0022370D02*
X-0016399D01*
X-0014310Y0014650D02*
Y0011185D01*
X-0014220Y0014650D02*
Y0011275D01*
X-0014130Y0014650D02*
Y0011365D01*
X-0013950Y0014650D02*
Y0011545D01*
X-0016110Y0025650D02*
Y0022350D01*
X-0016380Y0025650D02*
Y0022351D01*
X-0016470Y0025650D02*
Y0022426D01*
X-0016560Y0025650D02*
Y0022473D01*
X-0016650Y0025650D02*
Y0022500D01*
X-0016740Y0025650D02*
Y0022510D01*
X-0016830Y0025650D02*
Y0022504D01*
X-0016920Y0025650D02*
Y0022481D01*
X-0020473Y0022190D02*
X-0022500D01*
X-0017100Y0025650D02*
Y0022371D01*
X-0015371Y0021650D02*
X-0016379D01*
X-0015258Y0021560D02*
X-0016492D01*
X-0016970Y0022460D02*
X-0019780D01*
X-0017101Y0022370D02*
X-0019649D01*
X-0017176Y0022280D02*
X-0019574D01*
X-0017223Y0022190D02*
X-0019527D01*
X-0017250Y0022100D02*
X-0019500D01*
X-0017260Y0022010D02*
X-0019490D01*
X-0020504Y0021920D02*
X-0022500D01*
X-0020070Y0028250D02*
Y0022505D01*
X-0016200Y0017650D02*
Y0002750D01*
X-0020250Y0026721D02*
Y0022444D01*
X-0021737Y0026690D02*
X-0022500D01*
X-0005298Y0022550D02*
X-0022500D01*
X-0019620Y0028250D02*
Y0022340D01*
X-0019710Y0028250D02*
Y0022419D01*
X-0019800Y0028250D02*
Y0022469D01*
X-0019890Y0028250D02*
Y0022498D01*
X-0019530Y0024460D02*
Y0022198D01*
X-0017820Y0018150D02*
Y0002750D01*
X-0017231Y0021830D02*
X-0019519D01*
X-0015371Y0021650D02*
X-0016379D01*
X-0017121D02*
X-0019629D01*
X-0010220Y0022460D02*
X-0011530D01*
X-0010351Y0022370D02*
X-0011399D01*
X-0014220Y0006650D02*
Y0002750D01*
X-0012288Y0025520D02*
X-0012711D01*
X-0011790Y0025481D02*
Y0022508D01*
X-0011880Y0025453D02*
Y0022493D01*
X-0011520Y0023567D02*
Y0022455D01*
X-0011610Y0023639D02*
Y0022490D01*
X-0011700Y0023760D02*
Y0022507D01*
X-0010371Y0021650D02*
X-0011379D01*
X-0010258Y0021560D02*
X-0011492D01*
X-0011970Y0025441D02*
Y0022460D01*
X-0012060Y0025443D02*
Y0022405D01*
X-0012150Y0025460D02*
Y0022316D01*
X-0011430Y0023523D02*
Y0022397D01*
X-0020371Y0021650D02*
X-0022500D01*
X-0011970Y0022460D02*
X-0014780D01*
X-0012101Y0022370D02*
X-0014649D01*
X-0012176Y0022280D02*
X-0014574D01*
X-0012223Y0022190D02*
X-0014527D01*
X-0012250Y0022100D02*
X-0014500D01*
X-0011970Y0006650D02*
Y0002750D01*
X-0012231Y0021830D02*
X-0014519D01*
X-0012189Y0021740D02*
X-0014561D01*
X-0012121Y0021650D02*
X-0014629D01*
X-0015480Y0025650D02*
Y0022350D01*
X-0014580Y0025650D02*
Y0022289D01*
X-0014670Y0025650D02*
Y0022389D01*
X-0014760Y0025650D02*
Y0022450D01*
X-0014850Y0025650D02*
Y0022487D01*
X-0014940Y0025650D02*
Y0022506D01*
X-0015030Y0025650D02*
Y0022509D01*
X-0015120Y0025650D02*
Y0022496D01*
X-0015210Y0025650D02*
Y0022465D01*
X-0011510Y0012995D02*
Y0012490D01*
X-0005283Y0022460D02*
X-0006530D01*
X-0005393Y0022370D02*
X-0006399D01*
X-0005940Y0023650D02*
Y0022350D01*
X-0006390Y0023650D02*
Y0022361D01*
X-0006480Y0023650D02*
Y0022432D01*
X-0006570Y0023650D02*
Y0022477D01*
X-0006660Y0023650D02*
Y0022502D01*
X-0006750Y0023650D02*
Y0022510D01*
X-0006840Y0023650D02*
Y0022502D01*
X-0006930Y0023650D02*
Y0022477D01*
X-0007110Y0023650D02*
Y0022361D01*
X-0005490Y0021650D02*
Y0021350D01*
X-0006120Y0023650D02*
Y0022350D01*
X-0005411Y0021650D02*
X-0006379D01*
X-0005540Y0023650D02*
Y0023460D01*
X-0006970Y0022460D02*
X-0009780D01*
X-0007101Y0022370D02*
X-0009649D01*
X-0007176Y0022280D02*
X-0009574D01*
X-0007223Y0022190D02*
X-0009527D01*
X-0007250Y0022100D02*
X-0009500D01*
X-0006750Y0008755D02*
Y0002750D01*
X-0007231Y0021830D02*
X-0009519D01*
X-0007189Y0021740D02*
X-0009561D01*
X-0007121Y0021650D02*
X-0009629D01*
X-0010170Y0026400D02*
Y0025100D01*
X-0009540Y0024400D02*
Y0022220D01*
X-0009630Y0024400D02*
Y0022351D01*
X-0009720Y0024400D02*
Y0022426D01*
X-0009810Y0024400D02*
Y0022473D01*
X-0009900Y0024400D02*
Y0022500D01*
X-0009990Y0024400D02*
Y0022510D01*
X-0010710Y0024045D02*
Y0022350D01*
Y0026400D02*
Y0025030D01*
X-0008316Y0024400D02*
X-0010355D01*
X-0018990Y0024460D02*
Y0019750D01*
X-0015538Y0019040D02*
X-0018198D01*
X-0015750Y0025650D02*
Y0022350D01*
X-0018000Y0025650D02*
Y0019729D01*
X-0018090Y0025650D02*
Y0019866D01*
X-0018180Y0025650D02*
Y0019947D01*
X-0018270Y0025650D02*
Y0019999D01*
X-0018360Y0025650D02*
Y0020032D01*
X-0018540Y0024460D02*
Y0020048D01*
X-0018630Y0024460D02*
Y0020034D01*
X-0018720Y0024460D02*
Y0020004D01*
X-0018810Y0024460D02*
Y0019954D01*
X-0018900Y0024460D02*
Y0019877D01*
X-0015540Y0020030D02*
X-0018353D01*
X-0015540Y0019940D02*
X-0018170D01*
X-0015540Y0019850D02*
X-0018076D01*
X-0015540Y0019760D02*
X-0018015D01*
X-0015540Y0019670D02*
X-0017977D01*
X-0015540Y0019580D02*
X-0017956D01*
X-0015540Y0019490D02*
X-0017950D01*
X-0015363Y0019400D02*
X-0017959D01*
X-0015442Y0019310D02*
X-0017984D01*
X-0015493Y0019220D02*
X-0018026D01*
X-0015524Y0019130D02*
X-0018093D01*
X-0019080Y0024460D02*
Y0018855D01*
X-0019170Y0024460D02*
Y0018940D01*
X-0019260Y0024460D02*
Y0018995D01*
X-0019350Y0024460D02*
Y0019029D01*
X-0019440Y0024460D02*
Y0019047D01*
X-0020250Y0003721D02*
Y0002750D01*
X-0019620Y0021660D02*
Y0019037D01*
X-0019710Y0021580D02*
Y0019008D01*
X-0019800Y0021531D02*
Y0018961D01*
X-0019890Y0021502D02*
Y0018888D01*
X-0019980Y0021490D02*
Y0018768D01*
X-0017910Y0018150D02*
Y0002750D01*
X-0015538Y0018950D02*
X-0019184D01*
X-0015521Y0018860D02*
X-0019084D01*
X-0018900Y0018150D02*
Y0018050D01*
X-0016662Y0017690D02*
X-0017950D01*
X-0015488Y0018770D02*
X-0016777D01*
X-0015930Y0021650D02*
Y0018350D01*
X-0015204Y0018500D02*
X-0016505D01*
X-0015351Y0018410D02*
X-0016415D01*
X-0017135Y0018140D02*
X-0019084D01*
X-0018801Y0019040D02*
X-0019395D01*
X-0018990Y0019250D02*
Y0018850D01*
X-0018000Y0018150D02*
Y0018050D01*
X-0018090Y0018150D02*
Y0018050D01*
X-0018180Y0018150D02*
Y0018050D01*
X-0018270Y0018150D02*
Y0018050D01*
X-0018360Y0018150D02*
Y0018050D01*
X-0018450Y0018150D02*
Y0018050D01*
X-0018540Y0018150D02*
Y0018050D01*
X-0018630Y0018150D02*
Y0018050D01*
X-0018720Y0018150D02*
Y0018050D01*
X0004250Y0002840D02*
X-0022500D01*
X-0017145Y0018150D02*
X-0019076D01*
X-0016955Y0017960D02*
X-0017950D01*
X-0016865Y0017870D02*
X-0017950D01*
X-0016775Y0017780D02*
X-0017950D01*
X-0015363Y0017600D02*
X-0017950D01*
X-0015227Y0017510D02*
X-0017950D01*
X-0015339Y0017420D02*
X-0017950D01*
X-0015427Y0017330D02*
X-0017950D01*
X-0015484Y0017240D02*
X-0017950D01*
X-0015519Y0017150D02*
X-0017950D01*
X-0015536Y0017060D02*
X-0017950D01*
X-0015539Y0016970D02*
X-0017950D01*
X-0010080Y0024400D02*
Y0022504D01*
X-0009990Y0026400D02*
Y0025100D01*
X-0010800Y0026400D02*
Y0024945D01*
X-0010890Y0026400D02*
Y0024855D01*
X-0010980Y0026400D02*
Y0024765D01*
X-0011790Y0028250D02*
Y0026705D01*
X-0011160Y0028250D02*
Y0027100D01*
X-0011250Y0028250D02*
Y0027100D01*
X-0012240Y0025494D02*
Y0022141D01*
X-0011520Y0025711D02*
Y0024432D01*
X-0011610Y0025598D02*
Y0024361D01*
X-0011070Y0026400D02*
Y0024675D01*
X-0010260Y0024400D02*
Y0022439D01*
X-0008371Y0024350D02*
X-0010405D01*
X-0008439Y0024260D02*
X-0010495D01*
X-0008481Y0024170D02*
X-0010585D01*
X-0008510Y0023990D02*
X-0010740D01*
X-0008500Y0023900D02*
X-0010750D01*
X-0008473Y0023810D02*
X-0010777D01*
X-0007020Y0023650D02*
Y0022432D01*
X-0007740Y0025504D02*
Y0025100D01*
X-0007830Y0025466D02*
Y0025100D01*
X-0007920Y0025446D02*
Y0025100D01*
X-0008010Y0025440D02*
Y0025100D01*
X-0008100Y0025449D02*
Y0025100D01*
X-0008190Y0025473D02*
Y0025100D01*
X-0008280Y0025515D02*
Y0025100D01*
X-0008370Y0024400D02*
Y0024351D01*
X-0008460Y0024400D02*
Y0024220D01*
Y0025440D02*
Y0025100D01*
X0001530Y0012896D02*
Y0012103D01*
X0001440Y0012687D02*
Y0012313D01*
X0001350Y0012589D02*
Y0012411D01*
X0001260Y0012527D02*
Y0012473D01*
X-0001260Y0009150D02*
Y0002750D01*
X0004250Y0011300D02*
X0001350D01*
X0004250Y0012380D02*
X0001383D01*
X0004250Y0012290D02*
X0001455D01*
X0004250Y0012200D02*
X0001501D01*
X0004250Y0012110D02*
X0001529D01*
X0004250Y0012830D02*
X0001512D01*
X0004250Y0011930D02*
X0001535D01*
X0001530Y0013896D02*
Y0013103D01*
X0001440Y0013687D02*
Y0013313D01*
X0001350Y0013589D02*
Y0013411D01*
X0001260Y0013527D02*
Y0013473D01*
X0004250Y0012020D02*
X0001539D01*
X0004250Y0013460D02*
X0001283D01*
X0004250Y0013370D02*
X0001393D01*
X0004250Y0013280D02*
X0001462D01*
X0004250Y0013910D02*
X0001532D01*
X0004250Y0013100D02*
X0001530D01*
X0004250Y0013730D02*
X0001467D01*
X0004250Y0012740D02*
X0001473D01*
X0004250Y0011570D02*
X0001350D01*
X0004250Y0013550D02*
X0001298D01*
X0001530Y0014896D02*
Y0014103D01*
X0001440Y0014687D02*
Y0014313D01*
X0001350Y0014589D02*
Y0014411D01*
X0001260Y0014527D02*
Y0014473D01*
X0004250Y0013190D02*
X0001505D01*
X0004250Y0014450D02*
X0001298D01*
X0004250Y0014360D02*
X0001402D01*
X0004250Y0014270D02*
X0001467D01*
X0004250Y0014900D02*
X0001530D01*
X0004250Y0014090D02*
X0001532D01*
X0004250Y0013820D02*
X0001509D01*
X0004250Y0012560D02*
X0001313D01*
X0004250Y0014540D02*
X0001283D01*
X0001530Y0015896D02*
Y0015103D01*
X0001440Y0015687D02*
Y0015313D01*
X0001350Y0015589D02*
Y0015411D01*
X0001260Y0015527D02*
Y0015473D01*
X0000720Y0015538D02*
Y0015462D01*
X0000630Y0015607D02*
Y0015393D01*
X0004250Y0014180D02*
X0001509D01*
X0004250Y0015440D02*
X0001313D01*
X0004250Y0015350D02*
X0001411D01*
X0004250Y0015260D02*
X0001473D01*
X0004250Y0015170D02*
X0001512D01*
X0004250Y0015080D02*
X0001534D01*
X0004250Y0014810D02*
X0001505D01*
X0004250Y0013640D02*
X0001402D01*
X0004250Y0014630D02*
X0001393D01*
X-0002520Y0028250D02*
Y0025850D01*
X0004250Y0015530D02*
X0001266D01*
X0004250Y0016430D02*
X0001326D01*
X0004250Y0016340D02*
X0001419D01*
X0004250Y0016250D02*
X0001478D01*
X0004250Y0016160D02*
X0001516D01*
X0004250Y0016070D02*
X0001535D01*
X0004250Y0015980D02*
X0001539D01*
X0004250Y0015890D02*
X0001529D01*
X0004250Y0017780D02*
X-0001507D01*
X0004250Y0015710D02*
X0001455D01*
X0001540Y0016460D02*
X0001283D01*
X0001530D02*
Y0016103D01*
X0001440Y0016460D02*
Y0016313D01*
X0001350Y0016460D02*
Y0016411D01*
X0000630Y0016460D02*
Y0016393D01*
X0000540Y0016460D02*
Y0016283D01*
X0001530Y0021440D02*
Y0017540D01*
X0001440Y0021440D02*
Y0017540D01*
X0001350Y0021440D02*
Y0017540D01*
X0001260Y0021440D02*
Y0017540D01*
X0001170Y0021440D02*
Y0017540D01*
X0001080Y0021440D02*
Y0017540D01*
X0000990Y0021440D02*
Y0017540D01*
X0000900Y0021440D02*
Y0017540D01*
X0000810Y0021440D02*
Y0017540D01*
X0000720Y0021440D02*
Y0017540D01*
X0000630Y0021440D02*
Y0017540D01*
X0000540Y0021440D02*
Y0017540D01*
X0004250Y0015800D02*
X0001501D01*
X0004250Y0017510D02*
X0001540D01*
X0004250Y0016520D02*
X0001540D01*
X0004250Y0017420D02*
X0001540D01*
X0004250Y0017330D02*
X0001540D01*
X0004250Y0017240D02*
X0001540D01*
X0004250Y0018770D02*
X-0001511D01*
X0004250Y0015620D02*
X0001383D01*
X0004250Y0016970D02*
X0001540D01*
X0004250Y0016880D02*
X0001540D01*
X0004250Y0016790D02*
X0001540D01*
X0004250Y0020480D02*
X-0001752D01*
X-0011520Y0006650D02*
Y0002750D01*
X0004250Y0005450D02*
X-0014701D01*
X0004250Y0005360D02*
X-0014597D01*
X0004250Y0005270D02*
X-0014532D01*
X0004250Y0005180D02*
X-0014491D01*
X0004250Y0005090D02*
X-0014467D01*
X0004250Y0005000D02*
X-0014460D01*
X0004250Y0004910D02*
X-0014467D01*
X0002673Y0004730D02*
X-0014532D01*
X0002520Y0004640D02*
X-0014597D01*
X-0014490Y0005822D02*
Y0005177D01*
X-0014580Y0005660D02*
Y0005339D01*
X-0014670Y0005572D02*
Y0005427D01*
X-0014760Y0005516D02*
Y0005484D01*
X-0015300Y0005551D02*
Y0005449D01*
X-0015390Y0005626D02*
Y0005373D01*
X-0015480Y0005752D02*
Y0005247D01*
X-0014670Y0004572D02*
Y0002750D01*
X0004250Y0006440D02*
X-0014687D01*
X0004250Y0006350D02*
X-0014589D01*
X0004250Y0006260D02*
X-0014527D01*
X0004250Y0006170D02*
X-0014487D01*
X0004250Y0006080D02*
X-0014466D01*
X0004250Y0005990D02*
X-0014460D01*
X0004250Y0005900D02*
X-0014469D01*
X0004250Y0005810D02*
X-0014494D01*
X0004250Y0005720D02*
X-0014538D01*
X0004250Y0005630D02*
X-0014607D01*
X-0010620Y0006650D02*
Y0002750D01*
X-0014490Y0006650D02*
Y0006177D01*
X-0014670Y0006572D02*
Y0006427D01*
X-0014760Y0006516D02*
Y0006484D01*
X-0015300Y0006551D02*
Y0006449D01*
X-0015390Y0006626D02*
Y0006373D01*
X-0015480Y0006752D02*
Y0006247D01*
X-0014580Y0006650D02*
Y0006339D01*
X-0008910Y0006662D02*
Y0002750D01*
X-0009000Y0006650D02*
Y0002750D01*
X0004250Y0007340D02*
X-0008165D01*
X0004250Y0007250D02*
X-0008255D01*
X0004250Y0007160D02*
X-0008345D01*
X-0015300Y0007551D02*
Y0007449D01*
X-0015390Y0007626D02*
Y0007373D01*
X-0015480Y0007752D02*
Y0007247D01*
X-0005043Y0010462D02*
X-0008750Y0006754D01*
X-0015300Y0008551D02*
Y0008449D01*
X-0015390Y0008626D02*
Y0008373D01*
X-0015480Y0008752D02*
Y0008247D01*
X-0010080Y0012496D02*
Y0009415D01*
X-0013115Y0012380D02*
X-0014616D01*
X-0009850Y0012000D02*
Y0009645D01*
X0004250Y0007070D02*
X-0008435D01*
X-0008550Y0006955D02*
Y0002750D01*
X-0014490Y0009822D02*
Y0009350D01*
X-0014670Y0009572D02*
Y0009427D01*
X-0014760Y0009516D02*
Y0009484D01*
X-0015300Y0009551D02*
Y0009449D01*
X-0015390Y0009626D02*
Y0009373D01*
X-0015480Y0009752D02*
Y0009247D01*
X-0013860Y0010645D02*
Y0009350D01*
X-0013770Y0014650D02*
Y0011725D01*
X-0013680Y0014650D02*
Y0011815D01*
X-0015300Y0010460D02*
Y0010449D01*
X-0015390Y0010460D02*
Y0010373D01*
X-0015480Y0010460D02*
Y0010247D01*
X-0009810Y0012527D02*
Y0012162D01*
X-0010260Y0014650D02*
Y0014350D01*
X-0009850Y0010400D02*
X-0014105D01*
X-0009850Y0010310D02*
X-0014195D01*
X-0009850Y0010220D02*
X-0014285D01*
X-0009850Y0010040D02*
X-0014461D01*
X-0013745Y0011750D02*
X-0014521D01*
X-0014490Y0011822D02*
Y0011540D01*
X-0014580Y0011660D02*
Y0011540D01*
X-0014670Y0011572D02*
Y0011540D01*
X-0015300Y0011551D02*
Y0011540D01*
X-0015390Y0011626D02*
Y0011540D01*
X-0015480Y0011752D02*
Y0011540D01*
X-0009850Y0009860D02*
X-0014478D01*
X-0009850Y0010130D02*
X-0014375D01*
X-0014105Y0011390D02*
X-0014460D01*
X-0013680Y0010825D02*
Y0009350D01*
X-0009850Y0011210D02*
X-0013295D01*
X-0014375Y0011120D02*
X-0014460D01*
X-0011790Y0012715D02*
Y0009350D01*
X-0011880Y0012625D02*
Y0009350D01*
X-0011970Y0012535D02*
Y0009350D01*
X-0011520Y0012985D02*
Y0009350D01*
X-0011610Y0012895D02*
Y0009350D01*
X-0011247Y0014247D02*
X-0014460Y0011035D01*
X-0014490Y0012822D02*
Y0012177D01*
X-0014580Y0012660D02*
Y0012339D01*
X-0014670Y0012572D02*
Y0012427D01*
X-0014760Y0012516D02*
Y0012484D01*
X-0015300Y0012551D02*
Y0012449D01*
X-0015390Y0012626D02*
Y0012373D01*
X-0015480Y0012752D02*
Y0012247D01*
X-0013320Y0011185D02*
Y0009350D01*
X-0013050Y0011455D02*
Y0009350D01*
X-0013475Y0012020D02*
X-0014460D01*
X-0010800Y0014650D02*
Y0014350D01*
X-0013500Y0011005D02*
Y0009350D01*
X-0013590Y0010915D02*
Y0009350D01*
X-0015540Y0010580D02*
X-0022500D01*
X-0014460Y0011540D02*
X-0014717D01*
X-0014490Y0013822D02*
Y0013177D01*
X-0014580Y0013660D02*
Y0013339D01*
X-0014670Y0013572D02*
Y0013427D01*
X-0014760Y0013516D02*
Y0013484D01*
X-0015300Y0013551D02*
Y0013449D01*
X-0015390Y0013626D02*
Y0013373D01*
X-0015480Y0013752D02*
Y0013247D01*
X-0013025Y0012470D02*
X-0014734D01*
X-0012035Y0013460D02*
X-0014717D01*
X-0012125Y0013370D02*
X-0014607D01*
X-0012215Y0013280D02*
X-0014538D01*
X-0012305Y0013190D02*
X-0014494D01*
X-0012395Y0013100D02*
X-0014469D01*
X-0012485Y0013010D02*
X-0014460D01*
X-0012575Y0012920D02*
X-0014466D01*
X-0012665Y0012830D02*
X-0014487D01*
X-0012755Y0012740D02*
X-0014527D01*
X-0012845Y0012650D02*
X-0014589D01*
X-0014850Y0004481D02*
Y0002750D01*
X-0009720Y0014650D02*
Y0014350D01*
X-0014490Y0014650D02*
Y0014177D01*
X-0014670Y0014572D02*
Y0014427D01*
X-0014760Y0014516D02*
Y0014484D01*
X-0015300Y0014551D02*
Y0014449D01*
X-0015390Y0014626D02*
Y0014373D01*
X-0015480Y0014752D02*
Y0014247D01*
X-0009086Y0014630D02*
X-0014607D01*
X-0008510Y0014450D02*
X-0014701D01*
X-0008510Y0014360D02*
X-0014597D01*
X-0012935Y0012560D02*
X-0014687D01*
X-0011315Y0014180D02*
X-0014491D01*
X-0011405Y0014090D02*
X-0014467D01*
X-0011495Y0014000D02*
X-0014460D01*
X-0011585Y0013910D02*
X-0014467D01*
X-0011675Y0013820D02*
X-0014491D01*
X-0011765Y0013730D02*
X-0014532D01*
X-0011855Y0013640D02*
X-0014597D01*
X-0011340Y0014650D02*
Y0014155D01*
X-0014490Y0015822D02*
Y0015350D01*
X-0014670Y0015572D02*
Y0015427D01*
X-0014760Y0015516D02*
Y0015484D01*
X-0015300Y0015551D02*
Y0015449D01*
X-0015390Y0015626D02*
Y0015373D01*
X-0015480Y0015752D02*
Y0015247D01*
X-0009720Y0015574D02*
Y0015350D01*
X-0007110Y0008395D02*
Y0002750D01*
X-0007020Y0008485D02*
Y0002750D01*
X-0008510Y0014350D02*
X-0011000D01*
X-0014580Y0014650D02*
Y0014339D01*
Y0015660D02*
Y0015350D01*
X-0011340Y0015490D02*
Y0015350D01*
X-0011250Y0015490D02*
Y0015350D01*
X-0011510Y0016430D02*
X-0014673D01*
X-0011510Y0016340D02*
X-0014580D01*
X-0011510Y0016250D02*
X-0014521D01*
X-0011510Y0016160D02*
X-0014484D01*
X-0011510Y0016070D02*
X-0014464D01*
X-0011510Y0015980D02*
X-0014460D01*
X-0011510Y0015890D02*
X-0014471D01*
X-0011510Y0015800D02*
X-0014498D01*
X-0011510Y0015710D02*
X-0014544D01*
X-0011510Y0015620D02*
X-0014616D01*
X-0011510Y0015530D02*
X-0014734D01*
X-0014490Y0016822D02*
Y0016177D01*
X-0014580Y0016660D02*
Y0016339D01*
X-0014670Y0016572D02*
Y0016427D01*
X-0014760Y0016516D02*
Y0016484D01*
X-0015300Y0016551D02*
Y0016449D01*
X-0015390Y0016626D02*
Y0016373D01*
X-0015480Y0016752D02*
Y0016247D01*
X-0014561Y0020660D02*
X-0022500D01*
X-0005536Y0017060D02*
X-0014445D01*
X-0014310Y0010195D02*
Y0009350D01*
X-0015300Y0017551D02*
Y0017449D01*
X-0015390Y0017626D02*
Y0017373D01*
X-0015660Y0017650D02*
Y0002750D01*
X-0005427Y0017330D02*
X-0014175D01*
X-0005484Y0017240D02*
X-0014265D01*
X-0005519Y0017150D02*
X-0014355D01*
X-0005539Y0016970D02*
X-0014461D01*
X-0005526Y0016880D02*
X-0014473D01*
X-0005339Y0017420D02*
X-0014085D01*
X-0015300Y0018551D02*
Y0018449D01*
X-0015390Y0018626D02*
Y0018373D01*
X-0015480Y0017650D02*
Y0017247D01*
X-0012977Y0018320D02*
X-0013900D01*
X-0012932Y0018230D02*
X-0013900D01*
X-0012861Y0018140D02*
X-0013900D01*
X-0012740Y0018050D02*
X-0013900D01*
X-0010530Y0017650D02*
Y0016510D01*
X-0011970Y0020650D02*
Y0018465D01*
X-0012455Y0017960D02*
X-0013900D01*
X-0013002Y0018410D02*
X-0013900D01*
X-0001260Y0022650D02*
Y0015350D01*
X-0009000Y0024400D02*
Y0021350D01*
X-0009990Y0028250D02*
Y0027100D01*
X-0015390Y0028250D02*
Y0026350D01*
X-0015480Y0028250D02*
Y0026350D01*
X-0014580Y0028250D02*
Y0026350D01*
X-0014670Y0028250D02*
Y0026350D01*
X-0014760Y0028250D02*
Y0026350D01*
X-0014850Y0028250D02*
Y0026350D01*
X-0014940Y0028250D02*
Y0026350D01*
X-0015030Y0028250D02*
Y0026350D01*
X-0012240Y0028250D02*
Y0026506D01*
X-0015210Y0028250D02*
Y0026350D01*
X-0015300Y0028250D02*
Y0026350D01*
X-0015570Y0028250D02*
Y0026350D01*
X-0014560Y0026560D02*
Y0026350D01*
X-0010350Y0028250D02*
Y0027100D01*
X-0015750Y0028250D02*
Y0026350D01*
X-0018000Y0028250D02*
Y0026350D01*
X-0018090Y0028250D02*
Y0026350D01*
X-0018180Y0028250D02*
Y0026350D01*
X-0018270Y0028250D02*
Y0026350D01*
X-0018360Y0028250D02*
Y0026350D01*
X-0018450Y0028250D02*
Y0026350D01*
X-0017280Y0028250D02*
Y0026350D01*
X-0017370Y0028250D02*
Y0026350D01*
X-0017460Y0028250D02*
Y0026350D01*
X-0017550Y0028250D02*
Y0026350D01*
X-0017640Y0028250D02*
Y0026350D01*
X-0017730Y0028250D02*
Y0026350D01*
X-0017820Y0028250D02*
Y0026350D01*
X-0017910Y0028250D02*
Y0026350D01*
X-0016290Y0028250D02*
Y0026350D01*
X0000090Y0028250D02*
Y0025405D01*
X-0001440Y0028250D02*
Y0025850D01*
X0000792Y0025520D02*
X-0000025D01*
X-0006300Y0023650D02*
Y0022350D01*
X-0005580Y0023650D02*
Y0022350D01*
X-0005670Y0023650D02*
Y0022350D01*
X-0005760Y0023650D02*
Y0022350D01*
X-0005850Y0023650D02*
Y0022350D01*
X-0007200Y0023650D02*
Y0022240D01*
X-0008550Y0014542D02*
Y0014350D01*
X-0008640Y0014512D02*
Y0014350D01*
X-0011160Y0014650D02*
Y0014311D01*
X-0009540Y0014650D02*
Y0014350D01*
X-0009630Y0014650D02*
Y0014350D01*
Y0015649D02*
Y0015350D01*
X-0009810Y0014650D02*
Y0014350D01*
X-0009450Y0015650D02*
Y0015350D01*
X-0009990Y0014650D02*
Y0014350D01*
X-0010080Y0014650D02*
Y0014350D01*
X-0010170Y0014650D02*
Y0014350D01*
X-0009850Y0011390D02*
X-0013115D01*
X-0009850Y0011300D02*
X-0013205D01*
X-0009360Y0014650D02*
Y0014350D01*
X-0012060Y0014650D02*
Y0013435D01*
X-0012150Y0014650D02*
Y0013345D01*
X-0012240Y0014650D02*
Y0013255D01*
X-0012330Y0014650D02*
Y0013165D01*
X-0012420Y0014650D02*
Y0013075D01*
X-0012510Y0014650D02*
Y0012985D01*
X-0012600Y0014650D02*
Y0012895D01*
X-0012690Y0014650D02*
Y0012805D01*
X-0012780Y0014650D02*
Y0012715D01*
X-0012870Y0014650D02*
Y0012625D01*
X-0012960Y0014650D02*
Y0012535D01*
X-0009850Y0011120D02*
X-0013385D01*
X-0013860Y0014650D02*
Y0011635D01*
X-0011790Y0014650D02*
Y0013705D01*
X-0011880Y0014650D02*
Y0013615D01*
X-0011970Y0014650D02*
Y0013525D01*
X-0011520Y0014650D02*
Y0013975D01*
X-0011610Y0014650D02*
Y0013885D01*
X-0011700Y0014650D02*
Y0013795D01*
X-0009850Y0011480D02*
X-0013025D01*
X-0013050Y0014650D02*
Y0012445D01*
X-0013140Y0014650D02*
Y0012355D01*
X-0013230Y0014650D02*
Y0012265D01*
X-0009705Y0012290D02*
X-0012215D01*
X-0009615Y0012380D02*
X-0012125D01*
X-0009787Y0012200D02*
X-0012305D01*
X-0009832Y0012110D02*
X-0012395D01*
X-0009849Y0012020D02*
X-0012485D01*
X-0009850Y0011930D02*
X-0012575D01*
X-0010710Y0014650D02*
Y0014350D01*
X-0009525Y0012470D02*
X-0012035D01*
X-0011510Y0012920D02*
X-0011585D01*
X-0011510Y0012830D02*
X-0011675D01*
X-0011510Y0012740D02*
X-0011765D01*
X-0011510Y0012650D02*
X-0011855D01*
X-0011510Y0012560D02*
X-0011945D01*
X-0009450Y0013650D02*
Y0012545D01*
X-0013320Y0014650D02*
Y0012175D01*
X-0009270Y0014650D02*
Y0014350D01*
X-0009180Y0014650D02*
Y0014350D01*
X-0009090Y0014633D02*
Y0014350D01*
X-0007984Y0015260D02*
X-0008323D01*
X-0005402Y0013640D02*
X-0010865D01*
X-0005298Y0013550D02*
X-0010955D01*
X-0008730Y0014500D02*
Y0014350D01*
X-0010620Y0013650D02*
Y0013510D01*
X-0010530Y0014650D02*
Y0014350D01*
X-0010620Y0014650D02*
Y0014350D01*
X-0009850Y0011660D02*
X-0012845D01*
X-0009850Y0011570D02*
X-0012935D01*
X-0015300Y0025650D02*
Y0022412D01*
X-0016290Y0025650D02*
Y0022350D01*
X-0015840Y0025650D02*
Y0022350D01*
X-0015930Y0025650D02*
Y0022350D01*
X-0016020Y0025650D02*
Y0022350D01*
X-0017190Y0025650D02*
Y0022258D01*
X-0015840Y0028250D02*
Y0026350D01*
X-0016650Y0017684D02*
Y0002750D01*
X-0016110Y0021650D02*
Y0018350D01*
X-0016380Y0021649D02*
Y0018375D01*
X-0016470Y0021574D02*
Y0018465D01*
X-0016560Y0021527D02*
Y0018555D01*
X-0016650Y0021500D02*
Y0018645D01*
X-0016200Y0021650D02*
Y0018350D01*
X-0016020Y0021650D02*
Y0018350D01*
X-0017010Y0018015D02*
Y0002750D01*
X-0016740Y0021490D02*
Y0018735D01*
X-0016830Y0021496D02*
Y0018806D01*
X-0017010Y0021561D02*
Y0018850D01*
X-0017100Y0021629D02*
Y0018850D01*
X-0018450Y0025650D02*
Y0020048D01*
X-0017280Y0025650D02*
Y0018850D01*
X-0017370Y0025650D02*
Y0018850D01*
X-0017460Y0025650D02*
Y0018850D01*
X-0017550Y0025650D02*
Y0018850D01*
X-0017640Y0025650D02*
Y0018850D01*
X-0017730Y0025650D02*
Y0018850D01*
X-0017820Y0025650D02*
Y0018850D01*
X-0017190Y0021742D02*
Y0018850D01*
X-0018000Y0019271D02*
Y0018850D01*
X-0018090Y0019133D02*
Y0018850D01*
X-0018180Y0019053D02*
Y0018850D01*
X-0018270Y0019000D02*
Y0018850D01*
X-0018360Y0018968D02*
Y0018850D01*
X-0018450Y0018952D02*
Y0018850D01*
X-0018540Y0018951D02*
Y0018850D01*
X-0018630Y0018965D02*
Y0018850D01*
X-0009107Y0015350D02*
X-0014589D01*
X-0014130Y0025440D02*
Y0021115D01*
X-0014220Y0025440D02*
Y0021025D01*
X-0014310Y0025440D02*
Y0020935D01*
X-0014400Y0025440D02*
Y0020845D01*
X-0008550Y0024400D02*
Y0021350D01*
X-0008640Y0024400D02*
Y0021350D01*
X-0008730Y0024400D02*
Y0021350D01*
X-0008820Y0024400D02*
Y0021350D01*
X-0008910Y0024400D02*
Y0021350D01*
X-0005490Y0022773D02*
Y0022350D01*
X-0005580Y0021650D02*
Y0021350D01*
X-0005670Y0021650D02*
Y0021350D01*
X-0005760Y0021650D02*
Y0021350D01*
X-0005850Y0021650D02*
Y0021350D01*
X-0005940Y0021650D02*
Y0021350D01*
X-0006030Y0021650D02*
Y0021350D01*
X-0006120Y0021650D02*
Y0021350D01*
X-0006210Y0021650D02*
Y0021350D01*
X-0006390Y0021639D02*
Y0021350D01*
X-0006480Y0021567D02*
Y0021350D01*
X-0006570Y0021523D02*
Y0021350D01*
X-0006660Y0021498D02*
Y0021350D01*
X-0006750Y0021490D02*
Y0021350D01*
X-0006840Y0021498D02*
Y0021350D01*
X-0006930Y0021523D02*
Y0021350D01*
X-0007020Y0021567D02*
Y0021350D01*
X-0007110Y0021639D02*
Y0021350D01*
X-0007200Y0021760D02*
Y0021350D01*
X-0007290Y0023650D02*
Y0021350D01*
X-0007380Y0023650D02*
Y0021350D01*
X-0007470Y0023650D02*
Y0021350D01*
X-0007650Y0023629D02*
Y0021350D01*
X-0007740Y0023561D02*
Y0021350D01*
X-0007830Y0023519D02*
Y0021350D01*
X-0007920Y0023496D02*
Y0021350D01*
X-0008010Y0023490D02*
Y0021350D01*
X-0008100Y0023500D02*
Y0021350D01*
X-0008190Y0023527D02*
Y0021350D01*
X-0008280Y0023574D02*
Y0021350D01*
X-0008370Y0023649D02*
Y0021350D01*
X-0008460Y0023780D02*
Y0021350D01*
X-0009090Y0024400D02*
Y0021350D01*
X-0009180Y0024400D02*
Y0021350D01*
X-0009270Y0024400D02*
Y0021350D01*
X-0009360Y0024400D02*
Y0021350D01*
X-0011790Y0021491D02*
Y0021350D01*
X-0011880Y0021507D02*
Y0021350D01*
X-0011970Y0021540D02*
Y0021350D01*
X-0011520Y0021545D02*
Y0021350D01*
X-0011610Y0021509D02*
Y0021350D01*
X-0011700Y0021492D02*
Y0021350D01*
X-0013050Y0025442D02*
Y0021350D01*
X-0013140Y0025458D02*
Y0021350D01*
X-0013230Y0025489D02*
Y0021350D01*
X-0013320Y0025540D02*
Y0021350D01*
X-0013410Y0025618D02*
Y0021350D01*
X-0013500Y0025440D02*
Y0021350D01*
X-0013590Y0025440D02*
Y0021350D01*
X-0013680Y0025440D02*
Y0021350D01*
X-0014495Y0020750D02*
X-0022500D01*
X-0013770Y0025440D02*
Y0021349D01*
X-0013860Y0025440D02*
Y0021332D01*
X-0013950Y0025440D02*
Y0021287D01*
X-0012060Y0021595D02*
Y0021350D01*
X-0012150Y0021683D02*
Y0021350D01*
X-0012330Y0025547D02*
Y0021350D01*
X-0012420Y0025629D02*
Y0021350D01*
X-0012510Y0025729D02*
Y0021350D01*
X-0012600Y0025608D02*
Y0021350D01*
X-0012690Y0025533D02*
Y0021350D01*
X-0012780Y0025485D02*
Y0021350D01*
X-0012870Y0025455D02*
Y0021350D01*
X-0012960Y0025441D02*
Y0021350D01*
X-0009540Y0021780D02*
Y0021350D01*
X-0009630Y0021649D02*
Y0021350D01*
X-0009720Y0021574D02*
Y0021350D01*
X-0009810Y0021527D02*
Y0021350D01*
X-0010530Y0021650D02*
Y0021350D01*
X-0010620Y0021650D02*
Y0021350D01*
X-0010710Y0021650D02*
Y0021350D01*
X-0010800Y0021650D02*
Y0021350D01*
X-0010890Y0021650D02*
Y0021350D01*
X-0010980Y0021650D02*
Y0021350D01*
X-0011070Y0021650D02*
Y0021350D01*
X-0011160Y0021650D02*
Y0021350D01*
X-0012240Y0021858D02*
Y0021350D01*
X-0011250Y0021650D02*
Y0021350D01*
X-0009900Y0021500D02*
Y0021350D01*
X-0009990Y0021490D02*
Y0021350D01*
X-0010080Y0021496D02*
Y0021350D01*
X-0011340Y0021650D02*
Y0021350D01*
X-0010440Y0021650D02*
Y0021350D01*
X-0011430Y0021603D02*
Y0021350D01*
X-0003720Y0009950D02*
X-0005555D01*
X-0003300Y0009320D02*
X-0006185D01*
X-0003360Y0009410D02*
X-0006095D01*
X-0003420Y0009500D02*
X-0006005D01*
X-0003600Y0009770D02*
X-0005735D01*
X-0003540Y0009680D02*
X-0005825D01*
X-0003600Y0009769D02*
Y0002750D01*
X-0003850Y0010400D02*
X-0005105D01*
X-0003850Y0010310D02*
X-0005195D01*
X-0003480Y0009590D02*
X-0005915D01*
X0004250Y0012470D02*
X0001266D01*
X0004250Y0009680D02*
X0000822D01*
X0004250Y0006980D02*
X-0008525D01*
X0004250Y0006890D02*
X-0008615D01*
X0004250Y0008420D02*
X-0007085D01*
X0004250Y0008240D02*
X-0007265D01*
X0004250Y0008150D02*
X-0007355D01*
X0004250Y0008060D02*
X-0007445D01*
X0004250Y0007970D02*
X-0007535D01*
X0004250Y0006710D02*
X-0008804D01*
X0004250Y0008690D02*
X-0006815D01*
X0004250Y0008600D02*
X-0006905D01*
X-0008640Y0006865D02*
Y0002750D01*
X0004250Y0009050D02*
X-0006455D01*
X0004250Y0008960D02*
X-0006545D01*
X0004250Y0008870D02*
X-0006635D01*
X0004250Y0007880D02*
X-0007625D01*
X0004250Y0007790D02*
X-0007715D01*
X0004250Y0007700D02*
X-0007805D01*
X0004250Y0007430D02*
X-0008075D01*
X0004250Y0007610D02*
X-0007895D01*
X-0002340Y0009150D02*
Y0002750D01*
X-0008820Y0006700D02*
Y0002750D01*
X-0008100Y0007405D02*
Y0002750D01*
X0004250Y0008330D02*
X-0007175D01*
X0004250Y0006800D02*
X-0008705D01*
X-0015521Y0009140D02*
X-0022500D01*
X-0009720Y0006650D02*
Y0002750D01*
X-0009180Y0006650D02*
Y0002750D01*
X-0009270Y0006650D02*
Y0002750D01*
X-0010440Y0024315D02*
Y0022350D01*
X-0010530Y0024225D02*
Y0022350D01*
X-0010620Y0024135D02*
Y0022350D01*
X-0010800Y0023760D02*
Y0022350D01*
X-0010890Y0023639D02*
Y0022350D01*
X-0010980Y0023567D02*
Y0022350D01*
X-0011070Y0023523D02*
Y0022350D01*
X-0011160Y0023498D02*
Y0022350D01*
X-0005580Y0013650D02*
Y0013350D01*
X-0005670Y0013650D02*
Y0013350D01*
X-0005760Y0013650D02*
Y0013350D01*
X-0005850Y0013650D02*
Y0013350D01*
X-0005940Y0013650D02*
Y0013350D01*
X-0006030Y0013650D02*
Y0013350D01*
X-0006120Y0013650D02*
Y0013350D01*
X-0006210Y0013650D02*
Y0013350D01*
X-0006300Y0013650D02*
Y0013350D01*
X-0006390Y0013650D02*
Y0013350D01*
X-0006480Y0013650D02*
Y0013350D01*
X-0006570Y0013650D02*
Y0013350D01*
X-0006660Y0013650D02*
Y0013350D01*
X-0006750Y0013650D02*
Y0013350D01*
X-0006840Y0013650D02*
Y0013350D01*
X-0006930Y0013650D02*
Y0013350D01*
X-0007020Y0013650D02*
Y0013350D01*
X-0007110Y0013650D02*
Y0013350D01*
X-0008100Y0013650D02*
Y0013350D01*
X-0008190Y0013650D02*
Y0013350D01*
X-0008280Y0013650D02*
Y0013350D01*
X-0008370Y0013650D02*
Y0013350D01*
X-0007830Y0013650D02*
Y0013350D01*
X-0008640Y0013650D02*
Y0013321D01*
X-0008460Y0013650D02*
Y0013350D01*
X-0008550Y0013650D02*
Y0013346D01*
X-0008010Y0013650D02*
Y0013350D01*
X-0007920Y0013650D02*
Y0013350D01*
X-0008730Y0013650D02*
Y0013264D01*
X-0007740Y0013650D02*
Y0013350D01*
X-0007650Y0013650D02*
Y0013350D01*
X-0007560Y0013650D02*
Y0013350D01*
X-0013205Y0012290D02*
X-0014544D01*
X-0009720Y0012574D02*
Y0012275D01*
X-0010440Y0017650D02*
Y0016258D01*
X-0009850Y0009770D02*
X-0014511D01*
X-0013835Y0011660D02*
X-0014580D01*
X-0009435Y0012560D02*
X-0009742D01*
X-0009090Y0013650D02*
Y0012905D01*
X-0009900Y0012500D02*
Y0009595D01*
X-0009990Y0012490D02*
Y0009505D01*
X-0010170Y0012519D02*
Y0009350D01*
X-0010260Y0012561D02*
Y0009350D01*
X-0010350Y0012629D02*
Y0009350D01*
X-0010440Y0012742D02*
Y0009350D01*
X-0010530Y0012490D02*
Y0009350D01*
X-0010620Y0012490D02*
Y0009350D01*
X-0010710Y0012490D02*
Y0009350D01*
X-0010800Y0012490D02*
Y0009350D01*
X-0010890Y0012490D02*
Y0009350D01*
X-0010980Y0012490D02*
Y0009350D01*
X-0011070Y0012490D02*
Y0009350D01*
X-0011160Y0012490D02*
Y0009350D01*
X-0011250Y0012490D02*
Y0009350D01*
X-0011340Y0012490D02*
Y0009350D01*
X-0011430Y0012490D02*
Y0009350D01*
X-0009360Y0013650D02*
Y0012635D01*
X-0009850Y0011030D02*
X-0013475D01*
X-0009850Y0010940D02*
X-0013565D01*
X-0009850Y0010850D02*
X-0013655D01*
X-0009850Y0010760D02*
X-0013745D01*
X-0009850Y0010670D02*
X-0013835D01*
X-0014195Y0011300D02*
X-0014460D01*
X-0012060Y0012445D02*
Y0009350D01*
X-0012150Y0012355D02*
Y0009350D01*
X-0012240Y0012265D02*
Y0009350D01*
X-0012330Y0012175D02*
Y0009350D01*
X-0012420Y0012085D02*
Y0009350D01*
X-0012510Y0011995D02*
Y0009350D01*
X-0012600Y0011905D02*
Y0009350D01*
X-0012690Y0011815D02*
Y0009350D01*
X-0012780Y0011725D02*
Y0009350D01*
X-0012870Y0011635D02*
Y0009350D01*
X-0009850Y0010580D02*
X-0013925D01*
X-0009850Y0010490D02*
X-0014015D01*
Y0011480D02*
X-0014460D01*
X-0013140Y0011365D02*
Y0009350D01*
X-0013230Y0011275D02*
Y0009350D01*
X-0013565Y0011930D02*
X-0014464D01*
X-0013500Y0014650D02*
Y0011995D01*
X-0009850Y0011750D02*
X-0012755D01*
X-0012960Y0011545D02*
Y0009350D01*
X-0014285Y0011210D02*
X-0014460D01*
X-0013770Y0010735D02*
Y0009350D01*
X-0013925Y0011570D02*
X-0014673D01*
X-0013950Y0010555D02*
Y0009350D01*
X-0014040Y0010465D02*
Y0009350D01*
X-0008910Y0013650D02*
Y0013085D01*
X-0005580Y0020650D02*
Y0020350D01*
Y0017650D02*
Y0016350D01*
X-0005670Y0017650D02*
Y0016350D01*
X-0005760Y0017650D02*
Y0016350D01*
X-0005850Y0017650D02*
Y0016350D01*
X-0005940Y0017650D02*
Y0016350D01*
X-0006030Y0017650D02*
Y0016350D01*
X-0006120Y0017650D02*
Y0016350D01*
X-0006210Y0017650D02*
Y0016350D01*
X-0006300Y0017650D02*
Y0016350D01*
X-0006390Y0017650D02*
Y0016350D01*
X-0008460Y0017650D02*
Y0016350D01*
X-0005580Y0015650D02*
Y0015350D01*
X-0005670Y0015650D02*
Y0015350D01*
X-0005760Y0015650D02*
Y0015350D01*
X-0005850Y0015650D02*
Y0015350D01*
X-0005940Y0015650D02*
Y0015350D01*
X-0006030Y0015650D02*
Y0015350D01*
X-0006120Y0015650D02*
Y0015350D01*
X-0009107D02*
X-0014589D01*
X-0007380Y0015650D02*
Y0015350D01*
X-0006840Y0015650D02*
Y0015350D01*
X-0006300Y0015650D02*
Y0015350D01*
X-0016752Y0018747D02*
X-0016355Y0018350D01*
X0004250Y0009140D02*
X-0006365D01*
X0004250Y0004730D02*
X0003327D01*
X0004250Y0004640D02*
X0003480D01*
X0004250Y0004550D02*
X0003581D01*
X0004250Y0004460D02*
X0003654D01*
X0004250Y0004370D02*
X0003709D01*
X0004250Y0004280D02*
X0003749D01*
X0004250Y0004190D02*
X0003777D01*
X0004250Y0004100D02*
X0003794D01*
X0004250Y0004010D02*
X0003800D01*
X0004250Y0003920D02*
X0003796D01*
X0004250Y0003830D02*
X0003782D01*
X0004250Y0003740D02*
X0003756D01*
X0004250Y0003650D02*
X0003719D01*
X0004250Y0003560D02*
X0003668D01*
X0004250Y0003470D02*
X0003599D01*
X0004250Y0003380D02*
X0003505D01*
X0003780Y0026822D02*
Y0004178D01*
X0003690Y0026595D02*
Y0004405D01*
X0003600Y0026471D02*
Y0004529D01*
X0003510Y0026383D02*
Y0004616D01*
X0003420Y0026319D02*
Y0004681D01*
X0003330Y0026271D02*
Y0004729D01*
X0003240Y0026237D02*
Y0004763D01*
X0003150Y0026214D02*
Y0004786D01*
X0003060Y0026202D02*
Y0004798D01*
X0002970Y0026200D02*
Y0004799D01*
X0002880Y0026209D02*
Y0004791D01*
X0002790Y0026228D02*
Y0004772D01*
X0002700Y0026258D02*
Y0004741D01*
X0002610Y0026301D02*
Y0004698D01*
X0002520Y0026360D02*
Y0004640D01*
X0002430Y0026438D02*
Y0004561D01*
X0002340Y0026548D02*
Y0004452D01*
X0002250Y0026721D02*
Y0004278D01*
X-0020250Y0021555D02*
Y0004278D01*
X-0020340Y0021620D02*
Y0004452D01*
X-0020430Y0021726D02*
Y0004561D01*
X-0020520Y0026360D02*
Y0004640D01*
X-0020610Y0026301D02*
Y0004698D01*
X-0020700Y0026258D02*
Y0004741D01*
X-0020790Y0026228D02*
Y0004772D01*
X-0020880Y0026209D02*
Y0004791D01*
X-0020970Y0026200D02*
Y0004799D01*
X-0021060Y0026202D02*
Y0004798D01*
X-0021150Y0026214D02*
Y0004786D01*
X-0021240Y0026237D02*
Y0004763D01*
X-0021330Y0026271D02*
Y0004729D01*
X-0021420Y0026319D02*
Y0004681D01*
X-0021510Y0026383D02*
Y0004616D01*
X-0021600Y0026471D02*
Y0004529D01*
X-0021690Y0026595D02*
Y0004405D01*
X-0021780Y0026822D02*
Y0004178D01*
X-0015467Y0004730D02*
X-0020673D01*
X-0015402Y0004640D02*
X-0020520D01*
X-0015298Y0004550D02*
X-0020419D01*
X0002419D02*
X-0014701D01*
X0002345Y0004460D02*
X-0020345D01*
X0002291Y0004370D02*
X-0020291D01*
X0002250Y0004280D02*
X-0020250D01*
X0002223Y0004190D02*
X-0020223D01*
X0002206Y0004100D02*
X-0020206D01*
X0002200Y0004010D02*
X-0020200D01*
X-0008550Y0019542D02*
Y0018350D01*
X-0008640Y0019512D02*
Y0018350D01*
X-0008730Y0019500D02*
Y0018350D01*
X-0008820Y0019505D02*
Y0018350D01*
X-0008910Y0019526D02*
Y0018350D01*
X-0009000Y0019567D02*
Y0018350D01*
X-0008280Y0019650D02*
Y0018350D01*
X-0008370Y0019650D02*
Y0018350D01*
X-0005580Y0019650D02*
Y0018350D01*
X-0005670Y0019650D02*
Y0018350D01*
X-0005760Y0019650D02*
Y0018350D01*
X-0005850Y0019650D02*
Y0018350D01*
X-0005940Y0019650D02*
Y0018350D01*
X-0006030Y0019650D02*
Y0018350D01*
X-0006120Y0019650D02*
Y0018350D01*
X-0006210Y0019650D02*
Y0018350D01*
X-0006300Y0019650D02*
Y0018350D01*
X-0006390Y0019650D02*
Y0018350D01*
X-0006480Y0019650D02*
Y0018350D01*
X-0008460Y0019593D02*
Y0018350D01*
X-0006570Y0019650D02*
Y0018350D01*
X-0006660Y0019650D02*
Y0018350D01*
X-0006750Y0019650D02*
Y0018350D01*
X-0006840Y0019650D02*
Y0018350D01*
X-0006930Y0019650D02*
Y0018350D01*
X-0007020Y0019650D02*
Y0018350D01*
X-0007110Y0019650D02*
Y0018350D01*
X-0007200Y0019650D02*
Y0018350D01*
X-0007290Y0019650D02*
Y0018350D01*
X-0007380Y0019650D02*
Y0018350D01*
X-0007470Y0019650D02*
Y0018350D01*
X-0007560Y0019650D02*
Y0018350D01*
X-0007650Y0019650D02*
Y0018350D01*
X-0007740Y0019650D02*
Y0018350D01*
X-0007830Y0019650D02*
Y0018350D01*
X-0007920Y0019650D02*
Y0018350D01*
X-0008010Y0019650D02*
Y0018350D01*
X-0008100Y0019650D02*
Y0018350D01*
X-0008190Y0019650D02*
Y0018350D01*
X-0011790Y0020650D02*
Y0018350D01*
X-0012420Y0017925D02*
Y0015350D01*
X-0011880Y0020650D02*
Y0018375D01*
X-0011520Y0020650D02*
Y0018350D01*
X-0011610Y0020650D02*
Y0018350D01*
X-0011700Y0020650D02*
Y0018350D01*
X-0009630Y0020650D02*
Y0018350D01*
X-0009720Y0020650D02*
Y0018350D01*
X-0009810Y0020650D02*
Y0018350D01*
X-0010530Y0020650D02*
Y0018350D01*
X-0010620Y0020650D02*
Y0018350D01*
X-0010710Y0020650D02*
Y0018350D01*
X-0010800Y0020650D02*
Y0018350D01*
X-0010890Y0020650D02*
Y0018350D01*
X-0010980Y0020650D02*
Y0018350D01*
X-0009270Y0020650D02*
Y0018350D01*
X-0009360Y0020650D02*
Y0018350D01*
X-0009450Y0020650D02*
Y0018350D01*
X-0009540Y0020650D02*
Y0018350D01*
X0004250Y0019490D02*
X-0001773D01*
X-0010440Y0028250D02*
Y0027100D01*
X-0010530Y0028250D02*
Y0027100D01*
X-0010620Y0028250D02*
Y0027100D01*
X-0010710Y0028250D02*
Y0027100D01*
X-0010170Y0028250D02*
Y0027100D01*
X-0010260Y0028250D02*
Y0027100D01*
X-0009630Y0028250D02*
Y0027100D01*
X-0009720Y0028250D02*
Y0027100D01*
X-0009540Y0028250D02*
Y0027100D01*
X-0011160Y0026345D02*
Y0024585D01*
X-0011070Y0028250D02*
Y0027100D01*
X-0001800Y0028250D02*
Y0025850D01*
X0002201Y0026960D02*
X-0006465D01*
X-0010980Y0028250D02*
Y0027100D01*
X-0000450Y0028250D02*
Y0025846D01*
X-0000540Y0028250D02*
Y0025850D01*
X-0000630Y0028250D02*
Y0025850D01*
X-0001530Y0028250D02*
Y0025850D01*
X-0000720Y0028250D02*
Y0025850D01*
X-0000810Y0028250D02*
Y0025850D01*
X-0001980Y0028250D02*
Y0025850D01*
X-0002070Y0028250D02*
Y0025850D01*
X-0000990Y0028250D02*
Y0025850D01*
X-0001620Y0028250D02*
Y0025850D01*
X-0001710Y0028250D02*
Y0025850D01*
X-0000090Y0028250D02*
Y0025585D01*
X-0001890Y0028250D02*
Y0025850D01*
X-0002160Y0028250D02*
Y0025850D01*
X0004250Y0024350D02*
X0001437D01*
X0004250Y0021920D02*
X0001560D01*
X0004250Y0023360D02*
X0001429D01*
X0000180Y0028250D02*
Y0025350D01*
X0004250Y0023540D02*
X0001319D01*
X-0002610Y0028250D02*
Y0025850D01*
X-0002700Y0028250D02*
Y0025850D01*
X-0002790Y0028250D02*
Y0025850D01*
X-0002880Y0028250D02*
Y0025850D01*
X-0002970Y0028250D02*
Y0025850D01*
X-0003060Y0028250D02*
Y0025850D01*
X-0004230Y0028250D02*
Y0025850D01*
X-0003240Y0028250D02*
Y0025850D01*
X-0003330Y0028250D02*
Y0025850D01*
X-0005310Y0028250D02*
Y0025185D01*
X-0003510Y0028250D02*
Y0025850D01*
X-0003600Y0028250D02*
Y0025850D01*
X-0003690Y0028250D02*
Y0025850D01*
X-0003780Y0028250D02*
Y0025850D01*
X-0003870Y0028250D02*
Y0025850D01*
X-0003960Y0028250D02*
Y0025850D01*
X-0004410Y0028250D02*
Y0025850D01*
X0000641Y0025430D02*
X0000065D01*
X0000563Y0025350D02*
X0000145D01*
X-0004696Y0025790D02*
X-0005481D01*
X0000630Y0028250D02*
Y0025420D01*
X0004250Y0025790D02*
X-0000304D01*
X-0008820Y0028250D02*
Y0027100D01*
X-0004590Y0028250D02*
Y0025838D01*
X-0004770Y0028250D02*
Y0025725D01*
X-0008550Y0025440D02*
Y0025100D01*
X-0008640Y0025440D02*
Y0025100D01*
X-0008730Y0025440D02*
Y0025100D01*
X-0008820Y0025440D02*
Y0025100D01*
X-0008910Y0025440D02*
Y0025100D01*
X-0009000Y0025440D02*
Y0025100D01*
X-0007290Y0025521D02*
Y0025100D01*
X-0007380Y0025588D02*
Y0025100D01*
X-0007470Y0025695D02*
Y0025100D01*
X-0006300Y0025527D02*
Y0025100D01*
X-0005580Y0025629D02*
Y0025100D01*
X-0005670Y0025547D02*
Y0025100D01*
X-0005760Y0025494D02*
Y0025100D01*
X-0005850Y0025460D02*
Y0025100D01*
X-0005940Y0025443D02*
Y0025100D01*
X-0006390Y0025598D02*
Y0025100D01*
X-0006480Y0025711D02*
Y0025100D01*
X-0006570Y0025641D02*
Y0025100D01*
X-0006660Y0025555D02*
Y0025100D01*
X-0006750Y0025499D02*
Y0025100D01*
X-0006840Y0025463D02*
Y0025100D01*
X-0006930Y0025444D02*
Y0025100D01*
X-0007020Y0025440D02*
Y0025100D01*
X-0007650Y0025563D02*
Y0025100D01*
X-0008370Y0025579D02*
Y0025100D01*
X-0007560Y0025653D02*
Y0025100D01*
X-0007110Y0025451D02*
Y0025100D01*
X-0007200Y0025477D02*
Y0025100D01*
X-0006120Y0025453D02*
Y0025100D01*
X-0006210Y0025481D02*
Y0025100D01*
X-0009090Y0025440D02*
Y0025100D01*
X-0009180Y0025440D02*
Y0025100D01*
X-0009270Y0025440D02*
Y0025100D01*
X-0009360Y0025440D02*
Y0025100D01*
X-0009540Y0025440D02*
Y0025100D01*
X-0012162Y0017690D02*
X-0013905D01*
X-0009630Y0026400D02*
Y0025100D01*
X-0010642Y0025070D02*
X-0018460D01*
X0004250Y0010670D02*
X0001350D01*
X0004250Y0011390D02*
X0001350D01*
X0004250Y0011660D02*
X0001419D01*
X0004250Y0011210D02*
X0001350D01*
X0001440Y0011687D02*
Y0002750D01*
X-0009360Y0017650D02*
Y0016350D01*
X-0009270Y0017650D02*
Y0016350D01*
X-0010980Y0017650D02*
Y0016510D01*
X-0009540Y0017650D02*
Y0016350D01*
X-0009180Y0015650D02*
Y0015350D01*
X-0008820Y0017650D02*
Y0016350D01*
X-0009000Y0015650D02*
Y0015433D01*
X-0015266Y0015530D02*
X-0022500D01*
X0004250Y0010760D02*
X0001350D01*
X0004250Y0010220D02*
X0001227D01*
X0004250Y0010130D02*
X0001160D01*
X0004250Y0010040D02*
X0001092D01*
X0004250Y0009950D02*
X0001025D01*
X0004250Y0010310D02*
X0001294D01*
X-0003150Y0009184D02*
Y0002750D01*
X0004250Y0009860D02*
X0000957D01*
X0004250Y0010850D02*
X0001350D01*
X0004250Y0009500D02*
X0000687D01*
X-0003690Y0009904D02*
Y0002750D01*
X0000360Y0009168D02*
Y0002750D01*
X-0003849Y0010220D02*
X-0005285D01*
X-0003829Y0010130D02*
X-0005375D01*
X-0003780Y0010040D02*
X-0005465D01*
X-0015660Y0028250D02*
Y0026350D01*
X-0003850Y0021920D02*
X-0004466D01*
X-0003850Y0023090D02*
X-0004467D01*
X-0003850Y0023000D02*
X-0004460D01*
X-0004002Y0023650D02*
X-0004460D01*
X-0003870Y0023253D02*
Y0002750D01*
X-0005670Y0020650D02*
Y0020350D01*
X-0005760Y0020650D02*
Y0020350D01*
X-0005850Y0020650D02*
Y0020350D01*
X-0005940Y0020650D02*
Y0020350D01*
X-0006030Y0020650D02*
Y0020350D01*
X-0006120Y0020650D02*
Y0020350D01*
X-0006210Y0020650D02*
Y0020350D01*
X-0006300Y0020650D02*
Y0020350D01*
X-0006390Y0020650D02*
Y0020350D01*
X-0006480Y0020650D02*
Y0020350D01*
X-0006570Y0020650D02*
Y0020350D01*
X-0006660Y0020650D02*
Y0020350D01*
X-0006750Y0020650D02*
Y0020350D01*
X-0006840Y0020650D02*
Y0020350D01*
X-0006930Y0020650D02*
Y0020350D01*
X-0007020Y0020650D02*
Y0020350D01*
X-0007110Y0020650D02*
Y0020350D01*
X-0007200Y0020650D02*
Y0020350D01*
X-0007290Y0020650D02*
Y0020350D01*
X-0007380Y0020650D02*
Y0020350D01*
X-0007470Y0020650D02*
Y0020350D01*
X-0007560Y0020650D02*
Y0020350D01*
X-0007650Y0020650D02*
Y0020350D01*
X-0007740Y0020650D02*
Y0020350D01*
X-0007830Y0020650D02*
Y0020350D01*
X-0008550Y0020650D02*
Y0020458D01*
X-0008640Y0020650D02*
Y0020488D01*
X-0008730Y0020650D02*
Y0020499D01*
X-0008820Y0020650D02*
Y0020495D01*
X-0008910Y0020650D02*
Y0020474D01*
X-0009000Y0020650D02*
Y0020433D01*
X-0004460Y0023650D02*
Y0023460D01*
X-0009000Y0017650D02*
Y0016350D01*
X-0008460Y0020650D02*
Y0020407D01*
X-0009090Y0020650D02*
Y0020366D01*
X-0009180Y0020650D02*
Y0020255D01*
X-0005247Y0020480D02*
X-0008610D01*
X-0005373Y0020390D02*
X-0008437D01*
X-0008280Y0017650D02*
Y0016426D01*
X-0008370Y0017650D02*
Y0016351D01*
X-0005490Y0019650D02*
Y0019227D01*
X-0008190Y0020650D02*
Y0020350D01*
X-0008100Y0020650D02*
Y0020350D01*
X-0009090Y0015650D02*
Y0015366D01*
X-0009270Y0015650D02*
Y0015350D01*
X-0012060Y0017655D02*
Y0015350D01*
X-0012150Y0017684D02*
Y0015350D01*
X-0012330Y0017835D02*
Y0015350D01*
X-0012510Y0017990D02*
Y0015350D01*
X-0012600Y0018000D02*
Y0015350D01*
X-0012690Y0018027D02*
Y0015350D01*
X-0012780Y0018074D02*
Y0015350D01*
X-0012870Y0018149D02*
Y0015350D01*
X-0012960Y0018280D02*
Y0015350D01*
X-0013680Y0020575D02*
Y0015350D01*
X-0013770Y0020485D02*
Y0015350D01*
X-0013860Y0020395D02*
Y0015350D01*
X-0012240Y0017745D02*
Y0015350D01*
X-0011790Y0017650D02*
Y0015350D01*
X-0011880Y0017650D02*
Y0015350D01*
X-0011970Y0017650D02*
Y0015350D01*
X-0011520Y0017650D02*
Y0015350D01*
X-0011610Y0017650D02*
Y0015350D01*
X-0013050Y0020650D02*
Y0015350D01*
X-0013140Y0020650D02*
Y0015350D01*
X-0013230Y0020650D02*
Y0015350D01*
X-0013320Y0020650D02*
Y0015350D01*
X-0009360Y0015650D02*
Y0015350D01*
X-0010710Y0015490D02*
Y0015350D01*
X-0013410Y0020650D02*
Y0015350D01*
X-0010800Y0015490D02*
Y0015350D01*
X-0010890Y0015490D02*
Y0015350D01*
X-0010980Y0015490D02*
Y0015350D01*
X-0011070Y0015490D02*
Y0015350D01*
X-0011160Y0015490D02*
Y0015350D01*
X-0009990Y0015490D02*
Y0015350D01*
X-0010080Y0015496D02*
Y0015350D01*
X-0010170Y0015519D02*
Y0015350D01*
X-0010260Y0015561D02*
Y0015350D01*
X-0010350Y0015629D02*
Y0015350D01*
X-0010440Y0015742D02*
Y0015350D01*
X-0011430Y0015490D02*
Y0015350D01*
X-0010530Y0015490D02*
Y0015350D01*
X-0013500Y0020650D02*
Y0015350D01*
X-0010620Y0015490D02*
Y0015350D01*
X-0013590Y0020650D02*
Y0015350D01*
X-0013950Y0017570D02*
Y0015350D01*
X-0014040Y0017465D02*
Y0015350D01*
X-0014130Y0017375D02*
Y0015350D01*
X-0014220Y0017285D02*
Y0015350D01*
X-0014310Y0017195D02*
Y0015350D01*
X-0014400Y0017105D02*
Y0015350D01*
X-0008550Y0015650D02*
Y0015458D01*
X-0008640Y0015650D02*
Y0015488D01*
X-0010440Y0026400D02*
Y0025100D01*
X-0008010Y0020650D02*
Y0020350D01*
X-0005313Y0015440D02*
X-0008512D01*
X-0007750Y0015350D02*
X-0008393D01*
X-0007984Y0015260D02*
X-0008323D01*
X-0008510Y0014540D02*
X-0008554D01*
X0000450Y0021440D02*
Y0015350D01*
X0000360Y0022650D02*
Y0015350D01*
X0000270Y0022650D02*
Y0015350D01*
X0000180Y0022650D02*
Y0015350D01*
X0000090Y0022650D02*
Y0015350D01*
X0000000Y0022650D02*
Y0015350D01*
X-0000090Y0022650D02*
Y0015350D01*
X-0000180Y0022650D02*
Y0015350D01*
X-0000270Y0022650D02*
Y0015350D01*
X-0000360Y0022650D02*
Y0015350D01*
X-0000450Y0022650D02*
Y0015350D01*
X-0000540Y0022650D02*
Y0015350D01*
X-0000630Y0022650D02*
Y0015350D01*
X-0000720Y0022650D02*
Y0015350D01*
X-0025375Y0003000D02*
X-0023125D01*
X-0024250Y0014158D02*
Y0003000D01*
X-0024062Y0003562D02*
X-0024250Y0003000D01*
X-0024437Y0003562D01*
X-0025375Y0028500D02*
X-0023125D01*
X-0024250Y0017342D02*
Y0028500D01*
X-0024437Y0027937D02*
X-0024250Y0028500D01*
X-0024062Y0027937D01*
X-0010842Y0029750D02*
X-0022750D01*
X-0022187Y0029562D02*
X-0022750Y0029750D01*
X-0022187Y0029937D01*
X0004250Y0028625D02*
Y0030875D01*
X-0007658Y0029750D02*
X0004250D01*
X0003687Y0029937D02*
X0004250Y0029750D01*
X0003687Y0029562D01*
X-0022750Y0028625D02*
Y0030875D01*
G01X-0007000Y0025440D02*
G03X-0006500Y0025748I0000000J0000560D01*
G01X-0007500D02*
G03X-0007000Y0025440I0000500J0000252D01*
G01X-0008000D02*
G03X-0007500Y0025748I0000000J0000560D01*
G01X-0008440Y0025653D02*
G03X-0008000Y0025440I0000440J0000347D01*
G01X-0019540Y0026000D02*
G03X-0019283Y0025540I0000540J0000000D01*
G01X-0019000Y0026540D02*
G03X-0019540Y0026000I0000000J0000540D01*
G01X-0001796Y0021500D02*
G03X-0001460Y0022000I0000204J0000500D01*
G01X-0001796Y0020500D02*
G03X-0001460Y0021000I0000204J0000500D01*
G01X-0001796Y0019500D02*
G03X-0001460Y0020000I0000204J0000500D01*
Y0016000D02*
G03X-0001796Y0016500I0000540J0000000D01*
Y0018500D02*
G03X-0001460Y0019000I0000204J0000500D01*
G01X-0001796Y0015500D02*
G03X-0001460Y0016000I0000204J0000500D01*
G01X-0005000Y0010460D02*
G03X-0004460Y0011000I0000000J0000540D01*
G03X-0004796Y0011500I0000540J0000000D01*
G01X-0004460Y0012000D02*
G03X-0004796Y0012500I0000540J0000000D01*
G01X-0004460Y0013000D02*
G03X-0004796Y0013500I0000540J0000000D01*
G01X-0004460Y0014000D02*
G03X-0004796Y0014500I0000540J0000000D01*
G01X-0004460Y0015000D02*
G03X-0004796Y0015500I0000540J0000000D01*
G01X-0005411Y0013650D02*
G03X-0005204Y0013500I0000411J0000350D01*
G01X-0008000Y0015490D02*
G03X-0007629Y0015650I0000000J0000510D01*
G01X-0004460Y0016000D02*
G03X-0004796Y0016500I0000540J0000000D01*
G01X-0005540Y0017000D02*
G03X-0005204Y0016500I0000540J0000000D01*
G01X-0004460Y0017000D02*
G03X-0004796Y0017500I0000540J0000000D01*
G01X-0007629Y0016350D02*
G03X-0008000Y0016510I0000371J0000350D01*
G01X-0004460Y0018000D02*
G03X-0004796Y0018500I0000540J0000000D01*
G01X-0005204Y0017500D02*
G03X-0005540Y0017000I0000204J0000500D01*
Y0019000D02*
G03X-0005204Y0018500I0000540J0000000D01*
G01X-0004460Y0019000D02*
G03X-0004796Y0019500I0000540J0000000D01*
G01X-0005411Y0017650D02*
G03X-0005204Y0017500I0000411J0000350D01*
G01X-0008393Y0020350D02*
G03X-0008750Y0020500I0000357J0000350D01*
G01X-0004460Y0020000D02*
G03X-0004796Y0020500I0000540J0000000D01*
G01X-0005204Y0019500D02*
G03X-0005540Y0019000I0000204J0000500D01*
G01X-0004460Y0021000D02*
G03X-0004796Y0021500I0000540J0000000D01*
G01X-0005411Y0019650D02*
G03X-0005204Y0019500I0000411J0000350D01*
G01X-0006750Y0021490D02*
G03X-0006379Y0021650I0000000J0000510D01*
G01X-0004460Y0022000D02*
G03X-0004796Y0022500I0000540J0000000D01*
G01X-0005540Y0023000D02*
G03X-0005204Y0022500I0000540J0000000D01*
G01X-0004460Y0023000D02*
G03X-0004717Y0023460I0000540J0000000D01*
G01X-0006379Y0022350D02*
G03X-0006750Y0022510I0000371J0000350D01*
G01X-0013010Y0018500D02*
G03X-0012500Y0017990I0000510J0000000D01*
G01X-0011990Y0018500D02*
G03X-0012358Y0018990I0000510J0000000D01*
G01X-0010000Y0012490D02*
G03X-0009490Y0013000I0000000J0000510D01*
G03X-0010000Y0013510I0000510J0000000D01*
G01X-0010490Y0012858D02*
G03X-0010000Y0012490I0000490J0000142D01*
G01X-0009629Y0016350D02*
G03X-0010000Y0016510I0000371J0000350D01*
G01X-0005411Y0020650D02*
G03X-0005204Y0020500I0000411J0000350D01*
G01X-0004796Y0022500D02*
G03X-0004460Y0023000I0000204J0000500D01*
G01X-0004796Y0020500D02*
G03X-0004460Y0021000I0000204J0000500D01*
G01X-0004796Y0019500D02*
G03X-0004460Y0020000I0000204J0000500D01*
G01X-0004796Y0018500D02*
G03X-0004460Y0019000I0000204J0000500D01*
G01X-0004796Y0017500D02*
G03X-0004460Y0018000I0000204J0000500D01*
G01X-0004796Y0016500D02*
G03X-0004460Y0017000I0000204J0000500D01*
G01X-0004796Y0014500D02*
G03X-0004460Y0015000I0000204J0000500D01*
G01X-0004796Y0013500D02*
G03X-0004460Y0014000I0000204J0000500D01*
G01X-0004796Y0012500D02*
G03X-0004460Y0013000I0000204J0000500D01*
G01X-0010371Y0021650D02*
G03X-0010000Y0021490I0000371J0000350D01*
G01X-0006000Y0026560D02*
G03X-0006061Y0026556I0000000J0000560D01*
G01X-0010740Y0024000D02*
G03X-0010740Y0024015I0000510J0000000D01*
G01X-0012641Y0018990D02*
G03X-0013010Y0018500I0000141J0000490D01*
G01X-0014589Y0009350D02*
G03X-0014796Y0009500I0000411J0000350D01*
G01X-0010000Y0016510D02*
G03X-0010490Y0016141I0000000J0000510D01*
G01X-0005283Y0023460D02*
G03X-0005540Y0023000I0000283J0000460D01*
G01X-0014796Y0006500D02*
G03X-0014589Y0006650I0000204J0000500D01*
G01X-0015204Y0015500D02*
G03X-0015540Y0015000I0000204J0000500D01*
G01X-0014796Y0016500D02*
G03X-0014460Y0017000I0000204J0000500D01*
G01X-0014796Y0013500D02*
G03X-0014460Y0014000I0000204J0000500D01*
G01X-0014796Y0012500D02*
G03X-0014460Y0013000I0000204J0000500D01*
G01X-0014717Y0011540D02*
G03X-0014460Y0012000I0000283J0000460D01*
G01X-0015204Y0009500D02*
G03X-0015540Y0009000I0000204J0000500D01*
G01X-0015204Y0008500D02*
G03X-0015540Y0008000I0000204J0000500D01*
G01X-0015204Y0018500D02*
G03X-0015411Y0018350I0000204J0000500D01*
G01X-0004796Y0021500D02*
G03X-0004460Y0022000I0000204J0000500D01*
G01X-0014002Y0017502D02*
G03X-0013899Y0017750I0000248J0000248D01*
G01X-0014796Y0015500D02*
G03X-0014460Y0016000I0000204J0000500D01*
G01X-0014796Y0005500D02*
G03X-0014460Y0006000I0000204J0000500D01*
G01X-0014796Y0009500D02*
G03X-0014460Y0010000I0000204J0000500D01*
G01X-0004796Y0015500D02*
G03X-0004460Y0016000I0000204J0000500D01*
G01X-0010000Y0013510D02*
G03X-0010490Y0013141I0000000J0000510D01*
Y0015858D02*
G03X-0010000Y0015490I0000490J0000142D01*
G01X-0012247Y0017752D02*
G03X-0012000Y0017650I0000247J0000248D01*
G01X-0006502Y0026997D02*
G03X-0006750Y0027100I0000248J0000247D01*
G01X-0011250D02*
G03X-0011497Y0026997I0000000J0000350D01*
G01X-0015283Y0019460D02*
G03X-0015540Y0019000I0000283J0000460D01*
G01X-0004500Y0025850D02*
G03X-0004747Y0025747I0000000J0000350D01*
G01X-0000252D02*
G03X-0000500Y0025850I0000248J0000247D01*
G01X-0010500Y0025100D02*
G03X-0010747Y0024997I0000000J0000350D01*
G01X-0004796Y0011500D02*
G03X-0004460Y0012000I0000204J0000500D01*
G01X-0012247Y0017752D02*
G03X-0012000Y0017650I0000247J0000248D01*
G01X-0011235Y0024510D02*
G03X-0011250Y0024510I0000015J0000510D01*
G01X0001280Y0010290D02*
G03X0001350Y0010500I0000280J0000210D01*
G01X-0003291Y0009306D02*
G03X-0003000Y0009150I0000291J0000194D01*
G01X0000250D02*
G03X0000530Y0009290I0000000J0000350D01*
G01X0000250Y0009150D02*
G03X0000530Y0009290I0000000J0000350D01*
G01X-0003850Y0010250D02*
G03X-0003791Y0010056I0000350J0000000D01*
G01X-0009250Y0020000D02*
G03X-0008750Y0019500I0000500J0000000D01*
G03X-0008393Y0019650I0000000J0000500D01*
G01X-0008750Y0020500D02*
G03X-0009250Y0020000I0000000J0000500D01*
G01X-0008750Y0014500D02*
G03X-0008510Y0014561I0000000J0000500D01*
G01X-0009107Y0014650D02*
G03X-0008750Y0014500I0000357J0000350D01*
G01X-0011000Y0014350D02*
G03X-0011247Y0014247I0000000J0000350D01*
G01X-0016747Y0017752D02*
G03X-0016500Y0017650I0000247J0000248D01*
G01X-0015204Y0006500D02*
G03X-0015540Y0006000I0000204J0000500D01*
G01X-0016379Y0022350D02*
G03X-0016750Y0022510I0000371J0000350D01*
G01X-0016752Y0018747D02*
G03X-0017000Y0018850I0000248J0000247D01*
G01X-0014497Y0020747D02*
G03X-0014598Y0020540I0000247J0000247D01*
G01X-0014002Y0017502D02*
G03X-0013899Y0017750I0000248J0000248D01*
G01X-0014497Y0020747D02*
G03X-0014598Y0020540I0000247J0000247D01*
G01X-0013750Y0021350D02*
G03X-0013997Y0021247I0000000J0000350D01*
G01X-0009000Y0006650D02*
G03X-0008752Y0006752I0000000J0000350D01*
G01X-0009000Y0006650D02*
G03X-0008752Y0006752I0000000J0000350D01*
G01X-0008500Y0013350D02*
G03X-0008747Y0013247I0000000J0000350D01*
G01X-0009747Y0012247D02*
G03X-0009849Y0012000I0000247J0000247D01*
G01X-0008323Y0015260D02*
G03X-0008750Y0015500I0000427J0000260D01*
G01X-0007750Y0015350D02*
G03X-0007984Y0015260I0000000J0000350D01*
G01X0002200Y0004000D02*
G03X0003000Y0003200I0000800J0000000D01*
G03X0003800Y0004000I0000000J0000800D01*
G03X0003000Y0004800I0000800J0000000D01*
G03X0002200Y0004000I0000000J0000800D01*
G01X-0021800D02*
G03X-0021000Y0003200I0000800J0000000D01*
G03X-0020200Y0004000I0000000J0000800D01*
G03X-0021000Y0004800I0000800J0000000D01*
G03X-0021800Y0004000I0000000J0000800D01*
G01X0002200Y0027000D02*
G03X0003000Y0026200I0000800J0000000D01*
G03X0003800Y0027000I0000000J0000800D01*
G03X0003000Y0027800I0000800J0000000D01*
G03X0002200Y0027000I0000000J0000800D01*
G01X-0021800D02*
G03X-0021000Y0026200I0000800J0000000D01*
G03X-0020200Y0027000I0000000J0000800D01*
G03X-0021000Y0027800I0000800J0000000D01*
G03X-0021800Y0027000I0000000J0000800D01*
G01X-0012000Y0025440D02*
G03X-0011440Y0026000I0000000J0000560D01*
G01X-0012500Y0025748D02*
G03X-0012000Y0025440I0000500J0000252D01*
G01X-0013000D02*
G03X-0012500Y0025748I0000000J0000560D01*
G01X-0013440Y0025653D02*
G03X-0013000Y0025440I0000440J0000347D01*
G01X-0012000Y0026560D02*
G03X-0012500Y0026252I0000000J0000560D01*
G01X-0017260Y0022000D02*
G03X-0016750Y0021490I0000510J0000000D01*
Y0022510D02*
G03X-0017260Y0022000I0000000J0000510D01*
G01X-0020510D02*
G03X-0020000Y0021490I0000510J0000000D01*
G03X-0019490Y0022000I0000000J0000510D01*
G03X-0020000Y0022510I0000510J0000000D01*
G03X-0020510Y0022000I0000000J0000510D01*
G01X-0012260D02*
G03X-0011750Y0021490I0000510J0000000D01*
Y0022510D02*
G03X-0012260Y0022000I0000000J0000510D01*
G01X-0015000Y0021490D02*
G03X-0014490Y0022000I0000000J0000510D01*
G03X-0015000Y0022510I0000510J0000000D01*
G01X-0007260Y0022000D02*
G03X-0006750Y0021490I0000510J0000000D01*
Y0022510D02*
G03X-0007260Y0022000I0000000J0000510D01*
G01X-0011750Y0021490D02*
G03X-0011379Y0021650I0000000J0000510D01*
G01X-0010000Y0021490D02*
G03X-0009490Y0022000I0000000J0000510D01*
G03X-0010000Y0022510I0000510J0000000D01*
G01X-0011379Y0022350D02*
G03X-0011750Y0022510I0000371J0000350D01*
G01X-0019050Y0019500D02*
G03X-0018500Y0018950I0000550J0000000D01*
G03X-0017950Y0019500I0000000J0000550D01*
G03X-0018500Y0020050I0000550J0000000D01*
G03X-0019050Y0019500I0000000J0000550D01*
G01X-0020050Y0018500D02*
G03X-0019500Y0017950I0000550J0000000D01*
G03X-0019076Y0018150I0000000J0000550D01*
G01X-0019500Y0019050D02*
G03X-0020050Y0018500I0000000J0000550D01*
G01X-0011760Y0024000D02*
G03X-0011250Y0023490I0000510J0000000D01*
G03X-0010740Y0024000I0000000J0000510D01*
G01X-0011250Y0024510D02*
G03X-0011760Y0024000I0000000J0000510D01*
G01X-0008510D02*
G03X-0008000Y0023490I0000510J0000000D01*
G03X-0007629Y0023650I0000000J0000510D01*
G01X0001540Y0012000D02*
G03X0001204Y0012500I0000540J0000000D01*
G01X0001540Y0013000D02*
G03X0001204Y0013500I0000540J0000000D01*
G01X0001540Y0014000D02*
G03X0001204Y0014500I0000540J0000000D01*
G01X0001540Y0015000D02*
G03X0001204Y0015500I0000540J0000000D01*
G01X0000460Y0016000D02*
G03X0000796Y0015500I0000540J0000000D01*
G01X0001540Y0016000D02*
G03X0001283Y0016460I0000540J0000000D01*
G01X-0015540Y0005000D02*
G03X-0015000Y0004460I0000540J0000000D01*
G03X-0014460Y0005000I0000000J0000540D01*
G03X-0014796Y0005500I0000540J0000000D01*
G01X-0015540Y0006000D02*
G03X-0015204Y0005500I0000540J0000000D01*
G01X-0014460Y0006000D02*
G03X-0014796Y0006500I0000540J0000000D01*
G01X-0015540Y0007000D02*
G03X-0015204Y0006500I0000540J0000000D01*
G01X-0015540Y0008000D02*
G03X-0015204Y0007500I0000540J0000000D01*
G03X-0015540Y0007000I0000204J0000500D01*
Y0009000D02*
G03X-0015204Y0008500I0000540J0000000D01*
G01X-0015540Y0010000D02*
G03X-0015204Y0009500I0000540J0000000D01*
G01X-0014460Y0010000D02*
G03X-0014462Y0010043I0000540J0000000D01*
G01X-0015283Y0010460D02*
G03X-0015540Y0010000I0000283J0000460D01*
Y0012000D02*
G03X-0015283Y0011540I0000540J0000000D01*
G01X-0014460Y0012000D02*
G03X-0014796Y0012500I0000540J0000000D01*
G01X-0015540Y0013000D02*
G03X-0015204Y0012500I0000540J0000000D01*
G01X-0014460Y0013000D02*
G03X-0014796Y0013500I0000540J0000000D01*
G01X-0015204Y0012500D02*
G03X-0015540Y0012000I0000204J0000500D01*
Y0014000D02*
G03X-0015204Y0013500I0000540J0000000D01*
G01X-0014460Y0014000D02*
G03X-0014796Y0014500I0000540J0000000D01*
G01X-0015204Y0013500D02*
G03X-0015540Y0013000I0000204J0000500D01*
Y0015000D02*
G03X-0015204Y0014500I0000540J0000000D01*
Y0005500D02*
G03X-0015540Y0005000I0000204J0000500D01*
G01X-0014796Y0014500D02*
G03X-0014589Y0014650I0000204J0000500D01*
G01X-0015204Y0014500D02*
G03X-0015540Y0014000I0000204J0000500D01*
Y0016000D02*
G03X-0015204Y0015500I0000540J0000000D01*
G01X-0014460Y0016000D02*
G03X-0014796Y0016500I0000540J0000000D01*
G01X-0015540Y0017000D02*
G03X-0015204Y0016500I0000540J0000000D01*
G03X-0015540Y0016000I0000204J0000500D01*
G01X-0015204Y0017500D02*
G03X-0015540Y0017000I0000204J0000500D01*
Y0019000D02*
G03X-0015204Y0018500I0000540J0000000D01*
G01X-0015411Y0017650D02*
G03X-0015204Y0017500I0000411J0000350D01*
G01X0001560Y0025000D02*
G03X0001000Y0025560I0000560J0000000D01*
G01X0001560Y0024000D02*
G03X0001252Y0024500I0000560J0000000D01*
G03X0001560Y0025000I0000252J0000500D01*
Y0023000D02*
G03X0001252Y0023500I0000560J0000000D01*
G01X-0006000Y0025440D02*
G03X-0005440Y0026000I0000000J0000560D01*
G03X-0006000Y0026560I0000560J0000000D01*
G01X-0006500Y0025748D02*
G03X-0006000Y0025440I0000500J0000252D01*
G01X-0008000Y0016510D02*
G03X-0008371Y0016350I0000000J0000510D01*
G01X0001000Y0025560D02*
G03X0000563Y0025350I0000000J0000560D01*
G01X0001252Y0023500D02*
G03X0001560Y0024000I0000252J0000500D01*
G01X-0011440Y0026000D02*
G03X-0011443Y0026061I0000560J0000000D01*
G01X-0005204Y0015500D02*
G03X-0005411Y0015350I0000204J0000500D01*
G01X-0011938Y0026556D02*
G03X-0012000Y0026559I0000062J0000556D01*
G01X-0005204Y0013500D02*
G03X-0005411Y0013350I0000204J0000500D01*
G01X-0018717Y0025540D02*
G03X-0018589Y0025650I0000283J0000460D01*
Y0026350D02*
G03X-0019000Y0026540I0000411J0000350D01*
G01X0000563Y0022650D02*
G03X0000653Y0022560I0000437J0000350D01*
G01X-0001796Y0022500D02*
G03X-0001589Y0022650I0000204J0000500D01*
G01X0001346Y0022560D02*
G03X0001560Y0023000I0000346J0000440D01*
G01X-0001460Y0022000D02*
G03X-0001796Y0022500I0000540J0000000D01*
G01X-0001460Y0021000D02*
G03X-0001796Y0021500I0000540J0000000D01*
G01X-0001460Y0020000D02*
G03X-0001796Y0020500I0000540J0000000D01*
G01X-0001460Y0019000D02*
G03X-0001796Y0019500I0000540J0000000D01*
G01X-0001460Y0018000D02*
G03X-0001796Y0018500I0000540J0000000D01*
G01X0000717Y0016460D02*
G03X0000460Y0016000I0000283J0000460D01*
G01X-0001460Y0017000D02*
G03X-0001796Y0017500I0000540J0000000D01*
G03X-0001460Y0018000I0000204J0000500D01*
G01X0000796Y0015500D02*
G03X0000589Y0015350I0000204J0000500D01*
G01X0001204Y0015500D02*
G03X0001540Y0016000I0000204J0000500D01*
G01X0001204Y0014500D02*
G03X0001540Y0015000I0000204J0000500D01*
G01X0001204Y0013500D02*
G03X0001540Y0014000I0000204J0000500D01*
G01X0001204Y0012500D02*
G03X0001540Y0013000I0000204J0000500D01*
G01X-0001796Y0016500D02*
G03X-0001460Y0017000I0000204J0000500D01*
G01X-0005204Y0016500D02*
G03X-0005411Y0016350I0000204J0000500D01*
G01X-0005204Y0022500D02*
G03X-0005411Y0022350I0000204J0000500D01*
G01X-0012500Y0026252D02*
G03X-0013000Y0026560I0000500J0000252D01*
G01X-0011990Y0018485D02*
G03X-0011990Y0018500I0000510J0000015D01*
G01X-0015000Y0022510D02*
G03X-0015371Y0022350I0000000J0000510D01*
Y0021650D02*
G03X-0015000Y0021490I0000371J0000350D01*
G01X-0013000Y0026560D02*
G03X-0013440Y0026346I0000000J0000560D01*
G01X-0010000Y0022510D02*
G03X-0010371Y0022350I0000000J0000510D01*
G01X-0019076Y0018850D02*
G03X-0019500Y0019050I0000424J0000350D01*
G01X-0016752Y0018747D02*
G03X-0017000Y0018850I0000248J0000247D01*
G01X0001350Y0011589D02*
G03X0001540Y0012000I0000350J0000411D01*
G01X-0010000Y0015490D02*
G03X-0009629Y0015650I0000000J0000510D01*
G01X-0014460Y0017000D02*
G03X-0014462Y0017043I0000540J0000000D01*
G01X-0008316Y0024400D02*
G03X-0008510Y0024000I0000316J0000400D01*
G01X-0014589Y0015350D02*
G03X-0014796Y0015500I0000411J0000350D01*
G01X-0008750D02*
G03X-0009107Y0015350I0000000J0000500D01*
G01X-0016750Y0021490D02*
G03X-0016379Y0021650I0000000J0000510D01*
G01X-0001589Y0015350D02*
G03X-0001796Y0015500I0000411J0000350D01*
G01X-0005043Y0010462D02*
G03X-0005000Y0010460I0000043J0000538D01*
G01X-0005411Y0021650D02*
G03X-0005204Y0021500I0000411J0000350D01*
G01X-0013750Y0021350D02*
G03X-0013997Y0021247I0000000J0000350D01*
G01X-0005204Y0021500D02*
G03X-0005411Y0021350I0000204J0000500D01*
G01X-0009747Y0012247D02*
G03X-0009849Y0012000I0000247J0000247D01*
G01X-0005411Y0015650D02*
G03X-0005204Y0015500I0000411J0000350D01*
G01X-0012500Y0017990D02*
G03X-0012485Y0017990I0000000J0000510D01*
G01X-0011250Y0027100D02*
G03X-0011497Y0026997I0000000J0000350D01*
G01X-0000252Y0025747D02*
G03X-0000500Y0025850I0000248J0000247D01*
G01X-0003850Y0010250D02*
G03X-0003791Y0010056I0000350J0000000D01*
G01X-0005204Y0018500D02*
G03X-0005411Y0018350I0000204J0000500D01*
G01X-0005204Y0020500D02*
G03X-0005411Y0020350I0000204J0000500D01*
G01X-0008371Y0015650D02*
G03X-0008000Y0015490I0000371J0000350D01*
G54D20*
G01X-0012500Y0018500D02*
X-0012000Y0018000D01*
X-0005000D01*
X-0012000Y0026000D02*
X-0011250Y0026750D01*
X-0006750D01*
X-0006000Y0026000D01*
X0001000Y0025000D02*
X0000000D01*
X-0000500Y0025500D01*
X-0004500D01*
X-0005250Y0024750D01*
X-0010500D01*
X-0011250Y0024000D01*
X-0013000Y0026000D02*
X-0014000Y0025000D01*
X-0019000D01*
X-0013000Y0026000D02*
X-0012250Y0025250D01*
X-0010250D01*
Y0026000D01*
X-0009000D01*
X0001000Y0022000D02*
X0001750Y0022750D01*
Y0025500D01*
X0001250Y0026000D01*
X-0004750D01*
X-0005500Y0025250D01*
X-0010250D01*
Y0026000D01*
X-0009000D01*
X-0015000Y0020000D02*
X-0018000D01*
X-0018500Y0019500D01*
X-0005000Y0017000D02*
X-0010000D01*
X-0011000Y0016000D01*
X-0008000D02*
X-0009250D01*
X-0010000D01*
X0001000Y0012000D02*
Y0010500D01*
X0000250Y0009500D01*
X-0003000D01*
X-0003500Y0010250D01*
Y0023250D01*
X-0003750Y0024000D01*
X-0005000D01*
Y0020000D02*
X-0008750D01*
Y0015000D02*
X-0015000D01*
X0001000D02*
X-0002000D01*
X-0005000Y0024000D02*
X-0008000D01*
X-0014000Y0026000D02*
X-0019000D01*
X0001000Y0024000D02*
X-0001250D01*
X-0002000D01*
X-0005000Y0022000D02*
X-0006750D01*
X-0005000Y0014000D02*
X-0011000D01*
X-0015000Y0010000D01*
Y0022000D02*
X-0016750D01*
X0001000Y0023000D02*
X-0002000D01*
X-0015000Y0018000D02*
X-0016500D01*
X-0017000Y0018500D01*
X-0019500D01*
X0001000Y0014000D02*
X-0002000D01*
X-0011000Y0016000D02*
X-0015000D01*
Y0017000D02*
X-0014250Y0017750D01*
Y0020500D01*
X-0013750Y0021000D01*
X-0005000D01*
Y0011000D02*
X-0009000Y0007000D01*
X-0015000D01*
X-0005000Y0012000D02*
X-0008500D01*
X-0009000Y0011500D01*
Y0008500D01*
X-0009500Y0008000D01*
X-0015000D01*
X-0010000Y0022000D02*
X-0011750D01*
X-0005000Y0013000D02*
X-0008500D01*
X-0009500Y0012000D01*
Y0009500D01*
X-0010000Y0009000D01*
X-0015000D01*
X-0005000Y0016000D02*
X-0008000D01*
X-0005000Y0015000D02*
X-0007750D01*
X-0008000Y0014750D01*
X0001000Y0013000D02*
X-0002000D01*
G54D10*
X-0008000Y0016000D03*
X-0020000Y0022000D03*
X-0016750D03*
X-0015000D03*
X-0011750D03*
X-0010000D03*
X-0006750D03*
X-0008000Y0024000D03*
X-0011250D03*
X-0012500Y0018500D03*
X-0010000Y0013000D03*
Y0016000D03*
G54D11*
X-0008000Y0014750D03*
X-0012500Y0019500D03*
X-0011000Y0013000D03*
Y0016000D03*
G54D12*
X0001000D03*
Y0015000D03*
Y0014000D03*
Y0013000D03*
Y0012000D03*
X-0015000Y0019000D03*
Y0018000D03*
Y0017000D03*
Y0016000D03*
Y0015000D03*
Y0014000D03*
Y0013000D03*
Y0012000D03*
Y0010000D03*
Y0009000D03*
Y0008000D03*
Y0007000D03*
Y0006000D03*
Y0005000D03*
X-0019000Y0026000D03*
X-0005000Y0023000D03*
Y0022000D03*
Y0021000D03*
Y0020000D03*
Y0019000D03*
Y0018000D03*
Y0017000D03*
Y0016000D03*
Y0015000D03*
Y0014000D03*
Y0013000D03*
Y0012000D03*
Y0011000D03*
X-0002000D03*
Y0012000D03*
Y0013000D03*
Y0014000D03*
Y0015000D03*
Y0016000D03*
Y0017000D03*
Y0018000D03*
Y0019000D03*
Y0020000D03*
Y0021000D03*
Y0022000D03*
Y0023000D03*
Y0024000D03*
G54D13*
X0001000Y0017000D03*
X-0015000Y0020000D03*
Y0011000D03*
X-0019000Y0025000D03*
X-0005000Y0024000D03*
G54D14*
X-0013000Y0026000D03*
X-0012000D03*
X0001000Y0023000D03*
Y0024000D03*
Y0025000D03*
X-0008000Y0026000D03*
X-0007000D03*
X-0006000D03*
G54D15*
X-0014000D03*
X0001000Y0022000D03*
X-0009000Y0026000D03*
G54D16*
X-0019500Y0018500D03*
X-0018500Y0019500D03*
G54D17*
Y0017500D03*
G54D18*
X0003000Y0004000D03*
X-0021000D03*
X0003000Y0027000D03*
X-0021000D03*
G54D21*
X-0008750Y0020000D03*
Y0015000D03*
M02*
