*
G04 Mass Parameters ***
*
G04 Image ***
*
%IND:\STUDY\ORCAD\SEMI 5\UPDATED\GASLEVELSENSUPDATED-1.AST*%
%ICAS*%
%MOIN*%
%IPPOS*%
%ASAXBY*%
G74*%FSLAN2X34Y34*%
*
G04 Aperture Definitions ***
*
%ADD10C,0.0520*%
%ADD11R,0.0520X0.0520*%
%ADD12C,0.0580*%
%ADD13R,0.0580X0.0580*%
%ADD14C,0.0620*%
%ADD15R,0.0620X0.0620*%
%ADD16C,0.0600*%
%ADD17R,0.0600X0.0600*%
%ADD18C,0.1100*%
%ADD19C,0.0100*%
%ADD20C,0.0200*%
%ADD21C,0.0500*%
%ADD22C,0.1000*%
%ADD23C,0.0720*%
%ADD24R,0.0720X0.0720*%
%ADD25C,0.0780*%
%ADD26R,0.0780X0.0780*%
%ADD27C,0.0820*%
%ADD28R,0.0820X0.0820*%
%ADD29C,0.0800*%
%ADD30R,0.0800X0.0800*%
%ADD31C,0.1400*%
%ADD32C,0.0500*%
%ADD33C,0.0750*%
%ADD34C,0.1050*%
%ADD35C,0.0550*%
%ADD36C,0.0080*%
*
G04 Plot Data ***
*
G54D19*
G01X-0021606Y0028222D02*
X-0021339Y0028755D01*
X-0021695D01*
X-0021939Y0028222D02*
X-0022117D01*
X-0022028D02*
Y0028755D01*
X-0022117Y0028667D01*
X0002616Y0028489D02*
X0002661Y0028578D01*
Y0028667D01*
X0002616Y0028755D01*
X0002350D01*
X0002305Y0028667D01*
Y0028578D01*
X0002350Y0028489D01*
X0002616D01*
X0002661Y0028400D01*
Y0028311D01*
X0002616Y0028222D01*
X0002350D01*
X0002305Y0028311D01*
Y0028400D01*
X0002350Y0028489D01*
X0002061Y0028222D02*
X0001883D01*
X0001972D02*
Y0028755D01*
X0001883Y0028667D01*
G54D32*
G01X-0022500Y0028500D02*
X0004250D01*
Y0002750D01*
X-0022500D01*
Y0028500D01*
G54D36*
G01X-0012783Y0024988D02*
X-0012756Y0024932D01*
X-0012589D01*
X-0012561Y0024988D01*
Y0025099D01*
X-0012617Y0025155D01*
X-0012783D01*
Y0025266D01*
X-0012561D01*
X-0013110Y0024932D02*
X-0013166Y0024988D01*
X-0013193Y0025044D01*
Y0025155D01*
X-0013166Y0025210D01*
X-0013110Y0025266D01*
X-0013054D01*
X-0012999Y0025210D01*
X-0012971Y0025155D01*
Y0025044D01*
X-0012999Y0024988D01*
X-0013054Y0024932D01*
X-0013110D01*
X-0013409Y0025099D02*
X-0013381Y0025155D01*
Y0025210D01*
X-0013409Y0025266D01*
X-0013576D01*
X-0013603Y0025210D01*
Y0025155D01*
X-0013576Y0025099D01*
X-0013409D01*
X-0013381Y0025044D01*
Y0024988D01*
X-0013409Y0024932D01*
X-0013576D01*
X-0013603Y0024988D01*
Y0025044D01*
X-0013576Y0025099D01*
X-0013958Y0024932D02*
X-0013791Y0025266D01*
X-0014013D01*
X-0014201Y0024932D02*
Y0025266D01*
X-0014257Y0025210D01*
X-0014312Y0025099D01*
X-0014368Y0025210D01*
X-0014423Y0025266D01*
Y0024932D01*
X-0014611D02*
X-0014806D01*
Y0025266D01*
X-0014944Y0025832D02*
X-0015055D01*
X-0015000D02*
Y0026166D01*
X-0015055Y0026110D01*
X-0011111Y0025888D02*
X-0011055Y0025832D01*
X-0010944D01*
X-0010889Y0025888D01*
Y0025944D01*
X-0011000Y0026055D01*
X-0010889Y0026166D01*
X-0011111D01*
X-0014040Y0024483D02*
X-0014151D01*
X-0014096D02*
Y0024816D01*
X-0014151Y0024760D01*
X-0014394Y0024816D02*
Y0024538D01*
X-0014422Y0024483D01*
X-0014589D01*
X-0014617Y0024538D01*
Y0024816D01*
X-0018708Y0022363D02*
X-0018680Y0022308D01*
X-0018513D01*
X-0018485Y0022363D01*
Y0022474D01*
X-0018541Y0022530D01*
X-0018708D01*
Y0022641D01*
X-0018485D01*
X-0018979Y0022474D02*
X-0018895Y0022308D01*
X-0019118Y0022474D02*
X-0018951D01*
X-0018895Y0022530D01*
Y0022585D01*
X-0018951Y0022641D01*
X-0019118D01*
Y0022308D01*
X-0018128Y0021854D02*
X-0018156Y0021910D01*
X-0018323D01*
X-0018351Y0021854D01*
Y0021799D01*
X-0018323Y0021743D01*
X-0018156D01*
X-0018128Y0021688D01*
Y0021632D01*
X-0018156Y0021576D01*
X-0018323D01*
X-0018351Y0021632D01*
X-0018594Y0021743D02*
X-0018761D01*
X-0018538Y0021576D02*
X-0018761D01*
Y0021910D01*
X-0018538D01*
X-0019032Y0021743D02*
X-0018948Y0021576D01*
X-0019171Y0021743D02*
X-0019004D01*
X-0018948Y0021799D01*
Y0021854D01*
X-0019004Y0021910D01*
X-0019171D01*
Y0021576D01*
X-0017333Y0025132D02*
Y0025021D01*
Y0025076D02*
X-0017666D01*
X-0017610Y0025021D01*
X-0017444Y0024583D02*
X-0017388D01*
X-0017333Y0024611D01*
Y0024722D01*
X-0017388Y0024750D01*
X-0017666D01*
Y0024778D02*
Y0024666D01*
X-0017832Y0026147D02*
Y0025924D01*
X-0018055Y0026147D01*
X-0018110D01*
X-0018166Y0026119D01*
Y0025952D01*
X-0018110Y0025924D01*
X-0018166Y0025737D02*
X-0017832D01*
X-0017888Y0025681D01*
X-0018110Y0025570D01*
X-0018166Y0025514D01*
X-0017832D01*
Y0025132D02*
X-0017888Y0025104D01*
X-0018110D01*
X-0018166Y0025132D01*
Y0025299D01*
X-0018110Y0025327D01*
X-0017888D01*
X-0017832Y0025299D01*
Y0025132D01*
X-0017888Y0024917D02*
X-0017832Y0024889D01*
Y0024722D01*
X-0017888Y0024694D01*
X-0018110D01*
X-0018166Y0024722D01*
Y0024889D01*
X-0018110Y0024917D01*
X-0018832Y0024055D02*
Y0023944D01*
Y0024000D02*
X-0019166D01*
X-0019110Y0023944D01*
X0002462Y0021765D02*
X0002517Y0021821D01*
Y0021932D01*
X0002462Y0021988D01*
X0002406D01*
X0002295Y0021876D01*
X0002184Y0021988D01*
Y0021765D01*
X0002406Y0021383D02*
X0002462D01*
X0002517Y0021411D01*
Y0021522D01*
X0002462Y0021550D01*
X0002184D01*
Y0021578D02*
Y0021466D01*
X0001956Y0022647D02*
Y0022424D01*
X0001734Y0022535D01*
Y0022591D01*
X0002067D01*
X0001734Y0022237D02*
X0002067D01*
X0002012Y0022181D01*
X0001790Y0022070D01*
X0001734Y0022014D01*
X0002067D01*
Y0021632D02*
X0002012Y0021604D01*
X0001790D01*
X0001734Y0021632D01*
Y0021799D01*
X0001790Y0021827D01*
X0002012D01*
X0002067Y0021799D01*
Y0021632D01*
X0002012Y0021417D02*
X0002067Y0021389D01*
Y0021222D01*
X0002012Y0021194D01*
X0001790D01*
X0001734Y0021222D01*
Y0021389D01*
X0001790Y0021417D01*
X0001167Y0021055D02*
Y0020944D01*
Y0021000D02*
X0000834D01*
X0000890Y0020944D01*
X0001056Y0026111D02*
Y0025889D01*
X0000834Y0026000D01*
Y0026055D01*
X0001167D01*
X-0018733Y0018390D02*
Y0018168D01*
X-0018955Y0018390D01*
X-0019010D01*
X-0019066Y0018363D01*
Y0018196D01*
X-0019010Y0018168D01*
X-0018899Y0017897D02*
X-0018733Y0017980D01*
X-0018899Y0017758D02*
Y0017925D01*
X-0018955Y0017980D01*
X-0019010D01*
X-0019066Y0017925D01*
Y0017758D01*
X-0018733D01*
X-0017874Y0022338D02*
X-0017707Y0022421D01*
X-0017874Y0022199D02*
Y0022365D01*
X-0017930Y0022421D01*
X-0017985D01*
X-0018041Y0022365D01*
Y0022199D01*
X-0017707D01*
X-0017819Y0022011D02*
Y0021789D01*
X-0017707Y0022011D02*
X-0017874D01*
X-0018041Y0021928D01*
Y0021872D01*
X-0017874Y0021789D01*
X-0017707D01*
X-0018041Y0021601D02*
X-0017930D01*
X-0017707Y0021490D01*
X-0017930Y0021379D01*
X-0018041D01*
X-0017874Y0020573D02*
X-0017707Y0020656D01*
X-0017874Y0020434D02*
Y0020600D01*
X-0017930Y0020656D01*
X-0017985D01*
X-0018041Y0020600D01*
Y0020434D01*
X-0017707D01*
Y0020051D02*
X-0017763Y0020024D01*
X-0017985D01*
X-0018041Y0020051D01*
Y0020218D01*
X-0017985Y0020246D01*
X-0017763D01*
X-0017707Y0020218D01*
Y0020051D01*
Y0019725D02*
X-0018041D01*
Y0019836D02*
Y0019614D01*
X-0017985Y0019426D02*
X-0018041Y0019398D01*
Y0019231D01*
X-0017985Y0019204D01*
X-0017930D01*
X-0017874Y0019231D01*
Y0019398D01*
X-0017819Y0019426D01*
X-0017763D01*
X-0017707Y0019398D01*
Y0019231D01*
X-0017763Y0019204D01*
X-0017707Y0019016D02*
Y0018905D01*
Y0018960D02*
X-0018041D01*
Y0019016D02*
Y0018905D01*
X-0017985Y0018662D02*
X-0018041Y0018634D01*
Y0018467D01*
X-0017985Y0018439D01*
X-0017930D01*
X-0017874Y0018467D01*
Y0018634D01*
X-0017819Y0018662D01*
X-0017763D01*
X-0017707Y0018634D01*
Y0018467D01*
X-0017763Y0018439D01*
X-0017874Y0018196D02*
Y0018029D01*
X-0017707Y0018252D02*
Y0018029D01*
X-0018041D01*
Y0018252D01*
X-0017874Y0017758D02*
X-0017707Y0017842D01*
X-0017874Y0017619D02*
Y0017786D01*
X-0017930Y0017842D01*
X-0017985D01*
X-0018041Y0017786D01*
Y0017619D01*
X-0017707D01*
X-0008558Y0015459D02*
Y0015348D01*
Y0015403D02*
X-0008891D01*
X-0008835Y0015348D01*
X-0008558Y0014993D02*
X-0008724D01*
X-0008891Y0015104D02*
X-0008724Y0015021D01*
Y0014965D01*
X-0008891Y0014882D01*
X-0007201Y0017234D02*
Y0017039D01*
X-0007535D01*
X-0007313Y0016852D02*
Y0016629D01*
X-0007201Y0016852D02*
X-0007368D01*
X-0007535Y0016768D01*
Y0016713D01*
X-0007368Y0016629D01*
X-0007201D01*
Y0016330D02*
X-0007535D01*
Y0016442D02*
Y0016219D01*
X-0007479Y0016032D02*
X-0007535Y0016004D01*
Y0015837D01*
X-0007479Y0015809D01*
X-0007424D01*
X-0007368Y0015837D01*
Y0016004D01*
X-0007313Y0016032D01*
X-0007257D01*
X-0007201Y0016004D01*
Y0015837D01*
X-0007257Y0015809D01*
X-0007201Y0015510D02*
X-0007368D01*
X-0007535Y0015622D02*
X-0007368Y0015538D01*
Y0015483D01*
X-0007535Y0015399D01*
X-0007368Y0015128D02*
X-0007201Y0015212D01*
X-0007368Y0014989D02*
Y0015156D01*
X-0007424Y0015212D01*
X-0007479D01*
X-0007535Y0015156D01*
Y0014989D01*
X-0007201D01*
X-0007257Y0014802D02*
X-0007201Y0014774D01*
Y0014607D01*
X-0007257Y0014579D01*
X-0007479D01*
X-0007535Y0014607D01*
Y0014774D01*
X-0007479Y0014802D01*
X-0013485Y0022419D02*
X-0013708D01*
X-0013597Y0022641D01*
X-0013541D01*
Y0022308D01*
X-0013979Y0022474D02*
X-0013895Y0022308D01*
X-0014118Y0022474D02*
X-0013951D01*
X-0013895Y0022530D01*
Y0022585D01*
X-0013951Y0022641D01*
X-0014118D01*
Y0022308D01*
X-0013128Y0021854D02*
X-0013156Y0021910D01*
X-0013323D01*
X-0013351Y0021854D01*
Y0021799D01*
X-0013323Y0021743D01*
X-0013156D01*
X-0013128Y0021688D01*
Y0021632D01*
X-0013156Y0021576D01*
X-0013323D01*
X-0013351Y0021632D01*
X-0013594Y0021743D02*
X-0013761D01*
X-0013538Y0021576D02*
X-0013761D01*
Y0021910D01*
X-0013538D01*
X-0014032Y0021743D02*
X-0013948Y0021576D01*
X-0014171Y0021743D02*
X-0014004D01*
X-0013948Y0021799D01*
Y0021854D01*
X-0014004Y0021910D01*
X-0014171D01*
Y0021576D01*
X-0009012Y0024483D02*
X-0009235D01*
X-0009012Y0024705D01*
Y0024760D01*
X-0009040Y0024816D01*
X-0009207D01*
X-0009235Y0024760D01*
X-0009617Y0024594D02*
Y0024538D01*
X-0009589Y0024483D01*
X-0009478D01*
X-0009450Y0024538D01*
Y0024816D01*
X-0009422D02*
X-0009533D01*
X-0008353Y0025044D02*
X-0008576D01*
X-0008464Y0025266D01*
X-0008409D01*
Y0024932D01*
X-0008763Y0025266D02*
Y0024932D01*
X-0008819Y0024988D01*
X-0008930Y0025210D01*
X-0008986Y0025266D01*
Y0024932D01*
X-0009368D02*
X-0009396Y0024988D01*
Y0025210D01*
X-0009368Y0025266D01*
X-0009201D01*
X-0009173Y0025210D01*
Y0024988D01*
X-0009201Y0024932D01*
X-0009368D01*
X-0009583Y0024988D02*
X-0009611Y0024932D01*
X-0009778D01*
X-0009806Y0024988D01*
Y0025210D01*
X-0009778Y0025266D01*
X-0009611D01*
X-0009583Y0025210D01*
X-0009944Y0025832D02*
X-0010055D01*
X-0010000D02*
Y0026166D01*
X-0010055Y0026110D01*
X-0004889Y0025944D02*
X-0005111D01*
X-0005000Y0026166D01*
X-0004944D01*
Y0025832D01*
X-0010360Y0013558D02*
X-0010583D01*
X-0010360Y0013780D01*
Y0013835D01*
X-0010388Y0013891D01*
X-0010555D01*
X-0010583Y0013835D01*
X-0010770Y0013613D02*
X-0010798Y0013558D01*
X-0010965D01*
X-0010993Y0013613D01*
Y0013835D01*
X-0010965Y0013891D01*
X-0010798D01*
X-0010770Y0013835D01*
X-0009121Y0012368D02*
X-0008954D01*
X-0008898Y0012424D01*
Y0012479D01*
X-0008954Y0012535D01*
X-0009121D01*
Y0012201D01*
X-0009308Y0012535D02*
Y0012201D01*
X-0009364Y0012257D01*
X-0009475Y0012479D01*
X-0009531Y0012535D01*
Y0012201D01*
X-0010476Y0012368D02*
X-0010309D01*
X-0010253Y0012424D01*
Y0012479D01*
X-0010309Y0012535D01*
X-0010476D01*
Y0012201D01*
X-0010663Y0012313D02*
X-0010886D01*
X-0010663Y0012201D02*
Y0012368D01*
X-0010747Y0012535D01*
X-0010802D01*
X-0010886Y0012368D01*
Y0012201D01*
X-0011073Y0012257D02*
X-0011101Y0012201D01*
X-0011268D01*
X-0011296Y0012257D01*
Y0012479D01*
X-0011268Y0012535D01*
X-0011101D01*
X-0011073Y0012479D01*
X-0010416Y0016558D02*
X-0010527D01*
X-0010472D02*
Y0016891D01*
X-0010527Y0016835D01*
X-0010770Y0016613D02*
X-0010798Y0016558D01*
X-0010965D01*
X-0010993Y0016613D01*
Y0016835D01*
X-0010965Y0016891D01*
X-0010798D01*
X-0010770Y0016835D01*
X-0009121Y0015368D02*
X-0008954D01*
X-0008898Y0015424D01*
Y0015479D01*
X-0008954Y0015535D01*
X-0009121D01*
Y0015201D01*
X-0009308Y0015535D02*
Y0015201D01*
X-0009364Y0015257D01*
X-0009475Y0015479D01*
X-0009531Y0015535D01*
Y0015201D01*
X-0010476Y0015368D02*
X-0010309D01*
X-0010253Y0015424D01*
Y0015479D01*
X-0010309Y0015535D01*
X-0010476D01*
Y0015201D01*
X-0010663Y0015313D02*
X-0010886D01*
X-0010663Y0015201D02*
Y0015368D01*
X-0010747Y0015535D01*
X-0010802D01*
X-0010886Y0015368D01*
Y0015201D01*
X-0011073Y0015257D02*
X-0011101Y0015201D01*
X-0011268D01*
X-0011296Y0015257D01*
Y0015479D01*
X-0011268Y0015535D01*
X-0011101D01*
X-0011073Y0015479D01*
X-0008708Y0022363D02*
X-0008652Y0022308D01*
X-0008541D01*
X-0008485Y0022363D01*
Y0022419D01*
X-0008597Y0022530D01*
X-0008485Y0022641D01*
X-0008708D01*
X-0008979Y0022474D02*
X-0008895Y0022308D01*
X-0009118Y0022474D02*
X-0008951D01*
X-0008895Y0022530D01*
Y0022585D01*
X-0008951Y0022641D01*
X-0009118D01*
Y0022308D01*
X-0008128Y0021854D02*
X-0008156Y0021910D01*
X-0008323D01*
X-0008351Y0021854D01*
Y0021799D01*
X-0008323Y0021743D01*
X-0008156D01*
X-0008128Y0021688D01*
Y0021632D01*
X-0008156Y0021576D01*
X-0008323D01*
X-0008351Y0021632D01*
X-0008594Y0021743D02*
X-0008761D01*
X-0008538Y0021576D02*
X-0008761D01*
Y0021910D01*
X-0008538D01*
X-0009032Y0021743D02*
X-0008948Y0021576D01*
X-0009171Y0021743D02*
X-0009004D01*
X-0008948Y0021799D01*
Y0021854D01*
X-0009004Y0021910D01*
X-0009171D01*
Y0021576D01*
X-0016306Y0019812D02*
Y0020035D01*
X-0016084Y0019923D01*
Y0019868D01*
X-0016417D01*
X-0016306Y0020417D02*
X-0016362D01*
X-0016417Y0020389D01*
Y0020278D01*
X-0016362Y0020250D01*
X-0016084D01*
Y0020222D02*
Y0020333D01*
X-0015751Y0018943D02*
Y0018777D01*
X-0015806Y0018749D01*
X-0015862D01*
X-0015917Y0018777D01*
Y0018943D01*
X-0015862Y0018971D01*
X-0015806D01*
X-0015584Y0018860D01*
X-0015917Y0019159D02*
Y0019270D01*
Y0019214D02*
X-0015584D01*
X-0015640Y0019270D01*
X-0015584Y0019513D02*
X-0015917D01*
X-0015862Y0019569D01*
X-0015640Y0019680D01*
X-0015584Y0019736D01*
X-0015917D01*
Y0020118D02*
X-0015862Y0020146D01*
X-0015640D01*
X-0015584Y0020118D01*
Y0019951D01*
X-0015640Y0019923D01*
X-0015862D01*
X-0015917Y0019951D01*
Y0020118D01*
X-0015862Y0020333D02*
X-0015917Y0020361D01*
Y0020528D01*
X-0015862Y0020556D01*
X-0015640D01*
X-0015584Y0020528D01*
Y0020361D01*
X-0015640Y0020333D01*
X-0015167Y0020944D02*
Y0021055D01*
Y0021000D02*
X-0014834D01*
X-0014890Y0021055D01*
X-0015001Y0003618D02*
Y0003451D01*
X-0015056Y0003423D01*
X-0015112D01*
X-0015167Y0003451D01*
Y0003618D01*
X-0015112Y0003646D01*
X-0015056D01*
X-0014834Y0003535D01*
X-0015167Y0003833D02*
Y0003944D01*
Y0003889D02*
X-0014834D01*
X-0014890Y0003944D01*
X-0000612Y0017035D02*
X-0000667Y0017007D01*
Y0016840D01*
X-0000612Y0016812D01*
X-0000501D01*
X-0000445Y0016868D01*
Y0017035D01*
X-0000334D01*
Y0016812D01*
X-0000556Y0017417D02*
X-0000612D01*
X-0000667Y0017389D01*
Y0017278D01*
X-0000612Y0017250D01*
X-0000334D01*
Y0017222D02*
Y0017333D01*
X-0000001Y0016298D02*
Y0016131D01*
X-0000056Y0016103D01*
X-0000112D01*
X-0000167Y0016131D01*
Y0016298D01*
X-0000112Y0016326D01*
X-0000056D01*
X0000166Y0016214D01*
Y0016513D02*
X-0000167D01*
X-0000112Y0016569D01*
X0000110Y0016680D01*
X0000166Y0016736D01*
X-0000167D01*
Y0017118D02*
X-0000112Y0017146D01*
X0000110D01*
X0000166Y0017118D01*
Y0016951D01*
X0000110Y0016923D01*
X-0000112D01*
X-0000167Y0016951D01*
Y0017118D01*
X-0000112Y0017333D02*
X-0000167Y0017361D01*
Y0017528D01*
X-0000112Y0017556D01*
X0000110D01*
X0000166Y0017528D01*
Y0017361D01*
X0000110Y0017333D01*
X0000832Y0017944D02*
Y0018055D01*
Y0018000D02*
X0001166D01*
X0001110Y0018055D01*
X0000999Y0011083D02*
Y0010917D01*
X0000944Y0010889D01*
X0000888D01*
X0000832Y0010917D01*
Y0011083D01*
X0000888Y0011111D01*
X0000944D01*
X0001166Y0011000D01*
X-0009459Y0023692D02*
X-0009348D01*
X-0009403D02*
Y0023359D01*
X-0009348Y0023414D01*
X-0009021Y0023526D02*
X-0009104Y0023692D01*
X-0008882Y0023526D02*
X-0009049D01*
X-0009104Y0023470D01*
Y0023414D01*
X-0009049Y0023359D01*
X-0008882D01*
Y0023692D01*
X-0009872Y0024146D02*
X-0009844Y0024090D01*
X-0009677D01*
X-0009649Y0024146D01*
Y0024201D01*
X-0009677Y0024257D01*
X-0009844D01*
X-0009872Y0024312D01*
Y0024368D01*
X-0009844Y0024423D01*
X-0009677D01*
X-0009649Y0024368D01*
X-0009406Y0024257D02*
X-0009239D01*
X-0009462Y0024423D02*
X-0009239D01*
Y0024090D01*
X-0009462D01*
X-0008968Y0024257D02*
X-0009052Y0024423D01*
X-0008829Y0024257D02*
X-0008996D01*
X-0009052Y0024201D01*
Y0024146D01*
X-0008996Y0024090D01*
X-0008829D01*
Y0024423D01*
X-0003092Y0017206D02*
Y0017317D01*
Y0017261D02*
X-0002759D01*
X-0002814Y0017317D01*
X-0003037Y0017560D02*
X-0003092Y0017588D01*
Y0017755D01*
X-0003037Y0017782D01*
X-0002814D01*
X-0002759Y0017755D01*
Y0017588D01*
X-0002814Y0017560D01*
X-0003092Y0017970D02*
Y0018081D01*
Y0018026D02*
X-0002759D01*
Y0017970D02*
Y0018081D01*
X-0004217Y0016544D02*
Y0016711D01*
X-0004162Y0016739D01*
X-0004051D01*
X-0003995Y0016711D01*
Y0016544D01*
X-0004051Y0016517D01*
X-0004106D01*
Y0016739D01*
X-0003995Y0016954D02*
X-0004217D01*
Y0016927D02*
Y0017121D01*
X-0004162Y0017149D01*
X-0003995D01*
X-0004217Y0017337D02*
Y0017448D01*
Y0017392D02*
X-0003884D01*
Y0017448D01*
X-0003995Y0017830D02*
Y0017719D01*
X-0004051Y0017691D01*
X-0004162D01*
X-0004217Y0017663D01*
Y0017858D01*
X-0004162Y0017886D01*
X-0004106Y0017858D01*
Y0017691D01*
X-0003884Y0018073D02*
X-0003995D01*
X-0004217Y0018184D01*
X-0003995Y0018296D01*
X-0003884D01*
X-0011887Y0019083D02*
X-0011942Y0019027D01*
Y0018916D01*
X-0011887Y0018860D01*
X-0011831D01*
X-0011720Y0018972D01*
X-0011609Y0018860D01*
Y0019083D01*
X-0011887Y0019270D02*
X-0011942Y0019298D01*
Y0019465D01*
X-0011887Y0019493D01*
X-0011664D01*
X-0011609Y0019465D01*
Y0019298D01*
X-0011664Y0019270D01*
X-0013132Y0017621D02*
Y0017454D01*
X-0013076Y0017398D01*
X-0013021D01*
X-0012965Y0017454D01*
Y0017621D01*
X-0013298D01*
X-0012965Y0017808D02*
X-0013298D01*
X-0013243Y0017864D01*
X-0013021Y0017975D01*
X-0012965Y0018031D01*
X-0013298D01*
X-0013132Y0018976D02*
Y0018809D01*
X-0013076Y0018753D01*
X-0013021D01*
X-0012965Y0018809D01*
Y0018976D01*
X-0013298D01*
X-0013187Y0019163D02*
Y0019386D01*
X-0013298Y0019163D02*
X-0013132D01*
X-0012965Y0019247D01*
Y0019302D01*
X-0013132Y0019386D01*
X-0013298D01*
X-0013243Y0019573D02*
X-0013298Y0019601D01*
Y0019768D01*
X-0013243Y0019796D01*
X-0013021D01*
X-0012965Y0019768D01*
Y0019601D01*
X-0013021Y0019573D01*
X-0011450Y0025500D02*
Y0026500D01*
X-0014550D01*
Y0025500D01*
X-0014000D01*
X-0013000D01*
X-0012000D01*
X-0011450D01*
X-0019250Y0022000D02*
X-0019500D01*
Y0026500D02*
X-0018500D01*
Y0024500D01*
X-0019500D01*
Y0026500D01*
X-0019000Y0017125D02*
X-0019625D01*
X-0020375Y0017875D01*
Y0019125D01*
X-0019625Y0019875D01*
X-0018875D01*
X-0018125D02*
X-0017125D01*
Y0017125D01*
X-0018000D01*
X-0017500Y0021500D02*
X-0019250D01*
Y0022500D01*
X-0017500D01*
Y0021500D01*
Y0022000D02*
X-0017250D01*
X-0007470Y0015905D02*
X-0007308Y0015661D01*
X-0007251Y0015375D01*
X-0007308Y0015089D01*
X-0007470Y0014845D01*
X-0008530D02*
X-0008692Y0015089D01*
X-0008749Y0015375D01*
X-0008692Y0015661D01*
X-0008530Y0015905D01*
X-0012500Y0021500D02*
X-0014250D01*
Y0022500D01*
X-0012500D01*
Y0021500D01*
Y0022000D02*
X-0012250D01*
X-0014250D02*
X-0014500D01*
X-0006000Y0025500D02*
X-0005450D01*
Y0026500D01*
X-0009550D01*
Y0025500D01*
X-0009500D01*
X-0009000D01*
X-0008000D01*
X-0007000D01*
X-0006000D01*
X-0009881Y0012381D02*
X-0010166Y0012192D01*
X-0010500Y0012125D01*
X-0010834Y0012192D01*
X-0011119Y0012381D01*
Y0013619D02*
X-0010834Y0013808D01*
X-0010500Y0013875D01*
X-0010166Y0013808D01*
X-0009881Y0013619D01*
Y0015381D02*
X-0010166Y0015192D01*
X-0010500Y0015125D01*
X-0010834Y0015192D01*
X-0011119Y0015381D01*
Y0016619D02*
X-0010834Y0016808D01*
X-0010500Y0016875D01*
X-0010166Y0016808D01*
X-0009881Y0016619D01*
X-0007500Y0021500D02*
X-0009250D01*
Y0022500D01*
X-0007500D01*
Y0021500D01*
Y0022000D02*
X-0007250D01*
X-0009250D02*
X-0009500D01*
X-0014500Y0004500D02*
X-0015500D01*
Y0020500D01*
X-0014500D01*
Y0004500D01*
X0001500Y0011500D02*
X0000500D01*
Y0017500D01*
X0001500D01*
Y0011500D01*
X-0010500Y0024500D02*
X-0008750D01*
Y0023500D01*
X-0010500D01*
Y0024500D01*
Y0024000D02*
X-0010750D01*
X-0008750D02*
X-0008500D01*
X-0003000Y0024500D02*
Y0024250D01*
X-0004000D01*
Y0024500D01*
X-0002500D02*
X-0003000D01*
X-0004000D01*
X-0004500D01*
Y0010500D01*
X-0002500D01*
Y0024500D01*
X-0013119Y0018381D02*
X-0013308Y0018666D01*
X-0013375Y0019000D01*
X-0013308Y0019334D01*
X-0013119Y0019619D01*
X-0011881D02*
X-0011692Y0019334D01*
X-0011625Y0019000D01*
X-0011692Y0018666D01*
X-0011881Y0018381D01*
X0001500Y0025000D02*
Y0025550D01*
X0000500D01*
Y0021450D01*
X0001500D01*
Y0021500D01*
Y0022000D01*
Y0023000D01*
Y0024000D01*
Y0025000D01*
G54D10*
X-0008000Y0016000D03*
X-0020000Y0022000D03*
X-0016750D03*
X-0015000D03*
X-0011750D03*
X-0010000D03*
X-0006750D03*
X-0008000Y0024000D03*
X-0011250D03*
X-0012500Y0018500D03*
X-0010000Y0013000D03*
Y0016000D03*
G54D11*
X-0008000Y0014750D03*
X-0012500Y0019500D03*
X-0011000Y0013000D03*
Y0016000D03*
G54D12*
X0001000D03*
Y0015000D03*
Y0014000D03*
Y0013000D03*
Y0012000D03*
X-0015000Y0019000D03*
Y0018000D03*
Y0017000D03*
Y0016000D03*
Y0015000D03*
Y0014000D03*
Y0013000D03*
Y0012000D03*
Y0010000D03*
Y0009000D03*
Y0008000D03*
Y0007000D03*
Y0006000D03*
Y0005000D03*
X-0019000Y0026000D03*
X-0005000Y0023000D03*
Y0022000D03*
Y0021000D03*
Y0020000D03*
Y0019000D03*
Y0018000D03*
Y0017000D03*
Y0016000D03*
Y0015000D03*
Y0014000D03*
Y0013000D03*
Y0012000D03*
Y0011000D03*
X-0002000D03*
Y0012000D03*
Y0013000D03*
Y0014000D03*
Y0015000D03*
Y0016000D03*
Y0017000D03*
Y0018000D03*
Y0019000D03*
Y0020000D03*
Y0021000D03*
Y0022000D03*
Y0023000D03*
Y0024000D03*
G54D13*
X0001000Y0017000D03*
X-0015000Y0020000D03*
Y0011000D03*
X-0019000Y0025000D03*
X-0005000Y0024000D03*
G54D14*
X-0013000Y0026000D03*
X-0012000D03*
X0001000Y0023000D03*
Y0024000D03*
Y0025000D03*
X-0008000Y0026000D03*
X-0007000D03*
X-0006000D03*
G54D15*
X-0014000D03*
X0001000Y0022000D03*
X-0009000Y0026000D03*
G54D16*
X-0019500Y0018500D03*
X-0018500Y0019500D03*
G54D17*
Y0017500D03*
M02*
