*
G04 Mass Parameters ***
*
G04 Image ***
*
%IND:\STUDY\ORCAD\SEMI 5\UPDATED\GASLEVELSENSUPDATED-1.DRD*%
%ICAS*%
%MOIN*%
%IPPOS*%
%ASAXBY*%
G74*%FSLAN2X34Y34*%
*
G04 Aperture Definitions ***
*
%ADD10C,0.0520*%
%ADD11R,0.0520X0.0520*%
%ADD12C,0.0580*%
%ADD13R,0.0580X0.0580*%
%ADD14C,0.0620*%
%ADD15R,0.0620X0.0620*%
%ADD16C,0.0600*%
%ADD17R,0.0600X0.0600*%
%ADD18C,0.1100*%
%ADD19C,0.0100*%
%ADD20C,0.0200*%
%ADD21C,0.0500*%
%ADD22C,0.1000*%
%ADD23C,0.0720*%
%ADD24R,0.0720X0.0720*%
%ADD25C,0.0780*%
%ADD26R,0.0780X0.0780*%
%ADD27C,0.0820*%
%ADD28R,0.0820X0.0820*%
%ADD29C,0.0800*%
%ADD30R,0.0800X0.0800*%
%ADD31C,0.1400*%
%ADD32C,0.0500*%
%ADD33C,0.0750*%
%ADD34C,0.1050*%
%ADD35C,0.0550*%
%ADD36C,0.0080*%
*
G04 Plot Data ***
*
G54D19*
G01X0031875Y-0016583D02*
X0031958Y-0016417D01*
Y-0016250D01*
X0031875Y-0016083D01*
X0031375D01*
X0031292Y-0016250D01*
Y-0016417D01*
X0031375Y-0016583D01*
X0031875D01*
X0031958Y-0016750D01*
Y-0016917D01*
X0031875Y-0017083D01*
X0031375D01*
X0031292Y-0016917D01*
Y-0016750D01*
X0031375Y-0016583D01*
X0030925D02*
X0031008Y-0016417D01*
Y-0016250D01*
X0030925Y-0016083D01*
X0030425D01*
X0030342Y-0016250D01*
Y-0016417D01*
X0030425Y-0016583D01*
X0030925D01*
X0031008Y-0016750D01*
Y-0016917D01*
X0030925Y-0017083D01*
X0030425D01*
X0030342Y-0016917D01*
Y-0016750D01*
X0030425Y-0016583D01*
X0019562Y-0017083D02*
X0018979D01*
Y-0016083D01*
X0018696Y-0016750D02*
X0018029D01*
X0018696Y-0017083D02*
Y-0016583D01*
X0018446Y-0016083D01*
X0018279D01*
X0018029Y-0016583D01*
Y-0017083D01*
X0017412D02*
Y-0016083D01*
X0017746D02*
X0017079D01*
X0016212Y-0017083D02*
X0016129Y-0016917D01*
Y-0016250D01*
X0016212Y-0016083D01*
X0016712D01*
X0016796Y-0016250D01*
Y-0016917D01*
X0016712Y-0017083D01*
X0016212D01*
X0015512D02*
Y-0016083D01*
X0015846D02*
X0015179D01*
X0031958Y-0015000D02*
X0031514D01*
X0031736Y-0014556D01*
X0031847D01*
Y-0015222D01*
X0018064D02*
X0017953Y-0015111D01*
X0017897Y-0015000D01*
Y-0014778D01*
X0017953Y-0014667D01*
X0018064Y-0014556D01*
X0018175D01*
X0018286Y-0014667D01*
X0018342Y-0014778D01*
Y-0015000D01*
X0018286Y-0015111D01*
X0018175Y-0015222D01*
X0018064D01*
X0017642D02*
X0017419D01*
X0017530D02*
Y-0014556D01*
X0017419Y-0014667D01*
X0017053Y-0015222D02*
X0016831D01*
X0016942D02*
Y-0014556D01*
X0016831Y-0014667D01*
X0016353Y-0015222D02*
X0016464D01*
Y-0015111D01*
X0016353D01*
Y-0015222D01*
X0015708D02*
X0015597Y-0015111D01*
X0015542Y-0015000D01*
Y-0014778D01*
X0015597Y-0014667D01*
X0015708Y-0014556D01*
X0015820D01*
X0015931Y-0014667D01*
X0015986Y-0014778D01*
Y-0015000D01*
X0015931Y-0015111D01*
X0015820Y-0015222D01*
X0015708D01*
X0031958Y-0013722D02*
X0031736D01*
X0031847D02*
Y-0013056D01*
X0031736Y-0013167D01*
X0031369Y-0013722D02*
X0031147D01*
X0031258D02*
Y-0013056D01*
X0031147Y-0013167D01*
X0018342Y-0013722D02*
X0017897D01*
X0018342Y-0013278D01*
Y-0013167D01*
X0018286Y-0013056D01*
X0017953D01*
X0017897Y-0013167D01*
X0017642Y-0013500D02*
X0017197D01*
X0017419Y-0013056D01*
X0017530D01*
Y-0013722D01*
X0016664D02*
X0016553Y-0013611D01*
X0016497Y-0013500D01*
Y-0013278D01*
X0016553Y-0013167D01*
X0016664Y-0013056D01*
X0016775D01*
X0016886Y-0013167D01*
X0016942Y-0013278D01*
Y-0013500D01*
X0016886Y-0013611D01*
X0016775Y-0013722D01*
X0016664D01*
X0016131D02*
X0016242D01*
Y-0013611D01*
X0016131D01*
Y-0013722D01*
X0015486D02*
X0015375Y-0013611D01*
X0015319Y-0013500D01*
Y-0013278D01*
X0015375Y-0013167D01*
X0015486Y-0013056D01*
X0015597D01*
X0015708Y-0013167D01*
X0015764Y-0013278D01*
Y-0013500D01*
X0015708Y-0013611D01*
X0015597Y-0013722D01*
X0015486D01*
X0031514Y-0012111D02*
X0031625Y-0012222D01*
X0031847D01*
X0031958Y-0012111D01*
Y-0012000D01*
X0031736Y-0011778D01*
X0031958Y-0011556D01*
X0031514D01*
X0018286Y-0011889D02*
X0017953D01*
X0017897Y-0011778D01*
Y-0011667D01*
X0017953Y-0011556D01*
X0018286D01*
X0018342Y-0011667D01*
Y-0011778D01*
X0018119Y-0012222D01*
X0017197Y-0012111D02*
X0017308Y-0012222D01*
X0017530D01*
X0017642Y-0012111D01*
Y-0012000D01*
X0017419Y-0011778D01*
X0017642Y-0011556D01*
X0017197D01*
X0016664Y-0012222D02*
X0016553Y-0012111D01*
X0016497Y-0012000D01*
Y-0011778D01*
X0016553Y-0011667D01*
X0016664Y-0011556D01*
X0016775D01*
X0016886Y-0011667D01*
X0016942Y-0011778D01*
Y-0012000D01*
X0016886Y-0012111D01*
X0016775Y-0012222D01*
X0016664D01*
X0016131D02*
X0016242D01*
Y-0012111D01*
X0016131D01*
Y-0012222D01*
X0015486D02*
X0015375Y-0012111D01*
X0015319Y-0012000D01*
Y-0011778D01*
X0015375Y-0011667D01*
X0015486Y-0011556D01*
X0015597D01*
X0015708Y-0011667D01*
X0015764Y-0011778D01*
Y-0012000D01*
X0015708Y-0012111D01*
X0015597Y-0012222D01*
X0015486D01*
X0031958Y-0010500D02*
X0031514D01*
X0031736Y-0010056D01*
X0031847D01*
Y-0010722D01*
X0031258D02*
X0030814D01*
X0031258Y-0010278D01*
Y-0010167D01*
X0031203Y-0010056D01*
X0030869D01*
X0030814Y-0010167D01*
X0018008Y-0010722D02*
X0018342Y-0010056D01*
X0017897D01*
X0017197Y-0010611D02*
X0017308Y-0010722D01*
X0017530D01*
X0017642Y-0010611D01*
Y-0010500D01*
X0017419Y-0010278D01*
X0017642Y-0010056D01*
X0017197D01*
X0016664Y-0010722D02*
X0016553Y-0010611D01*
X0016497Y-0010500D01*
Y-0010278D01*
X0016553Y-0010167D01*
X0016664Y-0010056D01*
X0016775D01*
X0016886Y-0010167D01*
X0016942Y-0010278D01*
Y-0010500D01*
X0016886Y-0010611D01*
X0016775Y-0010722D01*
X0016664D01*
X0016131D02*
X0016242D01*
Y-0010611D01*
X0016131D01*
Y-0010722D01*
X0015486D02*
X0015375Y-0010611D01*
X0015319Y-0010500D01*
Y-0010278D01*
X0015375Y-0010167D01*
X0015486Y-0010056D01*
X0015597D01*
X0015708Y-0010167D01*
X0015764Y-0010278D01*
Y-0010500D01*
X0015708Y-0010611D01*
X0015597Y-0010722D01*
X0015486D01*
X0031903Y-0008889D02*
X0031958Y-0008778D01*
Y-0008667D01*
X0031903Y-0008556D01*
X0031569D01*
X0031514Y-0008667D01*
Y-0008778D01*
X0031569Y-0008889D01*
X0031903D01*
X0031958Y-0009000D01*
Y-0009111D01*
X0031903Y-0009222D01*
X0031569D01*
X0031514Y-0009111D01*
Y-0009000D01*
X0031569Y-0008889D01*
X0031258Y-0009222D02*
X0030814D01*
X0031258Y-0008778D01*
Y-0008667D01*
X0031203Y-0008556D01*
X0030869D01*
X0030814Y-0008667D01*
X0018342Y-0009000D02*
X0017897D01*
X0018119Y-0008556D01*
X0018230D01*
Y-0009222D01*
X0017197Y-0009111D02*
X0017308Y-0009222D01*
X0017530D01*
X0017642Y-0009111D01*
Y-0009000D01*
X0017419Y-0008778D01*
X0017642Y-0008556D01*
X0017197D01*
X0016664Y-0009222D02*
X0016553Y-0009111D01*
X0016497Y-0009000D01*
Y-0008778D01*
X0016553Y-0008667D01*
X0016664Y-0008556D01*
X0016775D01*
X0016886Y-0008667D01*
X0016942Y-0008778D01*
Y-0009000D01*
X0016886Y-0009111D01*
X0016775Y-0009222D01*
X0016664D01*
X0016131D02*
X0016242D01*
Y-0009111D01*
X0016131D01*
Y-0009222D01*
X0015486D02*
X0015375Y-0009111D01*
X0015319Y-0009000D01*
Y-0008778D01*
X0015375Y-0008667D01*
X0015486Y-0008556D01*
X0015597D01*
X0015708Y-0008667D01*
X0015764Y-0008778D01*
Y-0009000D01*
X0015708Y-0009111D01*
X0015597Y-0009222D01*
X0015486D01*
X0031569Y-0007389D02*
X0031903D01*
X0031958Y-0007500D01*
Y-0007611D01*
X0031903Y-0007722D01*
X0031569D01*
X0031514Y-0007611D01*
Y-0007500D01*
X0031736Y-0007056D01*
X0031258Y-0007722D02*
X0031036D01*
X0031147D02*
Y-0007056D01*
X0031036Y-0007167D01*
X0018342Y-0007722D02*
X0018119D01*
X0018230D02*
Y-0007056D01*
X0018119Y-0007167D01*
X0017308Y-0007611D02*
X0017419Y-0007722D01*
X0017642D01*
X0017753Y-0007611D01*
Y-0007500D01*
X0017530Y-0007278D01*
X0017753Y-0007056D01*
X0017308D01*
X0016775Y-0007722D02*
X0016664Y-0007611D01*
X0016608Y-0007500D01*
Y-0007278D01*
X0016664Y-0007167D01*
X0016775Y-0007056D01*
X0016886D01*
X0016997Y-0007167D01*
X0017053Y-0007278D01*
Y-0007500D01*
X0016997Y-0007611D01*
X0016886Y-0007722D01*
X0016775D01*
X0016242D02*
X0016353D01*
Y-0007611D01*
X0016242D01*
Y-0007722D01*
X0015597D02*
X0015486Y-0007611D01*
X0015431Y-0007500D01*
Y-0007278D01*
X0015486Y-0007167D01*
X0015597Y-0007056D01*
X0015708D01*
X0015819Y-0007167D01*
X0015875Y-0007278D01*
Y-0007500D01*
X0015819Y-0007611D01*
X0015708Y-0007722D01*
X0015597D01*
X0031958Y-0006222D02*
X0031514D01*
X0031958Y-0005778D01*
Y-0005667D01*
X0031903Y-0005556D01*
X0031569D01*
X0031514Y-0005667D01*
X0018286Y-0005889D02*
X0018342Y-0005778D01*
Y-0005667D01*
X0018286Y-0005556D01*
X0017953D01*
X0017897Y-0005667D01*
Y-0005778D01*
X0017953Y-0005889D01*
X0018286D01*
X0018342Y-0006000D01*
Y-0006111D01*
X0018286Y-0006222D01*
X0017953D01*
X0017897Y-0006111D01*
Y-0006000D01*
X0017953Y-0005889D01*
X0017642Y-0006222D02*
X0017197D01*
X0017642Y-0005778D01*
Y-0005667D01*
X0017586Y-0005556D01*
X0017253D01*
X0017197Y-0005667D01*
X0016664Y-0006222D02*
X0016553Y-0006111D01*
X0016497Y-0006000D01*
Y-0005778D01*
X0016553Y-0005667D01*
X0016664Y-0005556D01*
X0016775D01*
X0016886Y-0005667D01*
X0016942Y-0005778D01*
Y-0006000D01*
X0016886Y-0006111D01*
X0016775Y-0006222D01*
X0016664D01*
X0016131D02*
X0016242D01*
Y-0006111D01*
X0016131D01*
Y-0006222D01*
X0015486D02*
X0015375Y-0006111D01*
X0015319Y-0006000D01*
Y-0005778D01*
X0015375Y-0005667D01*
X0015486Y-0005556D01*
X0015597D01*
X0015708Y-0005667D01*
X0015764Y-0005778D01*
Y-0006000D01*
X0015708Y-0006111D01*
X0015597Y-0006222D01*
X0015486D01*
X0040362Y-0004083D02*
X0039862D01*
X0040529Y-0004583D02*
X0039862D01*
Y-0003583D01*
X0040529D01*
X0039246Y-0004583D02*
Y-0003583D01*
X0039579D02*
X0038912D01*
X0038046Y-0004583D02*
X0037962Y-0004417D01*
Y-0003750D01*
X0038046Y-0003583D01*
X0038546D01*
X0038629Y-0003750D01*
Y-0004417D01*
X0038546Y-0004583D01*
X0038046D01*
X0037679Y-0003583D02*
Y-0004583D01*
X0037512Y-0004417D01*
X0037179Y-0003750D01*
X0037012Y-0003583D01*
Y-0004583D01*
X0031175D02*
Y-0004083D01*
X0031508Y-0003583D02*
X0031258Y-0004083D01*
X0031092D01*
X0030842Y-0003583D01*
X0030225Y-0004583D02*
Y-0003583D01*
X0030558D02*
X0029892D01*
X0029275Y-0004250D02*
X0029608Y-0004583D01*
X0028942Y-0004417D02*
X0029025Y-0004583D01*
X0029358D01*
X0029442Y-0004417D01*
X0029608Y-0004250D01*
Y-0003750D01*
X0029525Y-0003583D01*
X0029025D01*
X0028942Y-0003750D01*
Y-0004417D01*
X0024658Y-0004583D02*
X0024075D01*
Y-0003583D01*
X0023208Y-0004583D02*
X0023125Y-0004417D01*
Y-0003750D01*
X0023208Y-0003583D01*
X0023708D01*
X0023792Y-0003750D01*
Y-0004417D01*
X0023708Y-0004583D01*
X0023208D01*
X0022508D02*
Y-0003583D01*
X0022842D02*
X0022175D01*
X0016837Y-0004583D02*
Y-0003583D01*
X0016671Y-0003750D01*
X0016504Y-0004083D01*
X0016337Y-0003750D01*
X0016171Y-0003583D01*
Y-0004583D01*
X0015887Y-0004250D02*
X0015221D01*
X0015887Y-0004583D02*
Y-0004083D01*
X0015637Y-0003583D01*
X0015471D01*
X0015221Y-0004083D01*
Y-0004583D01*
X0014937D02*
X0014604D01*
X0014771D02*
Y-0003583D01*
X0014937D02*
X0014604D01*
X0013571Y-0004583D02*
Y-0003583D01*
X0013487Y-0004583D02*
X0013987D01*
X0014154Y-0004250D01*
Y-0003917D01*
X0013987Y-0003583D01*
X0013487D01*
X0010400Y-0004583D02*
Y-0003583D01*
X0010233Y-0003750D01*
X0010067Y-0004083D01*
X0009900Y-0003750D01*
X0009733Y-0003583D01*
Y-0004583D01*
X0009117D02*
Y-0004083D01*
X0009450Y-0003583D02*
X0009200Y-0004083D01*
X0009033D01*
X0008783Y-0003583D01*
X0008500Y-0003750D02*
X0008417Y-0003583D01*
X0007917D01*
X0007833Y-0003750D01*
Y-0003917D01*
X0007917Y-0004083D01*
X0008417D01*
X0008500Y-0004250D01*
Y-0004417D01*
X0008417Y-0004583D01*
X0007917D01*
X0007833Y-0004417D01*
X0030687Y-0002583D02*
Y-0001583D01*
X0031021D02*
X0030354D01*
X0029821Y-0002083D02*
X0030071Y-0002583D01*
X0029404Y-0002083D02*
X0029904D01*
X0030071Y-0001917D01*
Y-0001750D01*
X0029904Y-0001583D01*
X0029404D01*
Y-0002583D01*
X0029121Y-0002250D02*
X0028454D01*
X0029121Y-0002583D02*
Y-0002083D01*
X0028871Y-0001583D01*
X0028704D01*
X0028454Y-0002083D01*
Y-0002583D01*
X0028171Y-0002083D02*
X0027504D01*
X0028171Y-0002583D02*
Y-0001583D01*
X0027504Y-0002583D02*
Y-0001583D01*
X0027221Y-0002417D02*
X0027137Y-0002583D01*
X0026637D01*
X0026554Y-0002417D01*
Y-0001750D01*
X0026637Y-0001583D01*
X0027137D01*
X0027221Y-0001750D01*
X0024946Y-0002583D02*
X0024362D01*
Y-0001583D01*
X0024079Y-0002583D02*
X0023496D01*
Y-0001583D01*
X0023212Y-0002583D02*
X0022879D01*
X0023046D02*
Y-0001583D01*
X0023212D02*
X0022879D01*
X0022179Y-0002083D02*
X0022429Y-0002583D01*
X0021762Y-0002083D02*
X0022262D01*
X0022429Y-0001917D01*
Y-0001750D01*
X0022262Y-0001583D01*
X0021762D01*
Y-0002583D01*
X0020896D02*
Y-0001583D01*
X0020812Y-0002583D02*
X0021312D01*
X0021479Y-0002250D01*
Y-0001917D01*
X0021312Y-0001583D01*
X0020812D01*
X-0009000Y0020250D02*
Y0020000D01*
X-0008750Y0020250D02*
X-0009000D01*
X-0008750Y0019750D02*
Y0020250D01*
X-0008500Y0019750D02*
X-0008750D01*
X-0008500Y0020000D02*
Y0019750D01*
X-0009000Y0020000D02*
X-0008500D01*
X-0009000Y0015250D02*
Y0015000D01*
X-0008750Y0015250D02*
X-0009000D01*
X-0008750Y0014750D02*
Y0015250D01*
X-0008500Y0014750D02*
X-0008750D01*
X-0008500Y0015000D02*
Y0014750D01*
X-0009000Y0015000D02*
X-0008500D01*
X0008825Y-0014900D02*
Y-0015100D01*
X0008975Y-0014750D02*
X0008825Y-0014900D01*
X0009175Y-0014750D02*
X0008975D01*
X0009325Y-0014900D02*
X0009175Y-0014750D01*
X0009325Y-0015100D02*
Y-0014900D01*
X0009175Y-0015250D02*
X0009325Y-0015100D01*
X0008975Y-0015250D02*
X0009175D01*
X0008825Y-0015100D02*
X0008975Y-0015250D01*
X0008825Y-0013250D02*
Y-0013750D01*
X0009325Y-0013250D02*
X0008825D01*
X0009325Y-0013750D02*
Y-0013250D01*
X0008825Y-0013750D02*
X0009325D01*
Y-0013500D02*
X0008825D01*
X0009075Y-0013250D02*
Y-0013750D01*
X0008825Y-0011750D02*
Y-0012250D01*
X0009325Y-0011750D02*
X0008825D01*
X0009325Y-0012250D02*
Y-0011750D01*
X0008825Y-0012250D02*
X0009325D01*
Y-0011750D02*
X0008825Y-0012250D01*
X0009325D02*
X0008825Y-0011750D01*
X0009075Y-0010250D02*
X0008825Y-0010500D01*
X0009325D02*
X0009075Y-0010250D01*
Y-0010750D02*
X0009325Y-0010500D01*
X0008825D02*
X0009075Y-0010750D01*
X0009325Y-0009000D02*
X0008825D01*
X0009075Y-0008750D02*
Y-0009250D01*
X0009325Y-0007250D02*
X0008825Y-0007750D01*
X0009325D02*
X0008825Y-0007250D01*
Y-0005750D02*
Y-0006000D01*
X0009075Y-0005750D02*
X0008825D01*
X0009075Y-0006250D02*
Y-0005750D01*
X0009325Y-0006250D02*
X0009075D01*
X0009325Y-0006000D02*
Y-0006250D01*
X0008825Y-0006000D02*
X0009325D01*
X0044550Y-0017800D02*
X0007200D01*
X0044500Y-0017750D02*
X0007250D01*
X0044500Y-0015750D02*
X0007250D01*
X0044500Y-0014250D02*
X0007250D01*
X0044500Y-0012750D02*
X0007250D01*
X0044500Y-0011250D02*
X0007250D01*
X0044500Y-0009750D02*
X0007250D01*
X0044500Y-0008250D02*
X0007250D01*
X0044500Y-0006750D02*
X0007250D01*
X0044500Y-0005250D02*
X0007250D01*
X0044500Y-0005200D02*
X0007250D01*
X0044500Y-0003250D02*
X0007250D01*
X0044500Y-0003200D02*
X0007250D01*
X0044500Y-0001250D02*
X0007250D01*
X0044550Y-0001200D02*
X0007200D01*
X0044550Y-0017750D02*
Y-0001250D01*
X0044500Y-0017750D02*
Y-0001250D01*
X0032958Y-0017750D02*
Y-0003250D01*
X0027408Y-0017750D02*
Y-0003250D01*
X0019342Y-0015750D02*
Y-0003250D01*
X0010950Y-0015750D02*
Y-0003250D01*
X0010900Y-0015750D02*
Y-0003250D01*
X0007200Y-0017750D02*
Y-0001250D01*
X0007250Y-0017750D02*
Y-0001250D01*
X0002750Y0004100D02*
Y0003900D01*
X0002900Y0004250D02*
X0002750Y0004100D01*
X0003100Y0004250D02*
X0002900D01*
X0003250Y0004100D02*
X0003100Y0004250D01*
X0003250Y0003900D02*
Y0004100D01*
X0003100Y0003750D02*
X0003250Y0003900D01*
X0002900Y0003750D02*
X0003100D01*
X0002750Y0003900D02*
X0002900Y0003750D01*
X-0021250Y0004100D02*
Y0003900D01*
X-0021100Y0004250D02*
X-0021250Y0004100D01*
X-0020900Y0004250D02*
X-0021100D01*
X-0020750Y0004100D02*
X-0020900Y0004250D01*
X-0020750Y0003900D02*
Y0004100D01*
X-0020900Y0003750D02*
X-0020750Y0003900D01*
X-0021100Y0003750D02*
X-0020900D01*
X-0021250Y0003900D02*
X-0021100Y0003750D01*
X0002750Y0027100D02*
Y0026900D01*
X0002900Y0027250D02*
X0002750Y0027100D01*
X0003100Y0027250D02*
X0002900D01*
X0003250Y0027100D02*
X0003100Y0027250D01*
X0003250Y0026900D02*
Y0027100D01*
X0003100Y0026750D02*
X0003250Y0026900D01*
X0002900Y0026750D02*
X0003100D01*
X0002750Y0026900D02*
X0002900Y0026750D01*
X-0021250Y0027100D02*
Y0026900D01*
X-0021100Y0027250D02*
X-0021250Y0027100D01*
X-0020900Y0027250D02*
X-0021100D01*
X-0020750Y0027100D02*
X-0020900Y0027250D01*
X-0020750Y0026900D02*
Y0027100D01*
X-0020900Y0026750D02*
X-0020750Y0026900D01*
X-0021100Y0026750D02*
X-0020900D01*
X-0021250Y0026900D02*
X-0021100Y0026750D01*
X-0007750Y0015000D02*
X-0008250Y0014500D01*
X-0007750D02*
X-0008250Y0015000D01*
X-0007750Y0016250D02*
X-0008250Y0015750D01*
X-0007750D02*
X-0008250Y0016250D01*
X-0014250Y0026250D02*
Y0025750D01*
X-0013750Y0026250D02*
X-0014250D01*
X-0013750Y0025750D02*
Y0026250D01*
X-0014250Y0025750D02*
X-0013750D01*
Y0026000D02*
X-0014250D01*
X-0014000Y0026250D02*
Y0025750D01*
X-0013250Y0026250D02*
Y0025750D01*
X-0012750Y0026250D02*
X-0013250D01*
X-0012750Y0025750D02*
Y0026250D01*
X-0013250Y0025750D02*
X-0012750D01*
Y0026000D02*
X-0013250D01*
X-0013000Y0026250D02*
Y0025750D01*
X-0012250Y0026250D02*
Y0025750D01*
X-0011750Y0026250D02*
X-0012250D01*
X-0011750Y0025750D02*
Y0026250D01*
X-0012250Y0025750D02*
X-0011750D01*
Y0026000D02*
X-0012250D01*
X-0012000Y0026250D02*
Y0025750D01*
X-0019750Y0022250D02*
X-0020250Y0021750D01*
X-0019750D02*
X-0020250Y0022250D01*
X-0016500D02*
X-0017000Y0021750D01*
X-0016500D02*
X-0017000Y0022250D01*
X-0014750D02*
X-0015250Y0021750D01*
X-0014750D02*
X-0015250Y0022250D01*
X-0011500D02*
X-0012000Y0021750D01*
X-0011500D02*
X-0012000Y0022250D01*
X-0009750D02*
X-0010250Y0021750D01*
X-0009750D02*
X-0010250Y0022250D01*
X-0006500D02*
X-0007000Y0021750D01*
X-0006500D02*
X-0007000Y0022250D01*
X-0018750Y0017750D02*
Y0017250D01*
X-0018250Y0017750D02*
X-0018750D01*
X-0018250Y0017250D02*
Y0017750D01*
X-0018750Y0017250D02*
X-0018250D01*
Y0017750D02*
X-0018750Y0017250D01*
X-0018250D02*
X-0018750Y0017750D01*
X-0019750Y0018750D02*
Y0018250D01*
X-0019250Y0018750D02*
X-0019750D01*
X-0019250Y0018250D02*
Y0018750D01*
X-0019750Y0018250D02*
X-0019250D01*
Y0018750D02*
X-0019750Y0018250D01*
X-0019250D02*
X-0019750Y0018750D01*
X-0018750Y0019750D02*
Y0019250D01*
X-0018250Y0019750D02*
X-0018750D01*
X-0018250Y0019250D02*
Y0019750D01*
X-0018750Y0019250D02*
X-0018250D01*
Y0019750D02*
X-0018750Y0019250D01*
X-0018250D02*
X-0018750Y0019750D01*
X-0007750Y0024250D02*
X-0008250Y0023750D01*
X-0007750D02*
X-0008250Y0024250D01*
X-0011000D02*
X-0011500Y0023750D01*
X-0011000D02*
X-0011500Y0024250D01*
X0001000Y0017250D02*
X0000750Y0017000D01*
X0001250D02*
X0001000Y0017250D01*
Y0016750D02*
X0001250Y0017000D01*
X0000750D02*
X0001000Y0016750D01*
Y0016250D02*
X0000750Y0016000D01*
X0001250D02*
X0001000Y0016250D01*
Y0015750D02*
X0001250Y0016000D01*
X0000750D02*
X0001000Y0015750D01*
Y0015250D02*
X0000750Y0015000D01*
X0001250D02*
X0001000Y0015250D01*
Y0014750D02*
X0001250Y0015000D01*
X0000750D02*
X0001000Y0014750D01*
Y0014250D02*
X0000750Y0014000D01*
X0001250D02*
X0001000Y0014250D01*
Y0013750D02*
X0001250Y0014000D01*
X0000750D02*
X0001000Y0013750D01*
Y0013250D02*
X0000750Y0013000D01*
X0001250D02*
X0001000Y0013250D01*
Y0012750D02*
X0001250Y0013000D01*
X0000750D02*
X0001000Y0012750D01*
Y0012250D02*
X0000750Y0012000D01*
X0001250D02*
X0001000Y0012250D01*
Y0011750D02*
X0001250Y0012000D01*
X0000750D02*
X0001000Y0011750D01*
X-0015000Y0020250D02*
X-0015250Y0020000D01*
X-0014750D02*
X-0015000Y0020250D01*
Y0019750D02*
X-0014750Y0020000D01*
X-0015250D02*
X-0015000Y0019750D01*
Y0019250D02*
X-0015250Y0019000D01*
X-0014750D02*
X-0015000Y0019250D01*
Y0018750D02*
X-0014750Y0019000D01*
X-0015250D02*
X-0015000Y0018750D01*
Y0018250D02*
X-0015250Y0018000D01*
X-0014750D02*
X-0015000Y0018250D01*
Y0017750D02*
X-0014750Y0018000D01*
X-0015250D02*
X-0015000Y0017750D01*
Y0017250D02*
X-0015250Y0017000D01*
X-0014750D02*
X-0015000Y0017250D01*
Y0016750D02*
X-0014750Y0017000D01*
X-0015250D02*
X-0015000Y0016750D01*
Y0016250D02*
X-0015250Y0016000D01*
X-0014750D02*
X-0015000Y0016250D01*
Y0015750D02*
X-0014750Y0016000D01*
X-0015250D02*
X-0015000Y0015750D01*
Y0015250D02*
X-0015250Y0015000D01*
X-0014750D02*
X-0015000Y0015250D01*
Y0014750D02*
X-0014750Y0015000D01*
X-0015250D02*
X-0015000Y0014750D01*
Y0014250D02*
X-0015250Y0014000D01*
X-0014750D02*
X-0015000Y0014250D01*
Y0013750D02*
X-0014750Y0014000D01*
X-0015250D02*
X-0015000Y0013750D01*
Y0013250D02*
X-0015250Y0013000D01*
X-0014750D02*
X-0015000Y0013250D01*
Y0012750D02*
X-0014750Y0013000D01*
X-0015250D02*
X-0015000Y0012750D01*
Y0012250D02*
X-0015250Y0012000D01*
X-0014750D02*
X-0015000Y0012250D01*
Y0011750D02*
X-0014750Y0012000D01*
X-0015250D02*
X-0015000Y0011750D01*
Y0011250D02*
X-0015250Y0011000D01*
X-0014750D02*
X-0015000Y0011250D01*
Y0010750D02*
X-0014750Y0011000D01*
X-0015250D02*
X-0015000Y0010750D01*
Y0010250D02*
X-0015250Y0010000D01*
X-0014750D02*
X-0015000Y0010250D01*
Y0009750D02*
X-0014750Y0010000D01*
X-0015250D02*
X-0015000Y0009750D01*
Y0009250D02*
X-0015250Y0009000D01*
X-0014750D02*
X-0015000Y0009250D01*
Y0008750D02*
X-0014750Y0009000D01*
X-0015250D02*
X-0015000Y0008750D01*
Y0008250D02*
X-0015250Y0008000D01*
X-0014750D02*
X-0015000Y0008250D01*
Y0007750D02*
X-0014750Y0008000D01*
X-0015250D02*
X-0015000Y0007750D01*
Y0007250D02*
X-0015250Y0007000D01*
X-0014750D02*
X-0015000Y0007250D01*
Y0006750D02*
X-0014750Y0007000D01*
X-0015250D02*
X-0015000Y0006750D01*
Y0006250D02*
X-0015250Y0006000D01*
X-0014750D02*
X-0015000Y0006250D01*
Y0005750D02*
X-0014750Y0006000D01*
X-0015250D02*
X-0015000Y0005750D01*
Y0005250D02*
X-0015250Y0005000D01*
X-0014750D02*
X-0015000Y0005250D01*
Y0004750D02*
X-0014750Y0005000D01*
X-0015250D02*
X-0015000Y0004750D01*
X0000750Y0022250D02*
Y0021750D01*
X0001250Y0022250D02*
X0000750D01*
X0001250Y0021750D02*
Y0022250D01*
X0000750Y0021750D02*
X0001250D01*
Y0022000D02*
X0000750D01*
X0001000Y0022250D02*
Y0021750D01*
X0000750Y0023250D02*
Y0022750D01*
X0001250Y0023250D02*
X0000750D01*
X0001250Y0022750D02*
Y0023250D01*
X0000750Y0022750D02*
X0001250D01*
Y0023000D02*
X0000750D01*
X0001000Y0023250D02*
Y0022750D01*
X0000750Y0024250D02*
Y0023750D01*
X0001250Y0024250D02*
X0000750D01*
X0001250Y0023750D02*
Y0024250D01*
X0000750Y0023750D02*
X0001250D01*
Y0024000D02*
X0000750D01*
X0001000Y0024250D02*
Y0023750D01*
X0000750Y0025250D02*
Y0024750D01*
X0001250Y0025250D02*
X0000750D01*
X0001250Y0024750D02*
Y0025250D01*
X0000750Y0024750D02*
X0001250D01*
Y0025000D02*
X0000750D01*
X0001000Y0025250D02*
Y0024750D01*
X-0009250Y0026250D02*
Y0025750D01*
X-0008750Y0026250D02*
X-0009250D01*
X-0008750Y0025750D02*
Y0026250D01*
X-0009250Y0025750D02*
X-0008750D01*
Y0026000D02*
X-0009250D01*
X-0009000Y0026250D02*
Y0025750D01*
X-0008250Y0026250D02*
Y0025750D01*
X-0007750Y0026250D02*
X-0008250D01*
X-0007750Y0025750D02*
Y0026250D01*
X-0008250Y0025750D02*
X-0007750D01*
Y0026000D02*
X-0008250D01*
X-0008000Y0026250D02*
Y0025750D01*
X-0007250Y0026250D02*
Y0025750D01*
X-0006750Y0026250D02*
X-0007250D01*
X-0006750Y0025750D02*
Y0026250D01*
X-0007250Y0025750D02*
X-0006750D01*
Y0026000D02*
X-0007250D01*
X-0007000Y0026250D02*
Y0025750D01*
X-0006250Y0026250D02*
Y0025750D01*
X-0005750Y0026250D02*
X-0006250D01*
X-0005750Y0025750D02*
Y0026250D01*
X-0006250Y0025750D02*
X-0005750D01*
Y0026000D02*
X-0006250D01*
X-0006000Y0026250D02*
Y0025750D01*
X-0019000Y0025250D02*
X-0019250Y0025000D01*
X-0018750D02*
X-0019000Y0025250D01*
Y0024750D02*
X-0018750Y0025000D01*
X-0019250D02*
X-0019000Y0024750D01*
Y0026250D02*
X-0019250Y0026000D01*
X-0018750D02*
X-0019000Y0026250D01*
Y0025750D02*
X-0018750Y0026000D01*
X-0019250D02*
X-0019000Y0025750D01*
X-0004750Y0024000D02*
X-0005250D01*
X-0005000Y0024250D02*
Y0023750D01*
X-0004750Y0023000D02*
X-0005250D01*
X-0005000Y0023250D02*
Y0022750D01*
X-0004750Y0022000D02*
X-0005250D01*
X-0005000Y0022250D02*
Y0021750D01*
X-0004750Y0021000D02*
X-0005250D01*
X-0005000Y0021250D02*
Y0020750D01*
X-0004750Y0020000D02*
X-0005250D01*
X-0005000Y0020250D02*
Y0019750D01*
X-0004750Y0019000D02*
X-0005250D01*
X-0005000Y0019250D02*
Y0018750D01*
X-0004750Y0018000D02*
X-0005250D01*
X-0005000Y0018250D02*
Y0017750D01*
X-0004750Y0017000D02*
X-0005250D01*
X-0005000Y0017250D02*
Y0016750D01*
X-0004750Y0016000D02*
X-0005250D01*
X-0005000Y0016250D02*
Y0015750D01*
X-0004750Y0015000D02*
X-0005250D01*
X-0005000Y0015250D02*
Y0014750D01*
X-0004750Y0014000D02*
X-0005250D01*
X-0005000Y0014250D02*
Y0013750D01*
X-0004750Y0013000D02*
X-0005250D01*
X-0005000Y0013250D02*
Y0012750D01*
X-0004750Y0012000D02*
X-0005250D01*
X-0005000Y0012250D02*
Y0011750D01*
X-0004750Y0011000D02*
X-0005250D01*
X-0005000Y0011250D02*
Y0010750D01*
X-0001750Y0011000D02*
X-0002250D01*
X-0002000Y0011250D02*
Y0010750D01*
X-0001750Y0012000D02*
X-0002250D01*
X-0002000Y0012250D02*
Y0011750D01*
X-0001750Y0013000D02*
X-0002250D01*
X-0002000Y0013250D02*
Y0012750D01*
X-0001750Y0014000D02*
X-0002250D01*
X-0002000Y0014250D02*
Y0013750D01*
X-0001750Y0015000D02*
X-0002250D01*
X-0002000Y0015250D02*
Y0014750D01*
X-0001750Y0016000D02*
X-0002250D01*
X-0002000Y0016250D02*
Y0015750D01*
X-0001750Y0017000D02*
X-0002250D01*
X-0002000Y0017250D02*
Y0016750D01*
X-0001750Y0018000D02*
X-0002250D01*
X-0002000Y0018250D02*
Y0017750D01*
X-0001750Y0019000D02*
X-0002250D01*
X-0002000Y0019250D02*
Y0018750D01*
X-0001750Y0020000D02*
X-0002250D01*
X-0002000Y0020250D02*
Y0019750D01*
X-0001750Y0021000D02*
X-0002250D01*
X-0002000Y0021250D02*
Y0020750D01*
X-0001750Y0022000D02*
X-0002250D01*
X-0002000Y0022250D02*
Y0021750D01*
X-0001750Y0023000D02*
X-0002250D01*
X-0002000Y0023250D02*
Y0022750D01*
X-0001750Y0024000D02*
X-0002250D01*
X-0002000Y0024250D02*
Y0023750D01*
X-0012250Y0019750D02*
X-0012750Y0019250D01*
X-0012250D02*
X-0012750Y0019750D01*
X-0012250Y0018750D02*
X-0012750Y0018250D01*
X-0012250D02*
X-0012750Y0018750D01*
X-0010750Y0013250D02*
X-0011250Y0012750D01*
X-0010750D02*
X-0011250Y0013250D01*
X-0009750D02*
X-0010250Y0012750D01*
X-0009750D02*
X-0010250Y0013250D01*
X-0010750Y0016250D02*
X-0011250Y0015750D01*
X-0010750D02*
X-0011250Y0016250D01*
X-0009750D02*
X-0010250Y0015750D01*
X-0009750D02*
X-0010250Y0016250D01*
G54D32*
G01X-0022500Y0028500D02*
X0004250D01*
Y0002750D01*
X-0022500D01*
Y0028500D01*
M02*
