*
G04 Mass Parameters ***
*
G04 Image ***
*
%IND:\STUDY\ORCAD\SEMI 5\UPDATED\GASLEVELSENSUPDATED-1.SMT*%
%ICAS*%
%MOIN*%
%IPPOS*%
%ASAXBY*%
G74*%FSLAN2X34Y34*%
*
G04 Aperture Definitions ***
*
%ADD10C,0.0520*%
%ADD11R,0.0520X0.0520*%
%ADD12C,0.0580*%
%ADD13R,0.0580X0.0580*%
%ADD14C,0.0620*%
%ADD15R,0.0620X0.0620*%
%ADD16C,0.0600*%
%ADD17R,0.0600X0.0600*%
%ADD18C,0.1100*%
%ADD19C,0.0100*%
%ADD20C,0.0200*%
%ADD21C,0.0500*%
%ADD22C,0.1000*%
%ADD23C,0.0720*%
%ADD24R,0.0720X0.0720*%
%ADD25C,0.0780*%
%ADD26R,0.0780X0.0780*%
%ADD27C,0.0820*%
%ADD28R,0.0820X0.0820*%
%ADD29C,0.0800*%
%ADD30R,0.0800X0.0800*%
%ADD31C,0.1400*%
%ADD32C,0.0500*%
%ADD33C,0.0750*%
%ADD34C,0.1050*%
%ADD35C,0.0550*%
*
G04 Plot Data ***
*
G54D10*
X-0008000Y0016000D03*
X-0020000Y0022000D03*
X-0016750D03*
X-0015000D03*
X-0011750D03*
X-0010000D03*
X-0006750D03*
X-0008000Y0024000D03*
X-0011250D03*
X-0012500Y0018500D03*
X-0010000Y0013000D03*
Y0016000D03*
G54D11*
X-0008000Y0014750D03*
X-0012500Y0019500D03*
X-0011000Y0013000D03*
Y0016000D03*
G54D12*
X0001000D03*
Y0015000D03*
Y0014000D03*
Y0013000D03*
Y0012000D03*
X-0015000Y0019000D03*
Y0018000D03*
Y0017000D03*
Y0016000D03*
Y0015000D03*
Y0014000D03*
Y0013000D03*
Y0012000D03*
Y0010000D03*
Y0009000D03*
Y0008000D03*
Y0007000D03*
Y0006000D03*
Y0005000D03*
X-0019000Y0026000D03*
X-0005000Y0023000D03*
Y0022000D03*
Y0021000D03*
Y0020000D03*
Y0019000D03*
Y0018000D03*
Y0017000D03*
Y0016000D03*
Y0015000D03*
Y0014000D03*
Y0013000D03*
Y0012000D03*
Y0011000D03*
X-0002000D03*
Y0012000D03*
Y0013000D03*
Y0014000D03*
Y0015000D03*
Y0016000D03*
Y0017000D03*
Y0018000D03*
Y0019000D03*
Y0020000D03*
Y0021000D03*
Y0022000D03*
Y0023000D03*
Y0024000D03*
G54D13*
X0001000Y0017000D03*
X-0015000Y0020000D03*
Y0011000D03*
X-0019000Y0025000D03*
X-0005000Y0024000D03*
G54D14*
X-0013000Y0026000D03*
X-0012000D03*
X0001000Y0023000D03*
Y0024000D03*
Y0025000D03*
X-0008000Y0026000D03*
X-0007000D03*
X-0006000D03*
G54D15*
X-0014000D03*
X0001000Y0022000D03*
X-0009000Y0026000D03*
G54D16*
X-0019500Y0018500D03*
X-0018500Y0019500D03*
G54D17*
Y0017500D03*
G54D34*
X0003000Y0004000D03*
X-0021000D03*
X0003000Y0027000D03*
X-0021000D03*
G54D35*
X-0008750Y0020000D03*
Y0015000D03*
M02*
